<svg width="27" height="25" viewBox="0 0 27 25" fill="none" xmlns="http://www.w3.org/2000/svg">
<mask id="mask0_13_853" style="mask-type:alpha" maskUnits="userSpaceOnUse" x="0" y="0" width="27" height="25">
<path d="M0 0H26.983V25H0V0Z" fill="black"/>
</mask>
<g mask="url(#mask0_13_853)">
<path d="M26.983 12.5C26.983 12.2549 26.9732 12.0122 26.958 11.7705C26.9519 11.6665 26.9414 11.5626 26.9323 11.4587C26.9218 11.3393 26.9106 11.2206 26.8965 11.1023C26.8878 11.0299 26.8842 10.9574 26.8744 10.885C26.8708 10.8599 26.8621 10.8368 26.8564 10.8123C25.964 4.71549 20.3125 0 13.4915 0C6.05207 0 0 5.6073 0 12.5C0 19.3927 6.05207 25 13.4915 25C15.8859 25 18.2384 24.4109 20.2944 23.2969C20.7258 23.0632 20.8709 22.5499 20.6187 22.1499C20.3668 21.7506 19.8124 21.6168 19.3811 21.8499C17.6018 22.8141 15.5653 23.3237 13.4915 23.3237C7.04971 23.3237 1.80929 18.4684 1.80929 12.5C1.80929 6.53162 7.04971 1.67632 13.4915 1.67632C19.4983 1.67632 24.4587 5.89898 25.1013 11.3085C25.1104 11.3883 25.1184 11.4677 25.1256 11.5472C25.1368 11.6642 25.1477 11.7815 25.1545 11.8995C25.1603 11.9948 25.1618 12.09 25.165 12.1852C25.1683 12.2898 25.1737 12.3944 25.1737 12.5C25.1737 12.5047 25.1748 12.5087 25.1752 12.5134C25.1748 13.8873 24.8994 15.2237 24.3498 16.5017C24.0205 17.2678 23.3228 17.8039 22.4359 17.9732C21.5244 18.1465 20.5893 17.889 19.9351 17.2832C19.1832 16.5862 18.9516 15.5167 19.3449 14.5579C19.4618 14.2725 19.5508 13.9778 19.6174 13.6785C19.6192 13.6711 19.6206 13.6637 19.6225 13.6563C19.7621 13.0153 19.7889 12.3511 19.6927 11.6954C19.6861 11.6501 19.6728 11.6079 19.659 11.566C19.1745 8.8131 16.5973 6.70328 13.4915 6.70328C10.0416 6.70328 7.23462 9.30359 7.23462 12.5C7.23462 15.6964 10.0416 18.2967 13.4915 18.2967C15.0594 18.2967 16.4909 17.7556 17.5903 16.8692C17.8067 17.4633 18.1638 18.0128 18.6556 18.4684C19.519 19.268 20.6751 19.7032 21.8714 19.7028C22.1801 19.7028 22.4913 19.674 22.801 19.6153C24.2727 19.3344 25.4802 18.4023 26.0306 17.1226C26.6555 15.6689 26.9761 14.1022 26.9808 12.5188C26.9812 12.5124 26.983 12.5064 26.983 12V12.5ZM13.4915 16.6204C11.0392 16.6204 9.04391 14.7718 9.04391 12.5C9.04391 10.2282 11.0392 8.3796 13.4915 8.3796C15.777 8.3796 17.6637 9.98585 17.9098 12.0434C17.9156 12.0937 17.9181 12.1436 17.9221 12.1939C17.93 12.2955 17.9387 12.3967 17.9387 12.5C17.9387 12.7451 17.9112 12.9841 17.8667 13.2178C17.8577 13.2657 17.8504 13.3137 17.8392 13.3613C17.8179 13.4538 17.7915 13.544 17.7636 13.6342C17.7455 13.6919 17.7263 13.7492 17.7057 13.8065C17.1144 15.4393 15.4506 16.6204 13.4915 16.6204Z" fill="#D1D1D1"/>
</g>
</svg>
