<svg width="117" height="87" viewBox="0 0 117 87" fill="none" xmlns="http://www.w3.org/2000/svg">
<path d="M35.21 21.35H2.5C1.12 21.35 0 20.23 0 18.85C0 8.45001 8.45998 0 18.85 0C29.24 0 37.71 8.46001 37.71 18.85C37.71 20.23 36.59 21.35 35.21 21.35ZM5.22998 16.35H32.49C31.31 9.90001 25.65 5 18.86 5C12.07 5 6.40998 9.90001 5.22998 16.35Z" fill="currentColor"/>
<path d="M26.72 21.35C25.34 21.35 24.22 20.23 24.22 18.85C24.22 10.39 21.04 5 18.85 5C16.66 5 13.48 10.4 13.48 18.85C13.48 20.23 12.36 21.35 10.98 21.35C9.59998 21.35 8.47998 20.23 8.47998 18.85C8.47998 8.10001 12.94 0 18.85 0C24.76 0 29.22 8.11001 29.22 18.85C29.22 20.23 28.1 21.35 26.72 21.35Z" fill="currentColor"/>
<path d="M18.8599 48.64C17.4799 48.64 16.3599 47.52 16.3599 46.14V3.20996C16.3599 1.82996 17.4799 0.709961 18.8599 0.709961C20.2399 0.709961 21.3599 1.82996 21.3599 3.20996V46.14C21.3599 47.52 20.2399 48.64 18.8599 48.64Z" fill="currentColor"/>
<path d="M60.22 44.09H32.4C31.74 44.09 31.1001 43.83 30.6301 43.36L25.9201 38.65C24.9401 37.67 24.9401 36.09 25.9201 35.11C26.9001 34.13 28.48 34.13 29.46 35.11L33.4401 39.09H60.2301C61.6101 39.09 62.7301 40.21 62.7301 41.59C62.7301 42.97 61.6101 44.09 60.2301 44.09H60.22Z" fill="currentColor"/>
<path d="M38.0898 49.4498C36.7098 49.4498 35.5898 48.3298 35.5898 46.9498V41.5898C35.5898 40.2098 36.7098 39.0898 38.0898 39.0898C39.4698 39.0898 40.5898 40.2098 40.5898 41.5898V46.9498C40.5898 48.3298 39.4698 49.4498 38.0898 49.4498Z" fill="currentColor"/>
<path d="M50.0898 49.4498C48.7098 49.4498 47.5898 48.3298 47.5898 46.9498V41.5898C47.5898 40.2098 48.7098 39.0898 50.0898 39.0898C51.4698 39.0898 52.5898 40.2098 52.5898 41.5898V46.9498C52.5898 48.3298 51.4698 49.4498 50.0898 49.4498Z" fill="currentColor"/>
<path d="M51.9297 27.5201C47.8097 27.5201 44.4697 24.1701 44.4697 20.0601C44.4697 15.9501 47.8197 12.6001 51.9297 12.6001C56.0397 12.6001 59.3897 15.9501 59.3897 20.0601C59.3897 24.1701 56.0397 27.5201 51.9297 27.5201ZM51.9297 17.5901C50.5697 17.5901 49.4697 18.6901 49.4697 20.0501C49.4697 21.4101 50.5697 22.5101 51.9297 22.5101C53.2897 22.5101 54.3897 21.4101 54.3897 20.0501C54.3897 18.6901 53.2797 17.5901 51.9297 17.5901Z" fill="currentColor"/>
<path d="M67.3301 73.0799C65.9501 73.0799 64.8301 71.9599 64.8301 70.5799V25.2299C64.8301 19.5399 69.4601 14.9099 75.1501 14.9099C80.8401 14.9099 85.4701 19.5399 85.4701 25.2299C85.4701 26.6099 84.3501 27.7299 82.9701 27.7299C81.5901 27.7299 80.4701 26.6099 80.4701 25.2299C80.4701 22.2999 78.0801 19.9099 75.1501 19.9099C72.2201 19.9099 69.8301 22.2999 69.8301 25.2299V70.5799C69.8301 71.9599 68.7101 73.0799 67.3301 73.0799Z" fill="currentColor"/>
<path d="M89.5498 73.0799C88.1698 73.0799 87.0498 71.9599 87.0498 70.5799V25.2299C87.0498 19.5399 91.6798 14.9099 97.3698 14.9099C103.06 14.9099 107.69 19.5399 107.69 25.2299V40.3199C107.69 41.6999 106.57 42.8199 105.19 42.8199C103.81 42.8199 102.69 41.6999 102.69 40.3199V25.2299C102.69 22.2999 100.3 19.9099 97.3698 19.9099C94.4398 19.9099 92.0498 22.2999 92.0498 25.2299V70.5799C92.0498 71.9599 90.9298 73.0799 89.5498 73.0799Z" fill="currentColor"/>
<path d="M112.59 51.3601H96.1602C94.7802 51.3601 93.6602 50.2401 93.6602 48.8601C93.6602 47.4801 94.7802 46.3601 96.1602 46.3601H112.59C113.97 46.3601 115.09 47.4801 115.09 48.8601C115.09 50.2401 113.97 51.3601 112.59 51.3601Z" fill="currentColor"/>
<path d="M87.8198 51.3601H73.3599C71.9799 51.3601 70.8599 50.2401 70.8599 48.8601C70.8599 47.4801 71.9799 46.3601 73.3599 46.3601H87.8198C89.1998 46.3601 90.3198 47.4801 90.3198 48.8601C90.3198 50.2401 89.1998 51.3601 87.8198 51.3601Z" fill="currentColor"/>
<path d="M81.9302 42.5201C80.5502 42.5201 79.4302 41.4001 79.4302 40.0201V37.8301C79.4302 36.4501 80.5502 35.3301 81.9302 35.3301C83.3102 35.3301 84.4302 36.4501 84.4302 37.8301V40.0201C84.4302 41.4001 83.3102 42.5201 81.9302 42.5201Z" fill="currentColor"/>
<path d="M66.6001 51.3601H5.83008C4.45008 51.3601 3.33008 50.2401 3.33008 48.8601C3.33008 47.4801 4.45008 46.3601 5.83008 46.3601H66.6001C67.9801 46.3601 69.1001 47.4801 69.1001 48.8601C69.1001 50.2401 67.9801 51.3601 66.6001 51.3601Z" fill="currentColor"/>
<path d="M113.76 86.8301C107.67 86.8301 104.49 84.9201 101.68 83.2401C99.1001 81.6901 96.88 80.3601 92.17 80.3601C87.46 80.3601 85.24 81.7001 82.66 83.2401C79.85 84.9201 76.67 86.8301 70.58 86.8301C64.49 86.8301 61.3101 84.9201 58.5001 83.2401C55.9201 81.6901 53.7001 80.3601 48.9901 80.3601C44.2801 80.3601 42.06 81.7001 39.48 83.2401C36.67 84.9201 33.49 86.8301 27.4 86.8301C21.31 86.8301 18.13 84.9201 15.32 83.2401C12.74 81.6901 10.5201 80.3601 5.81006 80.3601C4.43006 80.3601 3.31006 79.2401 3.31006 77.8601C3.31006 76.4801 4.43006 75.3601 5.81006 75.3601C11.9001 75.3601 15.08 77.2701 17.89 78.9501C20.47 80.5001 22.69 81.8301 27.4 81.8301C32.11 81.8301 34.33 80.4901 36.91 78.9501C39.72 77.2701 42.9001 75.3601 48.9901 75.3601C55.0801 75.3601 58.26 77.2701 61.07 78.9501C63.65 80.5001 65.87 81.8301 70.58 81.8301C75.29 81.8301 77.51 80.4901 80.09 78.9501C82.9 77.2701 86.08 75.3601 92.17 75.3601C98.26 75.3601 101.44 77.2701 104.25 78.9501C106.83 80.5001 109.05 81.8301 113.76 81.8301C115.14 81.8301 116.26 82.9501 116.26 84.3301C116.26 85.7101 115.14 86.8301 113.76 86.8301Z" fill="currentColor"/>
<path d="M87.63 35.1299H69C67.62 35.1299 66.5 34.0099 66.5 32.6299C66.5 31.2499 67.62 30.1299 69 30.1299H87.63C89.01 30.1299 90.13 31.2499 90.13 32.6299C90.13 34.0099 89.01 35.1299 87.63 35.1299Z" fill="currentColor"/>
<path d="M87.63 65.8501H69C67.62 65.8501 66.5 64.7301 66.5 63.3501C66.5 61.9701 67.62 60.8501 69 60.8501H87.63C89.01 60.8501 90.13 61.9701 90.13 63.3501C90.13 64.7301 89.01 65.8501 87.63 65.8501Z" fill="currentColor"/>
<path d="M62.8301 62.8C62.2401 62.48 61.6701 62.14 61.0901 61.79C58.2801 60.11 55.1001 58.2 49.0101 58.2C42.9201 58.2 39.7401 60.11 36.9301 61.79C34.3501 63.34 32.1301 64.67 27.4201 64.67C22.7101 64.67 20.4901 63.33 17.9101 61.79C15.1001 60.11 11.9201 58.2 5.83008 58.2C4.45008 58.2 3.33008 59.32 3.33008 60.7C3.33008 62.08 4.45008 63.2 5.83008 63.2C10.5401 63.2 12.7601 64.54 15.3401 66.08C18.1501 67.76 21.3301 69.67 27.4201 69.67C33.5101 69.67 36.6901 67.76 39.5001 66.08C42.0801 64.53 44.3001 63.2 49.0101 63.2C53.7201 63.2 55.9401 64.54 58.5201 66.08C59.8001 66.85 61.1601 67.6599 62.8401 68.3199V62.8H62.8301Z" fill="currentColor"/>
<path d="M113.76 64.67C109.06 64.67 106.83 63.33 104.25 61.79C101.69 60.26 98.8202 58.54 93.7402 58.25V63.2599C97.4102 63.5199 99.4102 64.72 101.68 66.09C104.49 67.77 107.67 69.68 113.76 69.68C115.14 69.68 116.26 68.56 116.26 67.18C116.26 65.8 115.14 64.68 113.76 64.68V64.67Z" fill="currentColor"/>
</svg>
