<svg width="25" height="17" viewBox="0 0 25 17" fill="none" xmlns="http://www.w3.org/2000/svg">
<path d="M22.8411 0H2.15898C0.969486 0 0 0.944817 0 2.10406V15.0065C0 16.1054 0.917891 17 2.04551 17H22.9546C24.0822 17 25 16.1054 25 15.0065V2.10406C25 0.944817 24.0306 0 22.8411 0ZM2.15898 1.67521H22.8411C23.0852 1.67521 23.2811 1.86618 23.2811 2.10406V5.00217H1.71893V2.10406C1.71893 1.86618 1.9149 1.67521 2.15898 1.67521ZM22.9546 15.3248H2.04551C1.86674 15.3248 1.71893 15.1807 1.71893 15.0065V6.67737H23.2811V15.0065C23.2811 15.1807 23.1368 15.3248 22.9546 15.3248Z" fill="#FFF8EA"/>
<path fill-rule="evenodd" clip-rule="evenodd" d="M20.9163 11.2977L19.5754 9.90723V10.5405H17.9185V10.9827H19.5343V11.6193H17.9185V12.0515H19.5754V12.6948L20.9163 11.2977Z" fill="#FFF8EA"/>
<path fill-rule="evenodd" clip-rule="evenodd" d="M23.2708 12.6679V12.0917L22.5077 11.2909L23.2708 10.5002V9.91724L21.9438 11.2976L23.2708 12.6679Z" fill="#FFF8EA"/>
<path fill-rule="evenodd" clip-rule="evenodd" d="M16.6875 9.49854V13.1036L20.7683 13.1103L21.4112 12.4134L22.0539 13.1069H23.271V12.7082H22.2569L21.4146 11.807L20.5826 12.7082H19.5753H19.5615H17.1276V9.89388H19.5753H20.6101L21.4387 10.7851L22.2671 9.89388H23.271V9.50187L16.6875 9.49854Z" fill="#FFF8EA"/>
<path fill-rule="evenodd" clip-rule="evenodd" d="M19.5718 9.47502V6.69082L20.8059 6.69417L21.442 8.41964L22.0814 6.69082H23.2708V6.29883H21.7755L21.4351 7.22355L21.0982 6.29883H19.1385V7.53178L18.5817 6.29883H16.9934L15.3638 9.90387H23.2708V9.49848L22.5042 9.50517V7.57534L21.7824 9.49848H21.0844L20.3487 7.56864V9.49848H19.5856H18.6848L18.4441 8.93561H17.1344L16.8937 9.49848H16.0136L17.2959 6.69082H18.3101L19.5718 9.47502Z" fill="#FFF8EA"/>
<path fill-rule="evenodd" clip-rule="evenodd" d="M18.1724 8.30569L17.7873 7.41113L17.4058 8.30569H18.1724Z" fill="#FFF8EA"/>
</svg>
