<svg width="25" height="25" viewBox="0 0 25 25" fill="none" xmlns="http://www.w3.org/2000/svg">
<mask id="mask0_14_1125" style="mask-type:alpha" maskUnits="userSpaceOnUse" x="0" y="0" width="25" height="25">
<path d="M0 0H25V24.309H0V0Z" fill="black"/>
</mask>
<g mask="url(#mask0_14_1125)">
<path d="M18.6534 15.3143L18.6177 15.2967C18.435 15.1994 18.1359 14.7561 17.8712 14.3631C17.0153 13.0982 15.7218 11.1873 12.9981 11.1873L12.2983 11.1883C9.5759 11.1886 8.28276 13.0999 7.42646 14.3648C7.14918 14.7755 6.86239 15.1997 6.6916 15.2909L6.63921 15.3174C5.51243 15.8886 2.88193 17.4669 2.78531 19.7861C2.74822 21.0564 3.23303 22.3097 4.10566 23.2137C4.75615 23.9108 5.67403 24.3092 6.6273 24.3092C6.67425 24.3092 6.72086 24.3068 6.76747 24.3C7.22675 24.2316 7.6629 24.0795 8.06299 23.8475C8.93461 23.4273 10.1315 22.8609 12.6007 22.8609H12.712C14.23 22.8316 15.7613 23.1712 17.1316 23.8325C17.5681 24.0676 18.0376 24.2248 18.5268 24.2996C18.5779 24.3071 18.6289 24.3092 18.6799 24.3092C19.6318 24.3092 20.547 23.9104 21.1835 23.2242C22.0664 22.3091 22.5505 21.0561 22.5131 19.7755C22.4165 17.4692 19.7859 15.8896 18.6534 15.3143ZM19.9479 22.0549C19.6308 22.3968 19.1872 22.5965 18.7221 22.6078C18.4438 22.5581 18.1764 22.4645 17.9267 22.3285C17.9148 22.322 17.9025 22.3159 17.8906 22.3097C16.3335 21.5548 14.6025 21.1581 12.8844 21.1581C12.8225 21.1581 12.7599 21.1588 12.6977 21.1598H12.6007C9.72049 21.1598 8.20588 21.8903 7.29343 22.3302C7.27064 22.3407 7.24921 22.3523 7.22777 22.3649C7.02705 22.4846 6.80829 22.5659 6.57763 22.6074C6.11256 22.5942 5.66689 22.3938 5.33926 22.043C4.77282 21.4558 4.46152 20.6516 4.48534 19.8466C4.53331 18.693 6.09011 17.5033 7.40638 16.8358L7.47442 16.8011C8.03577 16.5017 8.4066 15.9526 8.83561 15.3177C9.60618 14.1794 10.4792 12.8893 12.2996 12.8893H12.3006L12.9994 12.8883C14.8192 12.8883 15.6919 14.1784 16.4621 15.3161C16.8911 15.9519 17.2613 16.501 17.8386 16.8086L17.8896 16.8337C19.2083 17.5036 20.7651 18.6947 20.813 19.8361C20.8369 20.6512 20.5259 21.4555 19.9479 22.0549Z" fill="#FFF8EA"/>
<path d="M5.08411 14.5329C5.88735 14.1117 6.45482 13.3255 6.60043 12.4362C6.9386 10.4572 5.98635 8.47308 4.2125 7.48851C3.77363 7.25853 3.27896 7.13265 2.78225 7.12415C2.75844 7.12415 2.73326 7.12449 2.70911 7.12619C2.33624 7.13231 1.96269 7.2194 1.62452 7.3793C1.61363 7.38441 1.60308 7.38951 1.59254 7.39529C0.788962 7.81681 0.221492 8.60304 0.0786034 9.4767C-0.10579 10.448 0.037438 11.469 0.474608 12.3379C1.20402 13.8579 2.58935 14.7949 3.92128 14.7949C4.31966 14.7949 4.71397 14.7108 5.08411 14.5329ZM2.00113 11.5874C1.7242 11.0369 1.63472 10.4 1.75312 9.77302C1.81299 9.40831 2.04162 9.08682 2.36618 8.91025C2.49001 8.8548 2.62508 8.82384 2.76014 8.8269C2.77171 8.82758 2.78361 8.8269 2.79484 8.82656C3.01394 8.83608 3.22963 8.89392 3.40552 8.98577C4.53025 9.61006 5.14059 10.8818 4.92285 12.1555C4.86196 12.5263 4.62687 12.8519 4.32102 13.0128C3.61271 13.352 2.53254 12.6937 2.00113 11.5874Z" fill="#FFF8EA"/>
<path d="M23.3551 7.76944C23.2078 7.70004 23.0523 7.64458 22.8938 7.6041L22.8696 7.59797C21.339 7.22238 19.6277 8.23553 18.7986 10.0039C18.3622 10.8915 18.2285 11.9139 18.4173 12.8614C18.5721 13.7561 19.146 14.5372 19.9805 14.9639C20.3309 15.1282 20.713 15.2098 21.1053 15.2098C21.6071 15.2098 22.1266 15.0765 22.6199 14.8121C23.4296 14.3784 24.1127 13.6333 24.5428 12.7151C25.4722 10.7316 24.9388 8.51348 23.3551 7.76944ZM23.0026 11.9935C22.7308 12.5735 22.2984 13.0546 21.8167 13.3128C21.5809 13.439 21.1236 13.6207 20.7293 13.4367C20.3952 13.2655 20.1578 12.9423 20.0897 12.5508C19.9693 11.9459 20.0527 11.308 20.3316 10.7402C20.8011 9.73993 21.6108 9.22281 22.23 9.22281C22.3144 9.22281 22.3957 9.23268 22.4716 9.25173L22.4858 9.25547C22.5362 9.26909 22.5852 9.28745 22.6318 9.30889C23.3554 9.64876 23.5252 10.8783 23.0026 11.9935Z" fill="#FFF8EA"/>
<path d="M15.0781 9.55526C15.2598 9.60288 15.4445 9.62602 15.6309 9.62602C16.3277 9.62602 17.0442 9.2984 17.6964 8.67207C17.7076 8.66084 17.7192 8.64962 17.7297 8.63805C19.3471 6.89992 19.9775 4.48476 19.4161 2.17848C19.4124 2.16317 19.4083 2.14786 19.4039 2.13289C19.0708 1.03435 18.4128 0.305963 17.5491 0.0810846C17.3711 0.0351562 17.1884 0.0116817 17.0057 0.0116817C16.986 0.0113415 16.9639 0.0120219 16.9421 0.013723C16.1542 0.0691772 15.4265 0.421295 14.9117 0.985363C14.0881 1.83215 13.5091 2.8868 13.2413 4.01629C12.9365 5.18424 12.9188 6.37905 13.1927 7.38199C13.5067 8.5319 14.1932 9.32459 15.0781 9.55526ZM14.892 4.42727C15.0934 3.5781 15.5217 2.798 16.1491 2.15228C16.3794 1.89985 16.6914 1.74505 17.0302 1.71307C17.0615 1.71511 17.0925 1.72022 17.1221 1.72736C17.3776 1.79438 17.6188 2.12132 17.7692 2.60408C18.1829 4.33813 17.7096 6.15043 16.5009 7.46126C16.1331 7.80896 15.7616 7.97634 15.5075 7.90932C15.2366 7.83855 14.9784 7.465 14.8335 6.93394C14.6399 6.2246 14.6593 5.3176 14.892 4.42727Z" fill="#FFF8EA"/>
<path d="M7.24619 8.65094C7.89837 9.29666 8.62302 9.63517 9.33134 9.63517C9.50519 9.63517 9.67801 9.6151 9.84846 9.57393C10.714 9.36539 11.3838 8.64618 11.7431 7.52145C12.0619 6.39127 12.0711 5.19543 11.7696 4.06151C11.5114 2.91602 10.9497 1.85967 10.1621 1.0265C9.63106 0.425004 8.89757 0.0616593 8.09672 0.00348337C8.07528 0.00144211 8.05385 -0.00195999 8.03241 0.0011019C7.85959 0.00178232 7.68744 0.0225351 7.51768 0.0637006C6.65354 0.275311 5.98469 0.993835 5.63495 2.08659C5.62985 2.1019 5.62543 2.11755 5.62169 2.1332C5.027 4.43166 5.62203 6.85565 7.21353 8.61658C7.22408 8.62883 7.23496 8.64006 7.24619 8.65094ZM7.26218 2.58296C7.42038 2.1019 7.66635 1.7787 7.92049 1.7161C7.94941 1.7093 7.979 1.70487 8.00928 1.70317C8.34983 1.73719 8.66112 1.89641 8.90642 2.17334C9.50655 2.80886 9.9233 3.59576 10.1131 4.44833C10.1159 4.46092 10.1186 4.47282 10.122 4.48507C10.3486 5.32811 10.3435 6.21878 10.1145 7.03154C9.9563 7.52553 9.70761 7.85791 9.44939 7.92017C9.18981 7.98277 8.82102 7.81062 8.45938 7.45817C7.27001 6.13033 6.82331 4.31122 7.26218 2.58296Z" fill="#FFF8EA"/>
</g>
</svg>
