<svg width="72" height="72" viewBox="0 0 72 72" fill="none" xmlns="http://www.w3.org/2000/svg">
<path d="M69.0498 33.25C70.4296 33.2503 71.5498 34.3702 71.5498 35.75C71.5498 55.4799 55.4994 71.5301 35.7695 71.5303C26.6595 71.5303 17.9294 68.0096 11.3594 61.8896V69.0303C11.3592 70.4102 10.2393 71.5303 8.85938 71.5303C7.47946 71.5303 6.35951 70.4102 6.35938 69.0303V55.3301C6.35938 55.2702 6.37983 55.22 6.37988 55.1602C6.38988 55.0702 6.38918 54.9796 6.40918 54.8896C6.4192 54.8098 6.44974 54.74 6.46973 54.6602C6.48973 54.5902 6.50906 54.5097 6.53906 54.4297C6.56905 54.3497 6.59967 54.2799 6.63965 54.21C6.67963 54.14 6.71979 54.07 6.75977 54C6.79968 53.9401 6.84956 53.8704 6.89941 53.8105C6.94941 53.7405 6.9898 53.6801 7.0498 53.6201C7.10964 53.5603 7.17925 53.5002 7.24902 53.4404C7.29902 53.4004 7.32988 53.3503 7.37988 53.3203C7.38992 53.3104 7.40996 53.2998 7.41992 53.2998C7.48978 53.25 7.57942 53.21 7.65918 53.1602C7.72918 53.1302 7.78961 53.0905 7.84961 53.0605C7.91949 53.0306 7.99924 53.0104 8.0791 52.9805C8.15908 52.9605 8.23936 52.9302 8.31934 52.9102C8.37934 52.8902 8.44953 52.8799 8.51953 52.8799C8.61943 52.8699 8.70965 52.8506 8.80957 52.8506H22.5498C23.9296 52.8509 25.0498 53.9707 25.0498 55.3506C25.0495 56.7302 23.9294 57.8503 22.5498 57.8506H14.3398C20.0398 63.3703 27.7398 66.5498 35.7695 66.5498C52.7393 66.5497 66.5495 52.7402 66.5498 35.7705C66.5498 34.3905 67.6698 33.2705 69.0498 33.2705V33.25ZM35.7695 19.3105C44.8495 19.3105 52.2295 26.6905 52.2295 35.7705C52.2292 44.8503 44.8494 52.2305 35.7695 52.2305C26.6897 52.2305 19.3098 44.8503 19.3096 35.7705C19.3096 26.6905 26.6895 19.3105 35.7695 19.3105ZM35.7695 24.3105C29.4495 24.3105 24.3096 29.4505 24.3096 35.7705C24.3098 42.0903 29.4497 47.2305 35.7695 47.2305C42.0894 47.2305 47.2292 42.0903 47.2295 35.7705C47.2295 29.4505 42.0895 24.3105 35.7695 24.3105ZM35.7197 28.1797C36.2397 28.1797 36.6602 28.6001 36.6602 29.1201V29.5703C38.1201 29.7503 39.0202 30.3006 39.4902 31.1006C39.9096 31.8304 39.32 32.7399 38.4805 32.7402C38.0105 32.7402 37.6207 32.4299 37.4307 32C37.1907 31.43 36.6401 31.0205 35.5801 31.0205C34.3201 31.0205 33.7598 31.6501 33.7598 32.5801C33.7598 33.5101 34.39 34.0405 36.4199 34.7305V34.7197C39.1799 35.6497 40.21 36.71 40.21 38.54C40.21 40.37 39.0702 41.6499 36.6602 41.9199V42.4102C36.66 42.93 36.2396 43.3506 35.7197 43.3506C35.1999 43.3505 34.7804 42.93 34.7803 42.4102V41.9404C33.0403 41.7804 32.0103 41.1299 31.4902 40.1699C31.0902 39.4199 31.66 38.5205 32.5 38.5205H32.5703C33.0402 38.5206 33.4601 38.8101 33.6201 39.25C33.8801 39.97 34.4399 40.4697 35.7197 40.4697C36.9997 40.4697 37.75 39.8998 37.75 38.7598C37.7499 37.6899 37.1599 37.1297 35.29 36.4697C32.4901 35.5197 31.3301 34.6497 31.3301 32.7197C31.3302 30.9799 32.6804 29.7898 34.7803 29.5498V29.1201C34.7803 28.6002 35.1998 28.1798 35.7197 28.1797ZM62.6904 0C64.0703 0.000132086 65.1904 1.12008 65.1904 2.5V16.2002C65.1904 16.2601 65.1699 16.3102 65.1699 16.3701C65.1599 16.4701 65.1606 16.5604 65.1406 16.6504C65.1207 16.7302 65.1 16.8 65.0801 16.8799C65.0601 16.9599 65.0398 17.0304 65.0098 17.1104C64.9798 17.1902 64.9501 17.2602 64.9102 17.3301C64.8702 17.4001 64.83 17.47 64.79 17.54C64.75 17.6 64.7004 17.6705 64.6504 17.7305C64.6005 17.8004 64.5599 17.86 64.5 17.9199C64.44 17.9799 64.3698 18.0406 64.2998 18.1006C64.25 18.1405 64.2198 18.1898 64.1699 18.2197C64.1599 18.2297 64.1399 18.2402 64.1299 18.2402C64.05 18.3001 63.96 18.3397 63.8701 18.3896C63.8101 18.4196 63.7602 18.4505 63.7002 18.4805C63.6203 18.5204 63.5303 18.5404 63.4404 18.5703C63.3706 18.5903 63.3003 18.6099 63.2305 18.6299C63.1506 18.6499 63.0702 18.6601 62.9902 18.6602C62.9103 18.6701 62.8202 18.6904 62.7402 18.6904H48.9902C47.6104 18.6904 46.4905 17.5702 46.4902 16.1904C46.4902 14.8104 47.6102 13.6904 48.9902 13.6904H57.2002C51.5003 8.17054 43.8003 4.99036 35.7705 4.99023L35.7803 5C18.8103 5 5 18.8103 5 35.7803C4.99987 37.1602 3.87992 38.2803 2.5 38.2803C1.12008 38.2803 0.000132086 37.1602 0 35.7803C0 16.0503 16.0503 0 35.7803 0C44.8902 6.28881e-05 53.6205 3.5197 60.1904 9.63965V2.5C60.1904 1.12 61.3104 0 62.6904 0Z" fill="#FFF8EA"/>
</svg>
