<?xml version="1.0" encoding="UTF-8"?>
<svg id="Layer_2" data-name="Layer 2" xmlns="http://www.w3.org/2000/svg" viewBox="0 0 94.98 80.9">
  <g id="Layer_1-2" data-name="Layer 1">
    <g>
      <path d="M57.44,60.83h-19.9c-1.38,0-2.5,1.12-2.5,2.5s1.12,2.5,2.5,2.5h19.9c1.38,0,2.5-1.12,2.5-2.5s-1.12-2.5-2.5-2.5Z"/>
      <path d="M24.41,51.04c.32.14.66.2.99.2.97,0,1.89-.57,2.3-1.51l3.12-7.24h34.18l2.26,5.69c.51,1.28,1.96,1.91,3.25,1.4,1.28-.51,1.91-1.96,1.4-3.25l-2.89-7.27c-.38-.95-1.3-1.58-2.32-1.58H29.17c-1,0-1.9.59-2.3,1.51l-3.77,8.75c-.55,1.27.04,2.74,1.31,3.29Z"/>
      <path d="M47.49,25.66c7.07,0,12.83-5.76,12.83-12.83S54.56,0,47.49,0s-12.83,5.76-12.83,12.83,5.76,12.83,12.83,12.83ZM47.49,5c4.32,0,7.83,3.51,7.83,7.83s-3.51,7.83-7.83,7.83-7.83-3.51-7.83-7.83,3.51-7.83,7.83-7.83Z"/>
      <path d="M82.15,12.83c-7.07,0-12.83,5.76-12.83,12.83s5.76,12.83,12.83,12.83,12.83-5.76,12.83-12.83-5.76-12.83-12.83-12.83ZM82.15,33.49c-4.32,0-7.83-3.51-7.83-7.83s3.51-7.83,7.83-7.83,7.83,3.51,7.83,7.83-3.51,7.83-7.83,7.83Z"/>
      <path d="M25.66,25.66c0-7.07-5.76-12.83-12.83-12.83S0,18.59,0,25.66s5.76,12.83,12.83,12.83,12.83-5.76,12.83-12.83ZM5,25.66c0-4.32,3.51-7.83,7.83-7.83s7.83,3.51,7.83,7.83-3.51,7.83-7.83,7.83-7.83-3.51-7.83-7.83Z"/>
      <path d="M18.21,55.24c-7.07,0-12.83,5.76-12.83,12.83s5.76,12.83,12.83,12.83,12.83-5.76,12.83-12.83-5.76-12.83-12.83-12.83ZM18.21,75.9c-4.32,0-7.83-3.51-7.83-7.83s3.51-7.83,7.83-7.83,7.83,3.51,7.83,7.83-3.51,7.83-7.83,7.83Z"/>
      <path d="M76.77,55.24c-7.07,0-12.83,5.76-12.83,12.83s5.76,12.83,12.83,12.83,12.83-5.76,12.83-12.83-5.76-12.83-12.83-12.83ZM76.77,75.9c-4.32,0-7.83-3.51-7.83-7.83s3.51-7.83,7.83-7.83,7.83,3.51,7.83,7.83-3.51,7.83-7.83,7.83Z"/>
    </g>
  </g>
</svg>