<?xml version="1.0" encoding="UTF-8"?>
<svg id="Layer_2" data-name="Layer 2" xmlns="http://www.w3.org/2000/svg" viewBox="0 0 73.45 76.22">
  <defs>
    <style>
      .cls-1 {
        fill: #d1d1d1;
      }
    </style>
  </defs>
  <g id="Layer_1-2" data-name="Layer 1">
    <g>
      <path class="cls-1" d="M70.91,43l-15.31-12.98c-2.69-2.28-6.6-2.28-9.3,0l-15.32,12.98c-1.62,1.37-2.54,3.37-2.54,5.48v18.92c0,4.86,3.95,8.81,8.81,8.81h27.38c4.86,0,8.81-3.95,8.81-8.81v-18.92c0-2.12-.93-4.11-2.54-5.48ZM46.54,70.9v-8.91h8.76v8.91h-8.76ZM68.45,67.41c0,2.1-1.71,3.81-3.81,3.81h-4.34v-11.73c0-1.38-1.12-2.5-2.5-2.5h-13.76c-1.38,0-2.5,1.12-2.5,2.5v11.73h-4.28c-2.1,0-3.81-1.71-3.81-3.81v-18.92c0-.64.28-1.25.77-1.67l15.32-12.98c.41-.35.91-.52,1.42-.52s1.01.17,1.42.52l15.31,12.98c.49.42.77,1.02.77,1.67v18.92Z"/>
      <path class="cls-1" d="M14.82,71.22H5V11.17c0-3.4,2.59-6.17,5.77-6.17h40.37c3.18,0,5.77,2.77,5.77,6.17v17.36c0,1.38,1.12,2.5,2.5,2.5s2.5-1.12,2.5-2.5V11.17c0-6.16-4.83-11.17-10.77-11.17H10.77C4.83,0,0,5.01,0,11.17v62.55c0,1.38,1.12,2.5,2.5,2.5h12.32c1.38,0,2.5-1.12,2.5-2.5s-1.12-2.5-2.5-2.5Z"/>
      <path class="cls-1" d="M35.79,8.75c-1.38,0-2.5,1.12-2.5,2.5v8.91c0,1.38,1.12,2.5,2.5,2.5h13.76c1.38,0,2.5-1.12,2.5-2.5v-8.91c0-1.38-1.12-2.5-2.5-2.5h-13.76ZM47.04,17.66h-8.76v-3.91h8.76v3.91Z"/>
      <path class="cls-1" d="M12.35,8.75c-1.38,0-2.5,1.12-2.5,2.5v8.91c0,1.38,1.12,2.5,2.5,2.5h13.76c1.38,0,2.5-1.12,2.5-2.5v-8.91c0-1.38-1.12-2.5-2.5-2.5h-13.76ZM23.61,17.66h-8.76v-3.91h8.76v3.91Z"/>
      <path class="cls-1" d="M28.61,31.71c0-1.38-1.12-2.5-2.5-2.5h-13.76c-1.38,0-2.5,1.12-2.5,2.5v8.91c0,1.38,1.12,2.5,2.5,2.5h13.76c1.38,0,2.5-1.12,2.5-2.5v-8.91ZM23.61,38.12h-8.76v-3.91h8.76v3.91Z"/>
    </g>
  </g>
</svg>