<svg width="75" height="71" viewBox="0 0 75 71" fill="none" xmlns="http://www.w3.org/2000/svg">
<g clip-path="url(#clip0_98_2769)">
<path d="M35.1122 54.0594C36.3725 54.0594 37.3966 53.0291 37.3966 51.7611V50.5723C43.2749 49.8987 46.0516 46.7683 46.0516 42.2807C46.0516 37.793 43.5309 35.1876 36.8058 32.8993C31.8531 31.1954 30.3072 29.9075 30.3072 27.6191C30.3072 25.3308 31.6758 23.7853 34.7577 23.7853C37.3375 23.7853 38.6865 24.7958 39.2871 26.2025C39.74 27.2625 40.705 28.0055 41.857 28.0055C43.905 28.0055 45.3525 25.7567 44.3087 23.9835C43.1567 22.022 40.961 20.6648 37.3966 20.2289V19.1392C37.3966 17.8712 36.3725 16.8409 35.1122 16.8409C33.8519 16.8409 32.8278 17.8712 32.8278 19.1392V20.1992C27.6979 20.8035 24.4092 23.716 24.4092 27.9758C24.4092 32.711 27.2449 34.8508 34.0685 37.1887C38.6274 38.7936 40.0748 40.1805 40.0748 42.8057C40.0748 45.5993 38.2335 47.006 35.1122 47.006C31.9909 47.006 30.6223 45.7875 29.9921 44.0143C29.6081 42.9345 28.5742 42.2212 27.432 42.2212H27.2745C25.2166 42.2212 23.8381 44.4403 24.8129 46.263C26.0732 48.6307 28.584 50.2256 32.8377 50.612V51.7611C32.8377 53.0291 33.8617 54.0594 35.1221 54.0594H35.1122Z" fill="#FFF8EA"/>
<path d="M65.5278 35.7819C65.3407 52.4346 51.8314 65.937 35.2304 65.937C18.6294 65.937 4.9232 52.2563 4.9232 35.445C4.9232 18.6338 18.5211 4.95305 35.2304 4.95305C39.7794 4.95305 44.102 5.97341 47.9716 7.78629C48.08 7.65751 48.1784 7.52872 48.2966 7.40985C49.1138 6.63714 50.1871 6.22107 51.2997 6.22107C51.4179 6.22107 51.5262 6.22107 51.6443 6.23098C51.8511 6.25079 52.0677 6.25079 52.2844 6.25079C53.1705 6.25079 53.9582 6.1121 54.6672 5.89416C49.0941 2.16934 42.4084 -0.0100708 35.2206 -0.0100708C15.8035 -0.000164371 0 15.8997 0 35.445C0 54.9904 15.8035 70.8903 35.2304 70.8903C54.6573 70.8903 70.4608 54.9904 70.4608 35.445C70.4608 34.0284 70.3722 32.6217 70.2048 31.2447C68.8952 32.7703 67.3494 34.2761 65.5278 35.7819Z" fill="#FFF8EA"/>
<path d="M51.4968 8.21241C50.8174 8.16287 50.138 8.40063 49.6359 8.86623C49.1337 9.33183 48.8481 9.99556 48.8481 10.6791C48.8481 20.0407 50.778 27.3615 60.4078 34.94C60.8509 35.2867 61.3925 35.465 61.9242 35.465C62.4559 35.465 62.9974 35.2867 63.4405 34.94C73.0604 27.3714 75.0002 20.0407 75.0002 10.6791C75.0002 9.98566 74.7146 9.33183 74.2125 8.86623C73.7103 8.40063 73.0309 8.15297 72.3515 8.21241C67.064 8.60866 63.9919 4.95319 63.8344 4.76497C63.3716 4.1904 62.6725 3.85358 61.934 3.85358C61.2152 3.86348 60.4767 4.1904 60.0041 4.76497C59.8761 4.92347 56.7942 8.60866 51.487 8.21241H51.4968ZM61.9242 9.738C63.6079 11.0952 66.3452 12.7496 70.0179 13.126C69.7127 19.6048 67.9895 24.5283 61.9242 29.7985C55.8588 24.5382 54.1258 19.6147 53.8304 13.126C57.5031 12.7496 60.2503 11.0952 61.9242 9.738Z" fill="#FFF8EA"/>
</g>
<defs>
<clipPath id="clip0_98_2769">
<rect width="75" height="70.8904" fill="white"/>
</clipPath>
</defs>
</svg>
