<svg width="25" height="18" viewBox="0 0 25 18" fill="none" xmlns="http://www.w3.org/2000/svg">
<mask id="mask0_14_1139" style="mask-type:alpha" maskUnits="userSpaceOnUse" x="0" y="0" width="25" height="18">
<path d="M0 0H25V17.8864H0V0Z" fill="black"/>
</mask>
<g mask="url(#mask0_14_1139)">
<path d="M12.5002 4.19385C9.88141 4.19385 7.75085 6.32409 7.75085 8.94318C7.75085 11.562 9.88141 13.6925 12.5002 13.6925C15.119 13.6925 17.2498 11.562 17.2498 8.94318C17.2498 6.32409 15.119 4.19385 12.5002 4.19385V4.19385ZM12.5002 12.1176C10.7498 12.1176 9.32578 10.6936 9.32578 8.94318C9.32578 7.19281 10.7498 5.76877 12.5002 5.76877C14.2506 5.76877 15.6749 7.19281 15.6749 8.94318C15.6749 10.6936 14.2506 12.1176 12.5002 12.1176Z" fill="#FFF8EA"/>
<path d="M24.8895 8.54017C21.6133 3.03298 17.2133 0 12.5002 0C7.78709 0 3.38707 3.03298 0.110918 8.54017C-0.0368099 8.78838 -0.0368099 9.09738 0.110918 9.34559C3.38707 14.8531 7.78709 17.8864 12.5002 17.8864C17.2133 17.8864 21.6133 14.8531 24.8895 9.34559C25.0372 9.09738 25.0372 8.78838 24.8895 8.54017ZM12.5002 16.3115C8.47659 16.3115 4.65803 13.6993 1.70883 8.94272C4.65803 4.18677 8.47659 1.57492 12.5002 1.57492C16.5238 1.57492 20.3424 4.18677 23.2916 8.94272C20.3424 13.6993 16.5238 16.3115 12.5002 16.3115Z" fill="#FFF8EA"/>
</g>
</svg>
