<svg width="25" height="24" viewBox="0 0 25 24" fill="none" xmlns="http://www.w3.org/2000/svg">
<mask id="mask0_14_1133" style="mask-type:alpha" maskUnits="userSpaceOnUse" x="0" y="0" width="25" height="24">
<path d="M0 0H25V23.1755H0V0Z" fill="black"/>
</mask>
<g mask="url(#mask0_14_1133)">
<path d="M21.1044 -0.00012207H3.89559C1.74735 -0.00012207 0 1.74758 0 3.89547V15.824C0 17.9723 1.74735 19.7196 3.89559 19.7196H6.53642C7.11308 19.7196 7.65535 19.944 8.06283 20.3518L9.74522 22.0342C10.4813 22.7703 11.4592 23.1757 12.5 23.1757C13.5408 23.1757 14.519 22.7703 15.2544 22.0342L16.9372 20.3518C17.345 19.944 17.8869 19.7196 18.4636 19.7196H21.1044C23.2526 19.7196 25 17.9723 25 15.824V3.89547C25 1.74758 23.2526 -0.00012207 21.1044 -0.00012207ZM23.2631 15.824C23.2631 17.0142 22.2946 17.9827 21.1044 17.9827H18.4636C17.4232 17.9827 16.4449 18.3877 15.7092 19.1238L14.0264 20.8062C13.6186 21.2141 13.0767 21.4388 12.5 21.4388C11.9233 21.4388 11.3814 21.2141 10.9739 20.8062L9.29119 19.1238C8.55543 18.3877 7.57719 17.9827 6.53642 17.9827H3.89559C2.7051 17.9827 1.73693 17.0142 1.73693 15.824V3.89547C1.73693 2.70532 2.7051 1.73681 3.89559 1.73681H21.1044C22.2946 1.73681 23.2631 2.70532 23.2631 3.89547V15.824Z" fill="#FFF8EA"/>
<path d="M12.2908 4.39294C9.93799 4.39294 8.29971 5.29927 7.35864 6.72842L9.46728 7.96581C10.0252 7.16405 10.8791 6.67597 11.9942 6.67597C13.1273 6.67597 13.8766 7.21615 13.8766 8.07038C13.8766 9.58672 11.1577 10.1269 11.1577 12.5669H13.7895C13.7895 10.7195 16.7176 10.4059 16.7176 7.61738C16.7176 5.56051 14.9049 4.39294 12.2908 4.39294Z" fill="#FFF8EA"/>
<path d="M12.4826 13.8047C11.5064 13.8047 10.8096 14.4668 10.8096 15.3558C10.8096 16.2274 11.5064 16.9419 12.4826 16.9419C13.4587 16.9419 14.1556 16.2274 14.1556 15.3558C14.1556 14.4668 13.4587 13.8047 12.4826 13.8047Z" fill="#FFF8EA"/>
</g>
</svg>
