<svg width="20" height="25" viewBox="0 0 20 25" fill="none" xmlns="http://www.w3.org/2000/svg">
<mask id="mask0_14_1108" style="mask-type:alpha" maskUnits="userSpaceOnUse" x="0" y="0" width="20" height="25">
<path d="M0 0H19.9344V25H0V0Z" fill="black"/>
</mask>
<g mask="url(#mask0_14_1108)">
<path d="M15.678 16.6004V6.33617C15.678 5.82795 15.5636 5.31904 15.3512 4.87311C15.2654 4.68725 15.1643 4.51092 15.0486 4.3448C14.9329 4.17869 14.8025 4.02278 14.6585 3.87845L13.2264 2.44909L11.7937 1.01803C11.7045 0.929183 11.6112 0.848166 11.5152 0.770895C11.2939 0.591842 11.0591 0.444106 10.8208 0.33824L10.8116 0.334496C10.8061 0.331773 10.8007 0.328368 10.7949 0.325986C10.7908 0.324284 10.7864 0.323943 10.7827 0.322241C10.3323 0.109488 9.84689 -0.00012207 9.3373 -0.00012207H4.3868C1.96788 -0.00012207 0 1.96776 0 4.38633V16.6045C0 19.0214 1.96584 20.9872 4.38237 20.9872H11.2909C13.7098 20.9872 15.678 19.0193 15.678 16.6004ZM12.7502 4.37884H11.2987V2.92974L12.4711 4.10005L12.7502 4.37884ZM1.70202 16.6045V4.38633C1.70202 2.90625 2.90638 1.7019 4.3868 1.7019H9.3373C9.42512 1.7019 9.51125 1.71041 9.59669 1.72335V5.22986C9.59669 5.69995 9.97794 6.08087 10.4477 6.08087H13.9545C13.9671 6.16529 13.976 6.25039 13.976 6.33617V16.6004C13.976 18.0808 12.7716 19.2852 11.2909 19.2852H4.38237C2.90433 19.2852 1.70202 18.0829 1.70202 16.6045Z" fill="#FFF8EA"/>
<path d="M19.0835 7.53784C18.6134 7.53784 18.2324 7.91875 18.2324 8.38885V17.5978C18.2324 20.7408 15.675 23.2982 12.5317 23.2982H5.86725C5.39715 23.2982 5.01624 23.6791 5.01624 24.1492C5.01624 24.6193 5.39715 25.0003 5.86725 25.0003H12.5317C16.6138 25.0003 19.9345 21.6796 19.9345 17.5978V8.38885C19.9345 7.91875 19.5536 7.53784 19.0835 7.53784Z" fill="#FFF8EA"/>
</g>
</svg>
