<svg width="66" height="64" viewBox="0 0 66 64" fill="none" xmlns="http://www.w3.org/2000/svg">
<path d="M32.6401 21.1599C26.8101 21.1599 22.0601 16.41 22.0601 10.58C22.0601 4.74996 26.8101 0 32.6401 0C38.4701 0 43.22 4.74996 43.22 10.58C43.22 16.41 38.4701 21.1599 32.6401 21.1599ZM32.6401 5C29.5601 5 27.0601 7.49996 27.0601 10.58C27.0601 13.66 29.5601 16.1599 32.6401 16.1599C35.7201 16.1599 38.22 13.66 38.22 10.58C38.22 7.49996 35.7201 5 32.6401 5Z" fill="currentColor"/>
<path d="M46.82 42.25C40.99 42.25 36.24 37.4999 36.24 31.6699C36.24 25.8399 40.99 21.09 46.82 21.09C52.65 21.09 57.4 25.8399 57.4 31.6699C57.4 37.4999 52.65 42.25 46.82 42.25ZM46.82 26.09C43.74 26.09 41.24 28.5899 41.24 31.6699C41.24 34.7499 43.74 37.25 46.82 37.25C49.9 37.25 52.4 34.7499 52.4 31.6699C52.4 28.5899 49.9 26.09 46.82 26.09Z" fill="currentColor"/>
<path d="M62.76 13.09H40.72C39.34 13.09 38.22 11.97 38.22 10.59C38.22 9.20997 39.34 8.08997 40.72 8.08997H62.76C64.14 8.08997 65.26 9.20997 65.26 10.59C65.26 11.97 64.14 13.09 62.76 13.09Z" fill="currentColor"/>
<path d="M24.56 13.09H2.5C1.12 13.09 0 11.97 0 10.59C0 9.20997 1.12 8.08997 2.5 8.08997H24.56C25.94 8.08997 27.06 9.20997 27.06 10.59C27.06 11.97 25.94 13.09 24.56 13.09Z" fill="currentColor"/>
<path d="M62.7599 34.1799H54.8999C53.5199 34.1799 52.3999 33.0599 52.3999 31.6799C52.3999 30.2999 53.5199 29.1799 54.8999 29.1799H62.7599C64.1399 29.1799 65.2599 30.2999 65.2599 31.6799C65.2599 33.0599 64.1399 34.1799 62.7599 34.1799Z" fill="currentColor"/>
<path d="M38.74 34.1799H2.5C1.12 34.1799 0 33.0599 0 31.6799C0 30.2999 1.12 29.1799 2.5 29.1799H38.74C40.12 29.1799 41.24 30.2999 41.24 31.6799C41.24 33.0599 40.12 34.1799 38.74 34.1799Z" fill="currentColor"/>
<path d="M18.4599 63.34C12.6299 63.34 7.87988 58.59 7.87988 52.76C7.87988 46.93 12.6299 42.1799 18.4599 42.1799C24.2899 42.1799 29.0399 46.93 29.0399 52.76C29.0399 58.59 24.2899 63.34 18.4599 63.34ZM18.4599 47.1799C15.3799 47.1799 12.8799 49.68 12.8799 52.76C12.8799 55.84 15.3799 58.34 18.4599 58.34C21.5399 58.34 24.0399 55.84 24.0399 52.76C24.0399 49.68 21.5399 47.1799 18.4599 47.1799Z" fill="currentColor"/>
<path d="M10.38 55.25H2.5C1.12 55.25 0 54.13 0 52.75C0 51.37 1.12 50.25 2.5 50.25H10.38C11.76 50.25 12.88 51.37 12.88 52.75C12.88 54.13 11.76 55.25 10.38 55.25Z" fill="currentColor"/>
<path d="M62.7601 55.25H26.54C25.16 55.25 24.04 54.13 24.04 52.75C24.04 51.37 25.16 50.25 26.54 50.25H62.7601C64.1401 50.25 65.2601 51.37 65.2601 52.75C65.2601 54.13 64.1401 55.25 62.7601 55.25Z" fill="currentColor"/>
</svg>
