<?xml version="1.0" encoding="UTF-8"?>
<svg id="Layer_2" data-name="Layer 2" xmlns="http://www.w3.org/2000/svg" viewBox="0 0 75.52 61.66">
  <defs>
    <style>
      .cls-1 {
        fill: #d1d1d1;
      }
    </style>
  </defs>
  <g id="Layer_1-2" data-name="Layer 1">
    <g>
      <path class="cls-1" d="M73.02,24.73c-3.33-3.34-8.76-3.33-12.1,0l-23.73,23.73c-.44.44-.71,1.04-.73,1.67l-.37,8.93c-.03.7.24,1.38.73,1.87.47.47,1.11.73,1.77.73.03,0,.07,0,.1,0l8.93-.37c.63-.03,1.22-.29,1.67-.73l23.73-23.73c3.33-3.33,3.33-8.76,0-12.1ZM69.49,33.29l-23.04,23.04-5.24.22.21-5.24,23.04-23.04c1.39-1.38,3.64-1.38,5.03,0,1.39,1.39,1.39,3.64,0,5.03Z"/>
      <path class="cls-1" d="M23,56.66h-13.07c-2.72,0-4.93-2.21-4.93-4.93V9.93c0-2.72,2.21-4.93,4.93-4.93h49.73c2.72,0,4.93,2.21,4.93,4.93v5.27c0,1.38,1.12,2.5,2.5,2.5s2.5-1.12,2.5-2.5v-5.27c0-5.48-4.46-9.93-9.93-9.93H9.93C4.46,0,0,4.46,0,9.93v41.79c0,5.48,4.46,9.93,9.93,9.93h13.07c1.38,0,2.5-1.12,2.5-2.5s-1.12-2.5-2.5-2.5Z"/>
      <path class="cls-1" d="M41.01,12.7c-1.38,0-2.5,1.12-2.5,2.5s1.12,2.5,2.5,2.5h14.8c1.38,0,2.5-1.12,2.5-2.5s-1.12-2.5-2.5-2.5h-14.8Z"/>
      <path class="cls-1" d="M24.48,26.49c-4.76-1.63-6.24-2.85-6.24-5.04s1.32-3.66,4.27-3.66c2.48,0,3.77.97,4.35,2.31.43,1.01,1.37,1.72,2.47,1.72,1.97,0,3.36-2.14,2.36-3.84-1.11-1.88-3.21-3.17-6.64-3.58v-1.04c0-1.21-.98-2.2-2.2-2.2s-2.2.98-2.2,2.2v1c-4.93.57-8.09,3.36-8.09,7.43,0,4.52,2.73,6.57,9.28,8.8,4.38,1.54,5.77,2.86,5.77,5.37,0,2.67-1.77,4.01-4.77,4.01s-4.32-1.17-4.92-2.85c-.37-1.03-1.36-1.71-2.46-1.71h-.15c-1.98,0-3.3,2.11-2.36,3.86,1.21,2.26,3.62,3.78,7.71,4.15v1.09c0,1.21.98,2.2,2.2,2.2s2.2-.98,2.2-2.2v-1.13c5.65-.64,8.31-3.64,8.31-7.92s-2.42-6.77-8.88-8.96Z"/>
    </g>
  </g>
</svg>