<svg width="25" height="26" viewBox="0 0 25 26" fill="none" xmlns="http://www.w3.org/2000/svg">
<path d="M23.0086 25.9965H17.8851C16.7885 25.9965 15.8968 25.0086 15.8968 23.7938V15.3179C15.8968 15.0666 15.7109 14.8606 15.484 14.8606H9.51286C9.28599 14.8606 9.10008 15.0666 9.10008 15.3179V23.7938C9.10008 25.0086 8.20835 25.9965 7.1118 25.9965H1.98828C0.891731 25.9965 0 25.0086 0 23.7938V12.3367C0 11.1847 0.453751 10.0956 1.2478 9.35204L10.2124 0.932062C11.5358 -0.310687 13.4579 -0.310687 14.7813 0.932062L23.7522 9.35553C24.5463 10.0991 25 11.1882 25 12.3437V23.7973C25 25.0121 24.1083 26 23.0117 26L23.0086 25.9965ZM9.50971 13.1152H15.4809C16.5774 13.1152 17.4691 14.1031 17.4691 15.3179V23.7938C17.4691 24.0451 17.655 24.2511 17.8819 24.2511H23.0054C23.2323 24.2511 23.4182 24.0451 23.4182 23.7938V12.3402C23.4182 11.7014 23.1661 11.0975 22.725 10.6856L13.7541 2.26208C13.0199 1.57438 11.9549 1.57438 11.2207 2.26208L2.25611 10.6821C1.81812 11.094 1.56604 11.6979 1.56604 12.3367V23.7938C1.56604 24.0451 1.75194 24.2511 1.97882 24.2511H7.10234C7.32921 24.2511 7.51512 24.0451 7.51512 23.7938V15.3179C7.51512 14.1031 8.40685 13.1152 9.5034 13.1152H9.50971Z" fill="#FFF8EA"/>
</svg>
