<svg width="71" height="76" viewBox="0 0 71 76" fill="none" xmlns="http://www.w3.org/2000/svg">
<path d="M29.9704 56.4924C29.3304 56.4924 28.6903 56.2525 28.2003 55.7625L17.7204 45.2825C16.7404 44.3025 16.7404 42.7224 17.7204 41.7424C18.7004 40.7624 20.2803 40.7624 21.2603 41.7424L29.9704 50.4525L49.1603 31.2625C50.1403 30.2825 51.7203 30.2825 52.7003 31.2625C53.6803 32.2425 53.6803 33.8225 52.7003 34.8025L31.7404 55.7625C31.2504 56.2525 30.6104 56.4924 29.9704 56.4924Z" fill="#FFF8EA"/>
<path d="M57.5901 75.1625H12.8201C5.75007 75.1625 0 69.4124 0 62.3424V31.4025C0 28.4125 1.31009 25.5825 3.59009 23.6525L28.6201 2.4225C32.4301 -0.8075 37.96 -0.8075 41.77 2.4225L66.8201 23.6525C69.1001 25.5925 70.41 28.4125 70.41 31.4125V62.3524C70.41 69.4224 64.6601 75.1725 57.5901 75.1725V75.1625ZM35.2001 5.00246C34.0101 5.00246 32.8301 5.41244 31.8601 6.23244L6.83008 27.4624C5.67008 28.4424 5.01001 29.8825 5.01001 31.4025V62.3424C5.01001 66.6524 8.52008 70.1625 12.8301 70.1625H57.6001C61.9101 70.1625 65.42 66.6524 65.42 62.3424V31.4025C65.42 29.8825 64.7501 28.4424 63.5901 27.4624L38.54 6.23244C37.57 5.41244 36.3901 5.00246 35.2001 5.00246Z" fill="#FFF8EA"/>
</svg>
