<svg width="65" height="58" viewBox="0 0 65 58" fill="none" xmlns="http://www.w3.org/2000/svg">
<path d="M26.7677 48.5283H8.01408C5.82108 48.5283 4.03952 46.7574 4.03952 44.5778V20.3136H57.8245C58.9371 20.3136 59.8401 19.4161 59.8401 18.3103V14.0873C59.8401 9.69601 56.2441 6.13012 51.8339 6.13012H41.4495V2.00332C41.4495 0.897485 40.5465 0 39.4338 0C38.3212 0 37.4182 0.897485 37.4182 2.00332V6.13012H22.4219V2.00332C22.4219 0.897485 21.5189 0 20.4062 0C19.2936 0 18.3906 0.897485 18.3906 2.00332V6.13012H8.00621C3.58796 6.13012 0 9.70403 0 14.0873V44.5778C0 48.9691 3.59602 52.5349 8.00621 52.5349H26.7594C27.872 52.5349 28.775 51.6375 28.775 50.5316C28.775 49.4258 27.872 48.5283 26.7594 48.5283H26.7677ZM4.03125 14.0873C4.03125 11.9077 5.81321 10.1367 8.00621 10.1367H51.826C54.019 10.1367 55.8006 11.9077 55.8006 14.0873V16.307H4.03125V14.0873Z" fill="#FFF8EA"/>
<path d="M48.0286 24.2641C38.668 24.2641 31.0568 31.8286 31.0568 41.132C31.0568 50.4354 38.668 58 48.0286 58C57.3891 58 65 50.4354 65 41.132C65 31.8286 57.3891 24.2641 48.0286 24.2641ZM48.0286 53.9853C40.8933 53.9853 35.088 48.2158 35.088 41.1241C35.088 34.0323 40.8933 28.2627 48.0286 28.2627C55.1639 28.2627 60.9687 34.0323 60.9687 41.1241C60.9687 48.2158 55.1639 53.9853 48.0286 53.9853Z" fill="#FFF8EA"/>
<path d="M51.3261 36.5805L46.4563 41.4206L44.7391 39.7137C43.949 38.9284 42.6751 38.9284 41.885 39.7137C41.0948 40.499 41.0948 41.7651 41.885 42.5504L45.0293 45.6756C45.4082 46.0522 45.9161 46.2606 46.4563 46.2606C46.9965 46.2606 47.5045 46.0522 47.8834 45.6756L54.1803 39.4252C54.9704 38.6399 54.9704 37.3738 54.1803 36.5885C53.3901 35.8032 52.1162 35.8032 51.3261 36.5885V36.5805Z" fill="#FFF8EA"/>
</svg>
