<?xml version="1.0" encoding="UTF-8"?>
<svg id="Layer_2" data-name="Layer 2" xmlns="http://www.w3.org/2000/svg" viewBox="0 0 71.12 73.93">
  <g id="Layer_1-2" data-name="Layer 1">
    <g>
      <path fill="currentColor" d="M69.2,41.86c-2.94-3.75-8.3-4.54-12.2-1.8l-9.96,7c-1.45-2.18-3.93-3.62-6.74-3.62H14.25c-7.99,0-14.25,4.73-14.25,10.76v8.96c0,6.03,6.26,10.76,14.25,10.76h20.05c3.65,0,7.11-1.02,9.75-2.87,3.36-2.36,15.88-11.15,23.27-16.34,2.03-1.42,3.35-3.56,3.71-6.01.36-2.42-.31-4.92-1.82-6.85ZM66.07,47.98c-.16,1.08-.74,2.02-1.63,2.65-7.39,5.19-19.91,13.98-23.27,16.34-1.78,1.25-4.28,1.96-6.87,1.96H14.25c-5.01,0-9.25-2.64-9.25-5.76v-8.96c0-3.12,4.24-5.76,9.25-5.76h26.04c1.71,0,3.1,1.39,3.1,3.1s-1.39,3.1-3.1,3.1h-17.39c-1.38,0-2.5,1.12-2.5,2.5s1.12,2.5,2.5,2.5h17.39c4.23,0,7.71-3.26,8.07-7.4l11.51-8.09c1.72-1.21,4.09-.86,5.39.79.68.87.97,1.94.81,3.03Z"/>
      <path fill="currentColor" d="M18.94,34.1h20.32c3.21,0,5.83-2.61,5.83-5.83v-14.05c0-1.36-.6-2.65-1.63-3.53L32.09,1.06c-1.67-1.42-4.32-1.41-5.98,0l-11.37,9.63c-1.04.88-1.63,2.17-1.63,3.53v14.04c0,3.21,2.62,5.83,5.83,5.83ZM19.11,14.86l9.99-8.47,9.98,8.47v13.24h-19.98v-13.24Z"/>
    </g>
  </g>
</svg>