<svg width="25" height="26" viewBox="0 0 25 26" fill="none" xmlns="http://www.w3.org/2000/svg">
<mask id="mask0_14_1165" style="mask-type:alpha" maskUnits="userSpaceOnUse" x="0" y="0" width="25" height="26">
<path d="M0 0H24.5684V25.7742H0V0Z" fill="black"/>
</mask>
<g mask="url(#mask0_14_1165)">
<path d="M17.683 25.7742H3.76278C1.68794 25.7742 0 24.0895 0 22.0185V3.76349C0 1.6883 1.68794 0 3.76278 0H10.6318C11.4798 0 12.2867 0.184036 13.0296 0.546422C13.5931 0.797251 14.1359 1.17349 14.6141 1.65206L19.7941 6.82388C20.2613 7.29143 20.6383 7.83288 20.9161 8.43437C21.1218 8.87989 20.9271 9.40784 20.4812 9.61319C20.035 9.81855 19.5081 9.6235 19.3028 9.17833C19.1162 8.77366 18.8523 8.39422 18.5386 8.08051L13.3586 2.90869C13.0342 2.58396 12.6707 2.33064 12.2782 2.15584C11.7523 1.89969 11.2073 1.7764 10.6318 1.7764H3.76278C2.66745 1.7764 1.7764 2.6678 1.7764 3.76349V22.0185C1.7764 23.11 2.66745 23.9978 3.76278 23.9978H17.683C18.1737 23.9978 18.5712 24.3954 18.5712 24.886C18.5712 25.3767 18.1737 25.7742 17.683 25.7742Z" fill="#FFF8EA"/>
<path d="M20.1096 9.69455H12.6402C12.1495 9.69455 11.752 9.29699 11.752 8.80635V1.34474C11.752 1.04346 11.9044 0.763143 12.157 0.599359C12.4092 0.435574 12.7276 0.410704 13.0022 0.533632C13.5937 0.797605 14.1362 1.17385 14.6145 1.65206L19.7941 6.82424C20.2602 7.29037 20.6375 7.83181 20.9157 8.4333C21.0429 8.70865 21.0212 9.02947 20.8582 9.28491C20.6951 9.54 20.4126 9.69455 20.1096 9.69455ZM13.5284 7.91815H18.3755L13.5284 3.0778V7.91815Z" fill="#FFF8EA"/>
<path d="M18.2099 19.9054C18.5997 19.9054 18.9521 20.1463 19.0835 20.5129C19.2985 21.1123 19.8115 21.5265 20.8322 21.5265C21.8992 21.5265 22.5266 21.0487 22.5266 20.1004C22.5266 19.2094 22.0345 18.7397 20.4773 18.1936C18.1488 17.4003 17.1807 16.6748 17.1807 15.0675C17.1807 13.44 18.5993 12.3866 20.7388 12.3866C22.4932 12.3866 23.4912 12.9007 23.9722 13.7153C24.3282 14.3182 23.8344 15.0803 23.1341 15.0803C22.7419 15.0803 22.4108 14.8284 22.2566 14.4678C22.053 13.991 21.594 13.6478 20.7125 13.6478C19.6616 13.6478 19.1937 14.1655 19.1937 14.9492C19.1937 15.7255 19.7227 16.1607 21.4121 16.7395C23.7075 17.5158 24.5684 18.4043 24.5684 19.9214C24.5684 21.6473 23.3526 22.7874 20.7551 22.7828C18.8711 22.7796 17.8095 22.1998 17.315 21.2757C16.9835 20.6568 17.4532 19.9054 18.1552 19.9054H18.2099ZM20.0535 12.647V12.0707C20.0535 11.6398 20.4031 11.2902 20.834 11.2902C21.265 11.2902 21.6146 11.6398 21.6146 12.0707V12.647H20.0535ZM20.0535 23.1395V22.4748H21.6146V23.1395C21.6146 23.5704 21.265 23.9201 20.834 23.9201C20.4031 23.9201 20.0535 23.5704 20.0535 23.1395Z" fill="#FFF8EA"/>
<path d="M8.04499 7.43143H4.78493C4.29429 7.43143 3.89673 7.03423 3.89673 6.54323C3.89673 6.05259 4.29429 5.65503 4.78493 5.65503H8.04499C8.53563 5.65503 8.93319 6.05259 8.93319 6.54323C8.93319 7.03423 8.53563 7.43143 8.04499 7.43143Z" fill="#FFF8EA"/>
<path d="M8.04499 11.7616H4.78493C4.29429 11.7616 3.89673 11.3641 3.89673 10.8734C3.89673 10.3828 4.29429 9.98523 4.78493 9.98523H8.04499C8.53563 9.98523 8.93319 10.3828 8.93319 10.8734C8.93319 11.3641 8.53563 11.7616 8.04499 11.7616Z" fill="#FFF8EA"/>
<path d="M12.9102 21.3467H7.29073C5.41911 21.3467 3.89673 19.8243 3.89673 17.9527C3.89673 16.0815 5.41911 14.5591 7.29073 14.5591H12.9102C13.4009 14.5591 13.7984 14.9566 13.7984 15.4473C13.7984 15.9376 13.4009 16.3355 12.9102 16.3355H7.29073C6.39862 16.3355 5.67313 17.061 5.67313 17.9527C5.67313 18.8448 6.39862 19.5703 7.29073 19.5703H12.9102C13.4009 19.5703 13.7984 19.9679 13.7984 20.4585C13.7984 20.9492 13.4009 21.3467 12.9102 21.3467Z" fill="#FFF8EA"/>
</g>
</svg>
