<svg width="17" height="25" viewBox="0 0 17 25" fill="none" xmlns="http://www.w3.org/2000/svg">
<path d="M8.50003 21.9624C8.27527 21.9624 8.05391 21.8666 7.89726 21.7033C7.73721 21.5365 7.64526 21.3094 7.64526 21.0752C7.64526 20.841 7.73721 20.6139 7.89726 20.4471C8.09478 20.2413 8.38765 20.149 8.66349 20.2058C8.71798 20.2165 8.77245 20.2342 8.82353 20.2555C8.87462 20.2768 8.92572 20.3052 8.96999 20.3371C9.01766 20.369 9.06194 20.4081 9.0994 20.4471C9.25945 20.6139 9.3514 20.841 9.3514 21.0752C9.3514 21.3094 9.25945 21.5365 9.0994 21.7033C9.06194 21.7424 9.01766 21.7814 8.96999 21.8133C8.92572 21.8453 8.87462 21.8701 8.82353 21.895C8.77245 21.9162 8.71798 21.934 8.66349 21.9446C8.609 21.9553 8.55452 21.9624 8.50003 21.9624Z" fill="#FFF8EA"/>
<path d="M14.2654 25H2.73117C1.22597 25 0 23.7225 0 22.154V2.846C0 1.27751 1.22597 0 2.73117 0H14.2654C15.7706 0 16.9966 1.27751 16.9966 2.846V22.154C16.9966 23.7225 15.7706 25 14.2654 25ZM2.73458 1.77076C2.16587 1.77076 1.70613 2.25337 1.70613 2.84244V22.1505C1.70613 22.7431 2.16928 23.2221 2.73458 23.2221H14.2688C14.8375 23.2221 15.2973 22.7395 15.2973 22.1505V2.84244C15.2973 2.24983 14.8341 1.77076 14.2688 1.77076H2.73458Z" fill="#FFF8EA"/>
<path d="M16.1486 19.0241H0.851361C0.38141 19.0241 0 18.6267 0 18.137C0 17.6473 0.38141 17.2498 0.851361 17.2498H16.1486C16.6186 17.2498 17 17.6473 17 18.137C17 18.6267 16.6186 19.0241 16.1486 19.0241Z" fill="#FFF8EA"/>
</svg>
