<svg width="24" height="25" viewBox="0 0 24 25" fill="none" xmlns="http://www.w3.org/2000/svg">
<mask id="mask0_14_1148" style="mask-type:alpha" maskUnits="userSpaceOnUse" x="0" y="0" width="24" height="25">
<path d="M0 0H23.5675V25H0V0Z" fill="black"/>
</mask>
<g mask="url(#mask0_14_1148)">
<path d="M20.6093 6.85332H19.5794V3.91516C19.5794 1.75621 17.8231 -0.00012207 15.6642 -0.00012207H7.90333C5.74438 -0.00012207 3.98804 1.75621 3.98804 3.91516V6.85332H2.95814C1.32696 6.85332 0 8.18028 0 9.81146V22.0421C0 23.6733 1.32696 25.0003 2.95814 25.0003H20.6093C22.2405 25.0003 23.5675 23.6733 23.5675 22.0421V9.81146C23.5675 8.18028 22.2405 6.85332 20.6093 6.85332ZM5.87293 3.91516C5.87293 2.79554 6.78371 1.88476 7.90333 1.88476H15.6642C16.7838 1.88476 17.6946 2.79554 17.6946 3.91516V6.85332H5.87293V3.91516ZM21.6826 22.0421C21.6826 22.6336 21.2012 23.1154 20.6093 23.1154H2.95814C2.36629 23.1154 1.88489 22.6336 1.88489 22.0421V9.81146C1.88489 9.21961 2.36629 8.73821 2.95814 8.73821H4.93049H18.637H20.6093C21.2012 8.73821 21.6826 9.21961 21.6826 9.81146V22.0421Z" fill="#FFF8EA"/>
<path d="M11.7835 13.0477C11.2629 13.0477 10.8411 13.4696 10.8411 13.9902V17.8621C10.8411 18.3827 11.2629 18.8045 11.7835 18.8045C12.3041 18.8045 12.726 18.3827 12.726 17.8621V13.9902C12.726 13.4696 12.3041 13.0477 11.7835 13.0477Z" fill="#FFF8EA"/>
</g>
</svg>
