<svg width="25" height="17" viewBox="0 0 25 17" fill="none" xmlns="http://www.w3.org/2000/svg">
<path d="M22.8409 0H2.15905C0.969563 0 0 0.944817 0 2.10406V15.0065C0 16.1054 0.917969 17 2.04558 17H22.9544C24.082 17 25 16.1054 25 15.0065V2.10406C25 0.944817 24.0304 0 22.8409 0ZM2.15905 1.67521H22.8409C23.085 1.67521 23.2811 1.86618 23.2811 2.10406V5.00217H1.71892V2.10406C1.71892 1.86618 1.91497 1.67521 2.15905 1.67521ZM22.9544 15.3248H2.04558C1.86681 15.3248 1.71892 15.1807 1.71892 15.0065V6.67737H23.2811V15.0065C23.2811 15.1807 23.1366 15.3248 22.9544 15.3248Z" fill="#FFF8EA"/>
<path d="M16.2679 13.3011C14.7512 13.3011 13.5176 12.099 13.5176 10.6208C13.5176 9.14255 14.7512 7.94043 16.2679 7.94043C17.7847 7.94043 19.0181 9.14255 19.0181 10.6208C19.0181 12.099 17.7847 13.3011 16.2679 13.3011ZM16.2679 8.51273C15.0757 8.51273 14.1078 9.4589 14.1078 10.6179C14.1078 11.7769 15.0787 12.723 16.2679 12.723C17.4571 12.723 18.4279 11.7769 18.4279 10.6179C18.4279 9.4589 17.4571 8.51273 16.2679 8.51273Z" fill="#FFF8EA"/>
<path d="M19.7058 13.3011C18.189 13.3011 16.9556 12.099 16.9556 10.6208C16.9556 9.14255 18.189 7.94043 19.7058 7.94043C21.2225 7.94043 22.4561 9.14255 22.4561 10.6208C22.4561 12.099 21.2225 13.3011 19.7058 13.3011ZM19.7058 8.51273C18.5136 8.51273 17.5457 9.4589 17.5457 10.6179C17.5457 11.7769 18.5165 12.723 19.7058 12.723C20.895 12.723 21.8659 11.7769 21.8659 10.6179C21.8659 9.4589 20.895 8.51273 19.7058 8.51273Z" fill="#FFF8EA"/>
</svg>
