<svg width="75" height="75" viewBox="0 0 75 75" fill="none" xmlns="http://www.w3.org/2000/svg">
<g clip-path="url(#clip0_98_2777)">
<path d="M37.5 0C16.8215 0 0 16.8215 0 37.5C0 58.1785 16.8215 75 37.5 75C58.1785 75 75 58.1785 75 37.5C75 16.8215 58.1785 0 37.5 0ZM37.5 69.7596C19.7142 69.7596 5.24036 55.2858 5.24036 37.5C5.24036 19.7142 19.7142 5.24036 37.5 5.24036C55.2858 5.24036 69.7596 19.7142 69.7596 37.5C69.7596 55.2858 55.2858 69.7596 37.5 69.7596Z" fill="#FFF8EA"/>
<path d="M39.1772 34.796C33.9054 32.9933 32.2599 31.6308 32.2599 29.2098C32.2599 26.7887 33.7167 25.1537 36.9972 25.1537C39.7431 25.1537 41.179 26.2227 41.8183 27.711C42.3004 28.8324 43.3275 29.6185 44.5538 29.6185C46.7337 29.6185 48.2744 27.2394 47.1635 25.3633C45.9372 23.2881 43.6 21.8523 39.806 21.3911V20.2383C39.806 18.8967 38.716 17.8067 37.3745 17.8067C36.0329 17.8067 34.9429 18.8967 34.9429 20.2383V21.3597C29.4825 21.999 25.9819 25.0803 25.9819 29.5871C25.9819 34.5968 29.0004 36.8607 36.2635 39.3341C41.1161 41.032 42.6568 42.4993 42.6568 45.2767C42.6568 48.2323 40.6969 49.7205 37.3745 49.7205C34.0521 49.7205 32.5953 48.4314 31.9245 46.5553C31.5157 45.4129 30.4153 44.6583 29.1995 44.6583H29.0318C26.8414 44.6583 25.3741 47.006 26.4116 48.9345C27.7532 51.4393 30.4258 53.1268 34.9534 53.5355V54.7513C34.9534 56.0928 36.0434 57.1828 37.3849 57.1828C38.7265 57.1828 39.8165 56.0928 39.8165 54.7513V53.4936C46.0735 52.7809 49.029 49.469 49.029 44.7212C49.029 39.9734 46.346 37.217 39.1876 34.796H39.1772Z" fill="#FFF8EA"/>
</g>
<defs>
<clipPath id="clip0_98_2777">
<rect width="75" height="75" fill="white"/>
</clipPath>
</defs>
</svg>
