<svg width="71" height="76" viewBox="0 0 71 76" fill="none" xmlns="http://www.w3.org/2000/svg">
<path d="M28.6211 2.4185C32.431 -0.811083 37.9607 -0.801246 41.7705 2.4185L66.8311 23.649C69.1108 25.5889 70.4101 28.4189 70.4102 31.4087V62.3492C70.4099 69.419 64.6702 75.1792 57.6104 75.1792H50.0508C48.6709 75.1792 47.551 74.0591 47.5508 72.6792C47.5508 71.2992 48.6708 70.1792 50.0508 70.1792H57.5908C61.8906 70.1791 65.3904 66.6689 65.3906 62.3492V31.4087C65.3906 29.8788 64.7303 28.4385 63.5703 27.4585L38.5205 6.22905C36.5805 4.58905 33.7808 4.58905 31.8408 6.22905L6.81055 27.4585C5.66056 28.4385 5.001 29.8788 5.00098 31.4087V62.3492C5.0012 66.669 8.51119 70.1792 12.8311 70.1792H20.3506C21.7306 70.1792 22.8506 71.2992 22.8506 72.6792C22.8504 74.0591 21.7304 75.1792 20.3506 75.1792H12.8311C5.76119 75.1792 0.0012029 69.429 0.000976562 62.3492V31.4087C0.000997076 28.4088 1.30107 25.589 3.58105 23.649L28.6211 2.4185ZM35.1904 26.689C44.9902 26.6891 52.9706 34.6685 52.9707 44.4683C52.9707 58.3581 40.7805 72.3585 35.1904 72.3589C29.6004 72.3589 17.4102 58.3583 17.4102 44.4683C17.4103 34.6684 25.3905 26.689 35.1904 26.689ZM35.1904 31.689C28.1405 31.689 22.4103 37.4184 22.4102 44.4683C22.4102 55.8483 32.5604 66.7692 35.1904 67.3492C37.8206 66.7688 47.9707 55.8481 47.9707 44.4683C47.9706 37.4185 42.2402 31.6891 35.1904 31.689ZM35.1904 38.1792C38.6642 38.1792 41.4803 40.9946 41.4805 44.4683C41.4805 47.9422 38.6643 50.7583 35.1904 50.7583C31.7166 50.7583 28.9004 47.9422 28.9004 44.4683C28.9005 40.9946 31.7166 38.1792 35.1904 38.1792Z" fill="#FFF8EA"/>
</svg>
