<svg width="75" height="70" viewBox="0 0 75 70" fill="none" xmlns="http://www.w3.org/2000/svg">
<path d="M66.43 69.38H7.60001C3.41001 69.38 0 65.97 0 61.78V7.59998C0 3.40998 3.41001 0 7.60001 0H66.43C70.62 0 74.03 3.40998 74.03 7.59998V61.78C74.03 65.97 70.62 69.38 66.43 69.38ZM7.61002 5.01001C6.18002 5.01001 5.00998 6.17999 5.00998 7.60999V61.79C5.00998 63.22 6.18002 64.39 7.61002 64.39H66.44C67.87 64.39 69.04 63.22 69.04 61.79V7.60999C69.04 6.17999 67.87 5.01001 66.44 5.01001H7.61002Z" fill="#FFF8EA"/>
<path d="M71.5298 22.28H2.50974C1.12974 22.28 0.00976562 21.16 0.00976562 19.78C0.00976562 18.4 1.12974 17.28 2.50974 17.28H71.5298C72.9098 17.28 74.0298 18.4 74.0298 19.78C74.0298 21.16 72.9098 22.28 71.5298 22.28Z" fill="#FFF8EA"/>
<path d="M54.2898 37.2H19.7598C18.3798 37.2 17.2598 36.08 17.2598 34.7C17.2598 33.32 18.3798 32.2 19.7598 32.2H54.2898C55.6698 32.2 56.7898 33.32 56.7898 34.7C56.7898 36.08 55.6698 37.2 54.2898 37.2Z" fill="#FFF8EA"/>
<path d="M38.13 52.1201H19.75C18.37 52.1201 17.25 51.0001 17.25 49.6201C17.25 48.2401 18.37 47.1201 19.75 47.1201H38.13C39.51 47.1201 40.63 48.2401 40.63 49.6201C40.63 51.0001 39.51 52.1201 38.13 52.1201Z" fill="#FFF8EA"/>
</svg>
