<svg width="25" height="25" viewBox="0 0 25 25" fill="none" xmlns="http://www.w3.org/2000/svg">
<mask id="mask0_14_1174" style="mask-type:alpha" maskUnits="userSpaceOnUse" x="0" y="0" width="25" height="25">
<path d="M0 0H25V24.7343H0V0Z" fill="black"/>
</mask>
<g mask="url(#mask0_14_1174)">
<path d="M20.7309 10.8363C20.235 10.8363 19.8333 11.2381 19.8333 11.7339V19.6966C19.8333 21.4843 18.3787 22.9392 16.5907 22.9392H5.03784C3.24977 22.9392 1.79525 21.4843 1.79525 19.6966V8.14343C1.79525 6.35572 3.24977 4.90085 5.03784 4.90085H13.0002C13.496 4.90085 13.8978 4.49907 13.8978 4.00322C13.8978 3.50737 13.496 3.10559 13.0002 3.10559H5.03784C2.25987 3.10559 0 5.36546 0 8.14343V19.6966C0 22.4746 2.25987 24.7345 5.03784 24.7345H16.5907C19.3686 24.7345 21.6285 22.4746 21.6285 19.6966V11.7339C21.6285 11.2381 21.2267 10.8363 20.7309 10.8363Z" fill="#FFF8EA"/>
<path d="M19.8153 0.00012207C16.9565 0.00012207 14.6306 2.32605 14.6306 5.18482C14.6306 8.04358 16.9565 10.3695 19.8153 10.3695C22.6741 10.3695 25 8.04358 25 5.18482C25 2.32605 22.6741 0.00012207 19.8153 0.00012207ZM19.8153 8.57426C17.9464 8.57426 16.4259 7.05368 16.4259 5.18482C16.4259 3.31596 17.9464 1.79538 19.8153 1.79538C21.6842 1.79538 23.2048 3.31596 23.2048 5.18482C23.2048 7.05368 21.6842 8.57426 19.8153 8.57426Z" fill="#FFF8EA"/>
</g>
</svg>
