<svg width="25" height="25" viewBox="0 0 25 25" fill="none" xmlns="http://www.w3.org/2000/svg">
<mask id="mask0_14_1120" style="mask-type:alpha" maskUnits="userSpaceOnUse" x="0" y="0" width="25" height="25">
<path d="M0 0H25V25H0V0Z" fill="black"/>
</mask>
<g mask="url(#mask0_14_1120)">
<path d="M12.4997 0.00012207C5.60715 0.00012207 0 5.60762 0 12.5001C0 19.3926 5.60715 25.0001 12.4997 25.0001C19.3925 25.0001 24.9997 19.3926 24.9997 12.5001C24.9997 5.60762 19.3925 0.00012207 12.4997 0.00012207ZM12.4997 23.2532C6.57038 23.2532 1.74688 18.4294 1.74688 12.5001C1.74688 6.57085 6.57038 1.74701 12.4997 1.74701C18.4293 1.74701 23.2528 6.57085 23.2528 12.5001C23.2528 18.4294 18.4293 23.2532 12.4997 23.2532Z" fill="#FFF8EA"/>
<path d="M12.4923 7.38342H8.06323V17.6163H10.4313V14.7951H12.4923C15.2262 14.7951 16.9364 13.377 16.9364 11.0966C16.9364 8.80154 15.2262 7.38342 12.4923 7.38342V7.38342ZM12.3609 12.8655H10.4313V9.31338H12.3609C13.8084 9.31338 14.5389 9.97126 14.5389 11.0966C14.5389 12.2076 13.8084 12.8655 12.3609 12.8655Z" fill="#FFF8EA"/>
</g>
</svg>
