<svg width="13" height="13" viewBox="0 0 13 13" fill="none" xmlns="http://www.w3.org/2000/svg">
<mask id="mask0_13_664" style="mask-type:alpha" maskUnits="userSpaceOnUse" x="0" y="0" width="13" height="13">
<path d="M0 0H12.3279V12.3297H0V0Z" fill="black"/>
</mask>
<g mask="url(#mask0_13_664)">
<path d="M11.97 1.8466L10.4812 0.357856C10.0038 -0.119537 9.22703 -0.119251 8.74993 0.358142L0 9.10921V12.3298L3.22005 12.3293L11.97 3.57819C12.4471 3.1008 12.4474 2.324 11.97 1.8466ZM0.974785 11.8247L0.50482 11.3548V9.43347L2.89579 11.8244L0.974785 11.8247ZM3.13177 11.7033L0.625954 9.19749L7.50973 2.31257L10.0155 4.81867L3.13177 11.7033ZM10.1941 4.64011L7.68829 2.13401L7.796 2.02602L10.3021 4.53212L10.1941 4.64011ZM10.4807 4.35356L7.97455 1.84746L8.08226 1.73975L10.5884 4.24586L10.4807 4.35356ZM10.7669 4.0673L8.26082 1.5612L8.36853 1.45349L10.8746 3.95959L10.7669 4.0673ZM11.6129 3.22107L11.0532 3.78103L8.54708 1.27493L9.10676 0.714973C9.38731 0.434708 9.84385 0.434422 10.1241 0.714973L11.6131 2.20372C11.8934 2.48399 11.8934 2.94052 11.6129 3.22107Z" fill="#FFF8EA"/>
</g>
</svg>
