<svg width="25" height="26" viewBox="0 0 25 26" fill="none" xmlns="http://www.w3.org/2000/svg">
<path d="M23.6021 18.9374L21.0527 17.0443C20.0467 16.2983 18.7017 16.2083 17.5478 16.8119C16.1487 17.5429 14.4648 17.2579 13.3541 16.1033L9.50669 12.1034C8.39969 10.9526 8.12563 9.19819 8.82518 7.74368C9.40572 6.54034 9.31918 5.14581 8.60161 4.09992L6.78423 1.45331C6.08108 0.429908 4.94164 -0.106167 3.73728 0.0175411C2.5293 0.141249 1.51243 0.905991 1.01481 2.05685C-0.961211 6.64155 0.00518268 12.1072 3.41996 15.661L9.93577 22.435C12.1714 24.7629 15.1932 26 18.251 26C19.87 26 21.4999 25.6551 23.0252 24.9391C24.1322 24.4218 24.8641 23.3609 24.9831 22.1051C25.1021 20.853 24.5865 19.6684 23.6021 18.9411V18.9374ZM23.191 21.9176C23.1369 22.4987 22.798 22.986 22.2859 23.2259C18.5538 24.9728 14.1042 24.1219 11.2087 21.1079L4.69284 14.3339C1.80092 11.3275 0.982379 6.70153 2.65551 2.82534C2.88629 2.29302 3.35505 1.94064 3.91396 1.88441C3.96805 1.88066 4.01851 1.87691 4.0726 1.87691C4.56661 1.87691 5.02458 2.12058 5.31666 2.54418L7.13399 5.19079C7.46213 5.67062 7.49461 6.32666 7.21336 6.90771C6.16404 9.08573 6.57149 11.7061 8.2302 13.4305L12.0777 17.4304C13.7364 19.1548 16.2569 19.5784 18.3519 18.4876C18.9109 18.1989 19.5419 18.2289 20.0034 18.57L22.5528 20.4631C23.0035 20.8005 23.2415 21.3441 23.1874 21.9176H23.191Z" fill="#FFF8EA"/>
<path d="M12.496 8.80454C14.7208 8.80454 16.531 10.6864 16.531 12.9994C16.531 13.5167 16.9348 13.9366 17.4324 13.9366C17.93 13.9366 18.3339 13.5167 18.3339 12.9994C18.3339 9.65176 15.716 6.93018 12.496 6.93018C11.9983 6.93018 11.5945 7.35003 11.5945 7.86736C11.5945 8.38468 11.9983 8.80454 12.496 8.80454Z" fill="#FFF8EA"/>
<path d="M12.496 3.96122C17.2918 3.96122 21.1933 8.01736 21.1933 13.0032C21.1933 13.5205 21.5972 13.9404 22.0948 13.9404C22.5924 13.9404 22.9963 13.5205 22.9963 13.0032C22.9963 6.98646 18.287 2.08685 12.496 2.08685C11.9983 2.08685 11.5945 2.50671 11.5945 3.02404C11.5945 3.54136 11.9983 3.96122 12.496 3.96122Z" fill="#FFF8EA"/>
</svg>
