<svg width="25" height="25" viewBox="0 0 25 25" fill="none" xmlns="http://www.w3.org/2000/svg">
<mask id="mask0_14_1153" style="mask-type:alpha" maskUnits="userSpaceOnUse" x="0" y="0" width="25" height="25">
<path d="M0 0.00012207H24.9999V25H0V0.00012207Z" fill="black"/>
</mask>
<g mask="url(#mask0_14_1153)">
<path d="M12.4999 0.00012207C5.60716 0.00012207 0 5.60728 0 12.5001C0 16.2556 1.66293 19.6269 4.29358 21.9222C6.49103 23.8402 9.35924 25 12.4999 25C15.6372 25 18.5089 23.8402 20.7028 21.9257C23.3335 19.6304 24.9999 16.2556 24.9999 12.5001C24.9999 5.60728 19.3927 0.00012207 12.4999 0.00012207ZM6.36526 21.3248C7.44477 18.9736 9.83786 17.3806 12.4999 17.3806C15.162 17.3806 17.5551 18.9736 18.6346 21.3248C16.8948 22.5406 14.7812 23.2532 12.4999 23.2532C10.2187 23.2532 8.10505 22.5406 6.36526 21.3248ZM20.0146 20.1824C18.5752 17.4539 15.6896 15.6338 12.4999 15.6338C9.31033 15.6338 6.42814 17.4539 4.98531 20.1789C2.98699 18.2295 1.74678 15.508 1.74678 12.5001C1.74678 6.5715 6.57138 1.7469 12.4999 1.7469C18.4285 1.7469 23.2531 6.5715 23.2531 12.5001C23.2531 15.508 22.0129 18.2295 20.0146 20.1824Z" fill="#FFF8EA"/>
<path d="M12.4999 3.80103C10.0265 3.80103 8.0177 5.81331 8.0177 8.28326C8.0177 10.7567 10.0265 12.7655 12.4999 12.7655C14.9699 12.7655 16.9822 10.7567 16.9822 8.28326C16.9822 5.81331 14.9699 3.80103 12.4999 3.80103V3.80103ZM12.4999 11.0187C10.9907 11.0187 9.76447 9.79247 9.76447 8.28326C9.76447 6.77404 10.9907 5.5478 12.4999 5.5478C14.0091 5.5478 15.2354 6.77404 15.2354 8.28326C15.2354 9.79247 14.0091 11.0187 12.4999 11.0187Z" fill="#FFF8EA"/>
</g>
</svg>
