<?xml version="1.0" encoding="UTF-8"?>
<svg id="Layer_2" data-name="Layer 2" xmlns="http://www.w3.org/2000/svg" viewBox="0 0 65 62.47">
  <g id="Layer_1-2" data-name="Layer 1">
    <g id="Group_9759" data-name="Group 9759">
      <g id="Group_9694" data-name="Group 9694">
        <g id="Group_9693" data-name="Group 9693">
          <path fill="currentColor" id="Path_8691" data-name="Path 8691" d="M63.02,30.11c2.59-2.53,2.65-6.68.12-9.28-1.01-1.03-2.33-1.71-3.75-1.91l-13.7-1.99c-.51-.07-.95-.4-1.18-.86l-6.12-12.41c-1.6-3.25-5.54-4.58-8.78-2.98-1.3.64-2.34,1.69-2.98,2.98l-6.12,12.41c-.23.46-.67.78-1.18.86l-13.7,1.99c-3.59.52-6.07,3.85-5.55,7.44.21,1.43.88,2.75,1.91,3.75l9.91,9.66c.37.36.54.88.45,1.39l-2.34,13.64c-.62,3.56,1.76,6.96,5.33,7.58,1.43.25,2.91.02,4.19-.66l12.25-6.44c.46-.24,1-.24,1.46,0l12.25,6.44c3.21,1.68,7.17.45,8.86-2.76.67-1.28.9-2.74.66-4.16l-2.34-13.64c-.09-.51.08-1.03.45-1.39l9.92-9.66ZM49.62,36.19c-1.55,1.51-2.25,3.68-1.88,5.81l2.34,13.64c.15.85-.43,1.66-1.28,1.81-.34.06-.69,0-.99-.16l-12.25-6.44c-1.91-1-4.19-1-6.11,0l-12.25,6.44c-.77.4-1.71.11-2.11-.66-.16-.3-.22-.65-.16-.99l2.34-13.64c.37-2.13-.34-4.3-1.89-5.81l-9.91-9.66c-.62-.6-.63-1.6-.03-2.22.24-.25.56-.41.9-.46l13.7-1.99c2.14-.31,3.99-1.65,4.94-3.59l6.12-12.41c.38-.78,1.32-1.1,2.09-.71.31.15.56.4.71.71l6.12,12.41c.96,1.94,2.8,3.28,4.94,3.59l13.7,1.99c.86.12,1.45.92,1.33,1.78-.05.34-.21.66-.46.9l-9.92,9.66Z"/>
        </g>
      </g>
    </g>
  </g>
</svg>