<svg width="65" height="58" viewBox="0 0 65 58" fill="none" xmlns="http://www.w3.org/2000/svg">
<path d="M55.2931 58H9.71564C4.36353 58 0 53.8891 0 48.828V19.437C0 16.5282 2.51111 14.1574 5.59236 14.1574H59.4074C62.4887 14.1574 65 16.5282 65 19.437V48.828C65 53.8806 60.6452 58 55.2841 58H55.2931ZM5.60127 18.3609C4.96899 18.3609 4.46136 18.8401 4.46136 19.437V48.828C4.46136 51.5687 6.82141 53.7965 9.72455 53.7965H55.302C58.2051 53.7965 60.5649 51.5687 60.5649 48.828V19.437C60.5649 18.8401 60.0575 18.3609 59.4253 18.3609H5.61018H5.60127Z" fill="currentColor"/>
<path d="M45.043 25.6162C43.8141 25.6162 42.8167 24.6746 42.8167 23.5144V13.9305C42.8167 8.56681 38.1948 4.20351 32.5132 4.20351C26.8316 4.20351 22.2099 8.56681 22.2099 13.9305V23.5144C22.2099 24.6746 21.2125 25.6162 19.9835 25.6162C18.7546 25.6162 17.7572 24.6746 17.7572 23.5144V13.9305C17.7572 6.24647 24.3737 0 32.5132 0C40.6527 0 47.2694 6.24647 47.2694 13.9305V23.5144C47.2694 24.6746 46.272 25.6162 45.043 25.6162Z" fill="currentColor"/>
</svg>
