<?xml version="1.0" encoding="UTF-8"?>
<svg id="Layer_2" data-name="Layer 2" xmlns="http://www.w3.org/2000/svg" viewBox="0 0 64.99 57.34">
  <g id="Layer_1-2" data-name="Layer 1">
    <g id="Group_9757" data-name="Group 9757">
      <g id="Group_9756" data-name="Group 9756">
        <path fill="currentColor" id="Path_8798" data-name="Path 8798" d="M20.37,46.89h.09l8.07-.33c.56-.02,1.1-.26,1.5-.66L62.74,13.18c3.01-3.03,3-7.92-.03-10.93-3.01-3-7.88-3-10.9,0L19.1,34.96c-.4.4-.63.94-.66,1.5l-.33,8.07c-.06,1.25.91,2.3,2.16,2.36.03,0,.07,0,.1,0M22.92,37.54L55.01,5.45c1.29-1.21,3.32-1.15,4.54.14,1.16,1.24,1.16,3.17,0,4.4L27.45,42.07l-4.74.2.2-4.74Z"/>
        <path fill="currentColor" id="Path_8799" data-name="Path 8799" d="M62.74,52.82H2.26c-1.25.03-2.24,1.06-2.21,2.31.03,1.21,1,2.19,2.21,2.21h60.48c1.25-.03,2.24-1.06,2.21-2.31-.03-1.21-1-2.19-2.21-2.21"/>
        <path fill="currentColor" id="Path_8800" data-name="Path 8800" d="M.66,46.22c.88.88,2.31.88,3.19,0,0,0,0,0,0,0l2.57-2.57,2.57,2.57c.88.88,2.31.88,3.19,0s.88-2.31,0-3.19l-2.57-2.57,2.57-2.57c.88-.88.88-2.31,0-3.19s-2.31-.88-3.19,0l-2.57,2.57-2.57-2.57c-.88-.88-2.31-.88-3.19,0-.88.88-.88,2.31,0,3.19l2.57,2.57-2.57,2.57c-.88.88-.88,2.31,0,3.19,0,0,0,0,0,0"/>
      </g>
    </g>
  </g>
</svg>