<svg width="27" height="24" viewBox="0 0 27 24" fill="none" xmlns="http://www.w3.org/2000/svg">
<mask id="mask0_13_865" style="mask-type:alpha" maskUnits="userSpaceOnUse" x="0" y="0" width="27" height="24">
<path d="M0 0H26.983V23.1755H0V0Z" fill="black"/>
</mask>
<g mask="url(#mask0_13_865)">
<path d="M13.4919 23.1755C12.3686 23.1755 11.3127 22.7701 10.5186 22.0344L8.70275 20.3516C8.26257 19.9441 7.67767 19.7197 7.05526 19.7197H4.20459C1.88633 19.7197 0 17.972 0 15.8241V3.89559C0 1.7477 1.88633 0 4.20459 0H22.7788C25.097 0 26.983 1.7477 26.983 3.89559V15.8241C26.983 17.972 25.097 19.7197 22.7788 19.7197H19.9285C19.3061 19.7197 18.7208 19.9441 18.2806 20.3516L16.4648 22.0344C15.6707 22.7701 14.6148 23.1755 13.4919 23.1755ZM4.20459 1.73693C2.92004 1.73693 1.8747 2.70544 1.8747 3.89559V15.8241C1.8747 17.0143 2.92004 17.9828 4.20459 17.9828H7.05526C8.17821 17.9828 9.23442 18.3878 10.0282 19.1236L11.8444 20.8064C12.2842 21.2142 12.8695 21.4386 13.4919 21.4386C14.1139 21.4386 14.6992 21.2142 15.139 20.8064L16.9552 19.1236C17.7493 18.3878 18.8052 17.9828 19.9285 17.9828H22.7788C24.0633 17.9828 25.1083 17.0143 25.1083 15.8241V3.89559C25.1083 2.70544 24.0633 1.73693 22.7788 1.73693H4.20459Z" fill="#D1D1D1"/>
<path d="M4.11011 12.266L4.66315 11.1151C5.19031 11.4385 5.93907 11.6591 6.62821 11.6591C7.32598 11.6591 7.59818 11.4778 7.59818 11.21C7.59818 10.3349 4.21209 10.9734 4.21209 8.92415C4.21209 7.93862 5.07971 7.13477 6.84943 7.13477C7.62368 7.13477 8.42343 7.30047 9.01021 7.61555L8.49129 8.77443C7.92138 8.49062 7.35972 8.34888 6.8408 8.34888C6.13479 8.34888 5.87945 8.56947 5.87945 8.8453C5.87945 9.68875 9.25692 9.05824 9.25692 11.0918C9.25692 12.0534 8.38931 12.8732 6.61959 12.8732C5.64137 12.8732 4.67177 12.6287 4.11011 12.266Z" fill="#D1D1D1"/>
<path d="M15.4059 12.7636L15.3891 9.83933L13.8578 12.22H13.1091L11.586 9.91819V12.7636H10.0293V7.24609H11.4158L13.5087 10.4306L15.5507 7.24609H16.9372L16.9541 12.7636H15.4059Z" fill="#D1D1D1"/>
<path d="M17.7264 12.266L18.2795 11.1151C18.8066 11.4385 19.5554 11.6591 20.2445 11.6591C20.9423 11.6591 21.2145 11.4778 21.2145 11.21C21.2145 10.3349 17.8284 10.9734 17.8284 8.92415C17.8284 7.93862 18.696 7.13477 20.4658 7.13477C21.24 7.13477 22.0394 7.30047 22.6265 7.61555L22.1076 8.77443C21.5377 8.49062 20.9761 8.34888 20.4571 8.34888C19.7511 8.34888 19.4958 8.56947 19.4958 8.8453C19.4958 9.68875 22.8733 9.05824 22.8733 11.0918C22.8733 12.0534 22.0056 12.8732 20.2359 12.8732C19.2577 12.8732 18.2881 12.6287 17.7264 12.266Z" fill="#D1D1D1"/>
</g>
</svg>
