<?xml version="1.0" encoding="UTF-8"?>
<svg id="Layer_2" data-name="Layer 2" xmlns="http://www.w3.org/2000/svg" viewBox="0 0 58.69 65">
  <g id="Layer_1-2" data-name="Layer 1">
    <g id="Group_9686" data-name="Group 9686">
      <g id="Group_9692" data-name="Group 9692">
        <g id="Group_9691" data-name="Group 9691">
          <path fill="currentColor" id="Path_8685" data-name="Path 8685" d="M11.51,30.8c-1.14,0-2.07.93-2.07,2.07s.93,2.07,2.07,2.07h9.41c1.14,0,2.07-.93,2.07-2.07s-.93-2.07-2.07-2.07h-9.41Z"/>
          <path fill="currentColor" id="Path_8686" data-name="Path 8686" d="M33.88,23.01c0-1.14-.93-2.07-2.07-2.07H11.51c-1.14,0-2.07.93-2.07,2.07s.93,2.07,2.07,2.07h20.3c1.14,0,2.07-.93,2.07-2.07"/>
          <path fill="currentColor" id="Path_8687" data-name="Path 8687" d="M31.81,11.08H11.51c-1.14,0-2.07.93-2.07,2.07s.93,2.07,2.07,2.07h20.3c1.14,0,2.07-.93,2.07-2.07s-.93-2.07-2.07-2.07"/>
          <path fill="currentColor" id="Path_8688" data-name="Path 8688" d="M22.63,54.21h-10.01c-4.68,0-8.47-3.8-8.48-8.48V12.62c0-4.68,3.8-8.47,8.48-8.48h18.09c4.68,0,8.47,3.8,8.48,8.48v13.16c0,1.14.93,2.07,2.07,2.07s2.07-.93,2.07-2.07v-13.16c0-6.97-5.65-12.61-12.62-12.62H12.62C5.65,0,0,5.65,0,12.62v33.12c0,6.97,5.65,12.61,12.62,12.62h10.01c1.14,0,2.07-.93,2.07-2.07s-.93-2.07-2.07-2.07"/>
          <path fill="currentColor" id="Path_8689" data-name="Path 8689" d="M41.26,30.14c-9.63,0-17.43,7.8-17.43,17.43s7.8,17.43,17.43,17.43,17.43-7.8,17.43-17.43c-.01-9.62-7.81-17.42-17.43-17.43M41.26,60.86c-7.34,0-13.29-5.95-13.29-13.29,0-7.34,5.95-13.29,13.29-13.29,7.34,0,13.29,5.95,13.29,13.29h0c0,7.34-5.95,13.28-13.29,13.29"/>
          <path fill="currentColor" id="Path_8690" data-name="Path 8690" d="M44.64,42.87l-5,5-1.77-1.77c-.79-.83-2.1-.86-2.93-.08s-.86,2.1-.08,2.93c.02.03.05.05.07.07l3.23,3.24c.81.81,2.12.81,2.93,0h0s6.47-6.46,6.47-6.46c.81-.81.81-2.12,0-2.93s-2.12-.81-2.93,0"/>
        </g>
      </g>
    </g>
  </g>
</svg>