<svg width="79" height="75" viewBox="0 0 79 75" fill="none" xmlns="http://www.w3.org/2000/svg">
<path d="M37.1504 0C46.6202 0.0401252 55.6904 3.75027 62.4902 10.1602V2.5C62.4904 1.12011 63.6103 0 64.9902 0C66.37 0.000132066 67.4901 1.12019 67.4902 2.5V16.75C67.4902 16.81 67.4697 16.8609 67.4697 16.9209C67.4598 17.0107 67.4604 17.1006 67.4404 17.1904C67.4304 17.2704 67.3999 17.3409 67.3799 17.4209C67.3599 17.5007 67.3395 17.5705 67.3096 17.6504C67.2796 17.7303 67.2499 17.8002 67.21 17.8701C67.17 17.9401 67.1298 18.0101 67.0898 18.0801C67.0399 18.14 66.9904 18.2105 66.9404 18.2705C66.8904 18.3405 66.85 18.4009 66.79 18.4609C66.7301 18.5209 66.6597 18.5807 66.5898 18.6406C66.5399 18.6806 66.5099 18.7308 66.46 18.7607C66.4499 18.7707 66.4298 18.7803 66.4199 18.7803C66.3399 18.8403 66.2599 18.8807 66.1699 18.9307C66.11 18.9606 66.0502 18.9905 65.9902 19.0205C65.9103 19.0605 65.8301 19.0804 65.7402 19.1104C65.6703 19.1403 65.6002 19.1607 65.5303 19.1807C65.4603 19.2007 65.3798 19.2109 65.2998 19.2109C65.2098 19.2209 65.13 19.2402 65.04 19.2402H50.7402C49.3602 19.2402 48.2402 18.1202 48.2402 16.7402C48.2402 15.3602 49.3602 14.2402 50.7402 14.2402H59.5205C53.5705 8.39023 45.4898 5.00023 37.0498 4.99023C19.3698 5.02023 4.99023 19.4006 4.99023 37.1006C4.99037 54.8004 19.3898 69.2108 37.0996 69.2109L37.1104 69.2207C38.4901 69.221 39.6104 70.3409 39.6104 71.7207C39.6102 73.1004 38.49 74.2204 37.1104 74.2207C16.6504 74.2207 0 57.5204 0 37.1104C0 16.7004 16.5698 0.0801311 36.9697 0H37.1504ZM62.3496 32.8105C71.4296 32.8105 78.8096 40.1905 78.8096 49.2705C78.8094 58.3504 71.4295 65.7305 62.3496 65.7305C53.2697 65.7305 45.8898 58.3504 45.8896 49.2705C45.8896 40.1905 53.2696 32.8105 62.3496 32.8105ZM62.3496 37.8203C56.0296 37.8203 50.8896 42.9603 50.8896 49.2803C50.8896 55.6003 56.0296 60.7402 62.3496 60.7402C68.6696 60.7402 73.8096 55.6003 73.8096 49.2803C73.8096 42.9603 68.6696 37.8203 62.3496 37.8203ZM62.29 41.6904C62.81 41.6904 63.2305 42.1109 63.2305 42.6309V43.0801C64.6901 43.2601 65.5896 43.8105 66.0596 44.6104C66.4796 45.3404 65.8898 46.25 65.0498 46.25C64.58 46.25 64.1901 45.9405 64 45.5107C63.76 44.9408 63.2101 44.5304 62.1504 44.5303C60.8904 44.5303 60.3301 45.1608 60.3301 46.0908C60.3303 47.0205 60.9606 47.5504 62.9902 48.2402V48.2305C65.7501 49.1605 66.7803 50.2208 66.7803 52.0508C66.7801 53.8804 65.6399 55.1606 63.2305 55.4307V55.9209C63.2302 56.4407 62.8099 56.8604 62.29 56.8604C61.7702 56.8604 61.3499 56.4407 61.3496 55.9209V55.4502C59.6098 55.2902 58.5796 54.6406 58.0596 53.6807C57.6596 52.9307 58.2303 52.0303 59.0703 52.0303H59.1396C59.6096 52.0303 60.0304 52.3207 60.1904 52.7607C60.4505 53.4804 61.0104 53.9805 62.29 53.9805C63.5699 53.9805 64.3202 53.4103 64.3203 52.2705C64.3203 51.2006 63.73 50.6404 61.8604 49.9805C59.0604 49.0305 57.9004 48.1605 57.9004 46.2305C57.9004 44.4905 59.2498 43.3006 61.3496 43.0605V42.6309C61.3496 42.1109 61.77 41.6904 62.29 41.6904ZM37.2305 17.5205C38.6102 17.5208 39.7305 18.6407 39.7305 20.0205V37.1006C39.7303 38.4803 38.6102 39.6003 37.2305 39.6006H25.1104C23.7304 39.6006 22.6105 38.4805 22.6104 37.1006C22.6104 35.7206 23.7304 34.6006 25.1104 34.6006H34.7305V20.0205C34.7305 18.6405 35.8505 17.5205 37.2305 17.5205Z" fill="#FFF8EA"/>
</svg>
