<svg width="25" height="23" viewBox="0 0 25 23" fill="none" xmlns="http://www.w3.org/2000/svg">
<mask id="mask0_14_1113" style="mask-type:alpha" maskUnits="userSpaceOnUse" x="0" y="0" width="25" height="24">
<path d="M0 0H25V23.0022H0V0Z" fill="black"/>
</mask>
<g mask="url(#mask0_14_1113)">
<path d="M7.48299 14.6052C3.93805 14.6052 0.811286 17.1146 0.0482334 20.5718C-0.0839538 21.1714 0.0591969 21.7884 0.44135 22.2643C0.818177 22.7332 1.37919 23.0019 1.98092 23.0019H12.9854C13.5871 23.0019 14.1481 22.7332 14.5246 22.2646C14.9071 21.7884 15.0506 21.1717 14.9181 20.5718C14.1553 17.1146 11.0282 14.6052 7.48299 14.6052V14.6052ZM13.3036 21.2835C13.2579 21.3405 13.1558 21.4357 12.9854 21.4357H1.98092C1.81052 21.4357 1.70841 21.3405 1.66267 21.2835C1.57904 21.1795 1.54803 21.0433 1.57778 20.9092C2.18359 18.1639 4.66696 16.1714 7.48299 16.1714C10.2993 16.1714 12.783 18.1639 13.3885 20.9092C13.4183 21.0429 13.3872 21.1795 13.3036 21.2835Z" fill="#FFF8EA"/>
<path d="M7.48298 12.0338C9.69916 12.0338 11.5019 10.2308 11.5019 8.01496C11.5019 5.79879 9.69916 3.99609 7.48298 3.99609C5.26681 3.99609 3.46411 5.79879 3.46411 8.01496C3.46411 10.2308 5.26681 12.0338 7.48298 12.0338ZM7.48298 5.56229C8.83524 5.56229 9.93565 6.66239 9.93565 8.01496C9.93565 9.36722 8.83524 10.4676 7.48298 10.4676C6.13073 10.4676 5.03031 9.36722 5.03031 8.01496C5.03031 6.66239 6.13073 5.56229 7.48298 5.56229Z" fill="#FFF8EA"/>
<path d="M24.9517 16.5762C24.1887 13.1189 21.0619 10.6093 17.5167 10.6093C15.4769 10.6093 13.5611 11.4052 12.1218 12.8508C11.8167 13.1575 11.8176 13.6533 12.1239 13.9584C12.4303 14.2635 12.9265 14.2623 13.2316 13.9562C14.3749 12.8082 15.8966 12.1755 17.5167 12.1755C20.3327 12.1755 22.8167 14.1683 23.4222 16.9135C23.4516 17.0473 23.4209 17.1839 23.3373 17.2878C23.2916 17.3449 23.1895 17.4404 23.0191 17.4404H17.2244C16.7918 17.4404 16.4413 17.7909 16.4413 18.2235C16.4413 18.6561 16.7918 19.0066 17.2244 19.0066H23.0191C23.6205 19.0066 24.1815 18.7375 24.5583 18.2689C24.9405 17.7931 25.0839 17.176 24.9517 16.5762Z" fill="#FFF8EA"/>
<path d="M17.5167 8.03786C19.7328 8.03786 21.5356 6.23485 21.5356 4.01899C21.5356 1.80282 19.7328 0.00012207 17.5167 0.00012207C15.3005 0.00012207 13.4978 1.80282 13.4978 4.01899C13.4978 6.23485 15.3005 8.03786 17.5167 8.03786ZM17.5167 1.56632C18.8689 1.56632 19.9694 2.66673 19.9694 4.01899C19.9694 5.37125 18.8689 6.47166 17.5167 6.47166C16.1644 6.47166 15.064 5.37125 15.064 4.01899C15.064 2.66673 16.1644 1.56632 17.5167 1.56632Z" fill="#FFF8EA"/>
</g>
</svg>
