<svg width="72" height="72" viewBox="0 0 72 72" fill="none" xmlns="http://www.w3.org/2000/svg">
<path d="M35.7798 71.56C16.0498 71.56 0 55.51 0 35.78C0 16.05 16.0498 0 35.7798 0C55.5098 0 71.5598 16.05 71.5598 35.78C71.5598 55.51 55.5098 71.56 35.7798 71.56ZM35.7798 5.22C18.9298 5.22 5.21997 18.93 5.21997 35.78C5.21997 52.63 18.9298 66.34 35.7798 66.34C52.6298 66.34 66.3398 52.63 66.3398 35.78C66.3398 18.93 52.6298 5.22 35.7798 5.22Z" fill="#FFF8EA"/>
<path d="M35.7793 18.7C34.3993 18.7 33.2793 19.82 33.2793 21.2V39.96C33.2793 41.34 34.3993 42.46 35.7793 42.46C37.1593 42.46 38.2793 41.34 38.2793 39.96V21.2C38.2793 19.82 37.1593 18.7 35.7793 18.7Z" fill="#FFF8EA"/>
<path d="M38.0894 49.41C38.0294 49.26 37.9494 49.12 37.8594 48.98C37.7694 48.84 37.6593 48.72 37.5493 48.6C36.6193 47.67 34.9495 47.67 34.0095 48.6C33.8995 48.72 33.7895 48.84 33.6995 48.98C33.6095 49.12 33.5395 49.26 33.4695 49.41C33.4095 49.56 33.3593 49.72 33.3293 49.88C33.2993 50.04 33.2793 50.21 33.2793 50.37C33.2793 51.03 33.5495 51.67 34.0095 52.14C34.4795 52.6 35.1193 52.87 35.7793 52.87C36.4393 52.87 37.0793 52.6 37.5493 52.14C38.0093 51.67 38.2793 51.03 38.2793 50.37C38.2793 50.21 38.2595 50.04 38.2295 49.88C38.1995 49.72 38.1494 49.56 38.0894 49.41Z" fill="#FFF8EA"/>
</svg>
