<svg width="72" height="72" viewBox="0 0 72 72" fill="none" xmlns="http://www.w3.org/2000/svg">
<path d="M35.7798 71.56C16.0498 71.56 0 55.51 0 35.78C0 16.05 16.0498 0 35.7798 0C55.5098 0 71.5598 16.05 71.5598 35.78C71.5598 55.51 55.5098 71.56 35.7798 71.56ZM35.7798 5.22C18.9298 5.22 5.21997 18.93 5.21997 35.78C5.21997 52.63 18.9298 66.34 35.7798 66.34C52.6298 66.34 66.3398 52.63 66.3398 35.78C66.3398 18.93 52.6298 5.22 35.7798 5.22Z" fill="#FFF8EA"/>
<path d="M35.7798 18.7C34.3998 18.7 33.2798 19.82 33.2798 21.2V39.9599C33.2798 41.3399 34.3998 42.4599 35.7798 42.4599C37.1598 42.4599 38.2798 41.3399 38.2798 39.9599V21.2C38.2798 19.82 37.1598 18.7 35.7798 18.7Z" fill="#FFF8EA"/>
<path d="M38.0898 49.41C38.0298 49.26 37.9499 49.12 37.8599 48.98C37.7699 48.84 37.6598 48.72 37.5498 48.6C36.6198 47.67 34.95 47.67 34.01 48.6C33.9 48.72 33.79 48.84 33.7 48.98C33.61 49.12 33.54 49.26 33.47 49.41C33.41 49.56 33.3598 49.72 33.3298 49.88C33.2998 50.04 33.2798 50.21 33.2798 50.37C33.2798 51.03 33.55 51.67 34.01 52.14C34.48 52.6 35.1198 52.87 35.7798 52.87C36.4398 52.87 37.0798 52.6 37.5498 52.14C38.0098 51.67 38.2798 51.03 38.2798 50.37C38.2798 50.21 38.26 50.04 38.23 49.88C38.2 49.72 38.1498 49.56 38.0898 49.41Z" fill="#FFF8EA"/>
</svg>
