<svg width="25" height="17" viewBox="0 0 25 17" fill="none" xmlns="http://www.w3.org/2000/svg">
<path d="M22.841 0H2.15898C0.969482 0 0 0.944817 0 2.10406V15.0065C0 16.1054 0.917888 17 2.0455 17H22.9545C24.0821 17 25 16.1054 25 15.0065V2.10406C25 0.944817 24.0305 0 22.841 0ZM23.2811 15.0099C23.2811 15.1841 23.1367 15.3281 22.9545 15.3281H2.0455C1.86673 15.3281 1.71892 15.1841 1.71892 15.0099V6.68073H23.2811V15.0099ZM23.2811 5.00217H1.71892V2.10406C1.71892 1.86618 1.91489 1.67521 2.15898 1.67521H22.841C23.0851 1.67521 23.2811 1.86618 23.2811 2.10406V5.00217Z" fill="#FFF8EA"/>
<path d="M15.8173 12.4871L16.3365 9.52197H15.5079L14.9888 12.4871H15.8173Z" fill="#FFF8EA"/>
<path d="M18.705 11.5188C18.705 11.1804 18.4884 10.9258 18.0071 10.7147C17.7184 10.5773 17.5397 10.4869 17.5431 10.3462C17.5431 10.2222 17.6943 10.0915 18.0175 10.0915C18.2891 10.0882 18.485 10.1451 18.6397 10.2054L18.7154 10.2389L18.8288 9.59566C18.6638 9.53536 18.4059 9.47168 18.0862 9.47168C17.268 9.47168 16.6905 9.87374 16.6836 10.45C16.6802 10.8755 17.0961 11.1134 17.409 11.2541C17.7321 11.3982 17.8387 11.492 17.8387 11.6227C17.8387 11.8203 17.5809 11.9108 17.3437 11.9108C17.0102 11.9108 16.8349 11.8672 16.5633 11.7567L16.4567 11.7098L16.3398 12.3732C16.5324 12.4569 16.8933 12.5273 17.2646 12.5306C18.1378 12.5306 18.7016 12.1319 18.7085 11.5188H18.705Z" fill="#FFF8EA"/>
<path d="M19.5167 12.4903C19.5167 12.4903 19.6577 12.1251 19.6921 12.0447C19.7883 12.0447 20.634 12.0447 20.7543 12.0447C20.7784 12.1486 20.854 12.4903 20.854 12.4903H21.6241L20.9537 9.52856H20.3143C20.1149 9.52856 19.9671 9.58216 19.8812 9.77314L18.6504 12.4903H19.5202H19.5167ZM20.2593 10.6074C20.2593 10.6074 20.3281 10.4365 20.3693 10.326L20.4243 10.5806C20.4243 10.5806 20.5824 11.2875 20.6168 11.4383H19.9293C19.998 11.2674 20.2593 10.6107 20.2593 10.6107V10.6074Z" fill="#FFF8EA"/>
<path d="M12.9884 12.4871H13.865L15.1713 9.52533H14.2913L13.48 11.549L13.394 11.1369L13.1018 9.77325C13.0502 9.58563 12.9059 9.52867 12.7271 9.52197H11.3897L11.3794 9.58228C11.706 9.65934 11.9948 9.77325 12.2526 9.91397L12.9884 12.4837V12.4871Z" fill="#FFF8EA"/>
</svg>
