<?xml version="1.0" encoding="UTF-8"?>
<svg id="Layer_2" data-name="Layer 2" xmlns="http://www.w3.org/2000/svg" viewBox="0 0 65 53.61">
  <g id="Layer_1-2" data-name="Layer 1">
    <g id="Group_9202" data-name="Group 9202">
      <g id="Group_9096" data-name="Group 9096">
        <path fill="currentColor" id="Path_8314" data-name="Path 8314" d="M63.23,50.07h-4.49V17.42c0-.98-.79-1.77-1.77-1.77h-12.84L31.42,2.95C29.53,1.06,26.96,0,24.28,0h-14.2C4.52,0,0,4.52,0,10.09v9.02c0,5.57,4.52,10.08,10.09,10.09h16.88s.22.01.57,0v20.86h-6.34c-.98,0-1.77.79-1.77,1.77s.79,1.77,1.77,1.77h42.04c.98,0,1.77-.79,1.77-1.77s-.79-1.77-1.77-1.77M30.81,22.2s-.01.09-.02.14c-.27,1.91-1.91,3.32-3.83,3.32H10.09c-3.62,0-6.55-2.94-6.55-6.55v-9.02c0-3.61,2.93-6.54,6.55-6.55h14.2c1.74,0,3.4.69,4.63,1.92l10.2,10.19h-7.72c-1.31-.88-2.86-1.33-4.43-1.27h-10.75c-.98,0-1.77.79-1.77,1.77,0,.98.79,1.77,1.77,1.77h10.75c2.14,0,3.87,1.73,3.87,3.87,0,.13,0,.27-.02.4M55.2,49.66h-24.13v-21.41c1.71-.94,3.3-2.8,3.3-6.46-.03-.88-.19-1.76-.47-2.6h21.3v30.47Z"/>
        <path fill="currentColor" id="Path_8315" data-name="Path 8315" d="M34.37,37.85l4.73,4.73c.33.33.78.52,1.25.52h.09c.5-.03.97-.26,1.28-.65l8.7-10.69c.61-.76.48-1.88-.28-2.49-.75-.6-1.85-.49-2.46.25l-7.46,9.16-3.35-3.35c-.73-.66-1.84-.6-2.5.13-.61.67-.61,1.7,0,2.37"/>
      </g>
    </g>
  </g>
</svg>