<svg width="75" height="60" viewBox="0 0 75 60" fill="none" xmlns="http://www.w3.org/2000/svg">
<path d="M55.46 38.9C54.8 38.9 54.1599 38.63 53.6899 38.17C53.2299 37.7 52.96 37.06 52.96 36.4C52.96 35.74 53.2299 35.1 53.6899 34.63C54.6299 33.7 56.3 33.7 57.23 34.63C57.7 35.1 57.96 35.74 57.96 36.4C57.96 37.06 57.7 37.7 57.23 38.17C56.77 38.63 56.12 38.9 55.46 38.9Z" fill="#FFF8EA"/>
<path d="M64.74 59.23H9.28003C4.16003 59.23 0 55.0701 0 49.9501V9.28003C0 4.16003 4.16003 0 9.28003 0H71.52C72.9 0 74.02 1.12 74.02 2.5C74.02 3.88 72.9 5 71.52 5H9.28003C6.92003 5 5 6.92003 5 9.28003C5 11.64 6.92003 13.5601 9.28003 13.5601H64.74C69.86 13.5601 74.02 17.7201 74.02 22.8401V49.9601C74.02 55.0801 69.86 59.24 64.74 59.24V59.23ZM5 17.51V49.9501C5 52.3101 6.92003 54.23 9.28003 54.23H64.74C67.1 54.23 69.02 52.3101 69.02 49.9501V22.8301C69.02 20.4701 67.1 18.55 64.74 18.55H9.28003C7.74003 18.55 6.28 18.17 5 17.5V17.51Z" fill="#FFF8EA"/>
</svg>
