<svg width="25" height="25" viewBox="0 0 25 25" fill="none" xmlns="http://www.w3.org/2000/svg">
<mask id="mask0_14_1144" style="mask-type:alpha" maskUnits="userSpaceOnUse" x="0" y="0" width="25" height="25">
<path d="M0 0H25V25H0V0Z" fill="black"/>
</mask>
<g mask="url(#mask0_14_1144)">
<path d="M12.5 0.000244141C5.60751 0.000244141 0 5.60775 0 12.5002C0 19.3927 5.60751 24.9999 12.5 24.9999C19.3925 24.9999 25 19.3927 25 12.5002C25 5.60775 19.3925 0.000244141 12.5 0.000244141ZM12.5 23.3419C11.4415 23.3419 10.0832 21.2156 9.40111 17.5301C10.4228 17.6345 11.4667 17.6889 12.5 17.6889C13.5336 17.6889 14.5775 17.6345 15.5992 17.5301C14.9171 21.2156 13.5585 23.3419 12.5 23.3419ZM12.5 16.0309C11.2979 16.0309 10.1804 15.9639 9.15307 15.8475C9.03634 14.8198 8.96969 13.7027 8.96969 12.5002C8.96969 11.2978 9.03634 10.1803 9.15307 9.15298C10.1804 9.03626 11.2979 8.9696 12.5 8.9696C13.7024 8.9696 14.8199 9.03626 15.8473 9.15298C15.964 10.1803 16.0306 11.2978 16.0306 12.5002C16.0306 13.7027 15.964 14.8198 15.8473 15.8472C14.8199 15.9639 13.7024 16.0309 12.5 16.0309ZM7.47016 15.5991C3.78465 14.917 1.65804 13.5587 1.65804 12.5002C1.65804 11.4417 3.78465 10.0831 7.47016 9.40103C7.3657 10.4227 7.31165 11.4666 7.31165 12.5002C7.31165 13.5335 7.3657 14.5774 7.47016 15.5991ZM12.5 1.65829C13.5585 1.65829 14.9171 3.78457 15.5992 7.47007C14.5775 7.36561 13.5336 7.31156 12.5 7.31156C11.4667 7.31156 10.4228 7.36561 9.40111 7.47007C10.0832 3.78457 11.4415 1.65829 12.5 1.65829ZM17.5302 9.40103C21.2157 10.0831 23.342 11.4417 23.342 12.5002C23.342 13.5587 21.2157 14.917 17.5302 15.5991C17.6346 14.5774 17.6887 13.5335 17.6887 12.5002C17.6887 11.467 17.6346 10.4227 17.5302 9.40103ZM22.9301 9.5476C21.5227 8.68342 19.5195 8.06166 17.3037 7.69656C16.9386 5.48075 16.3168 3.47716 15.4526 2.07015C19.0606 3.09316 21.9071 5.93969 22.9301 9.5476ZM9.54769 2.07015C8.68351 3.47716 8.06175 5.48041 7.69664 7.69656C5.4805 8.06166 3.47725 8.68342 2.07023 9.5476C3.09292 5.93969 5.93978 3.09316 9.54769 2.07015ZM2.07023 15.4529C3.47725 16.3171 5.4805 16.9388 7.69664 17.3039C8.06175 19.5197 8.68351 21.523 9.54769 22.93C5.93978 21.9073 3.09292 19.0605 2.07023 15.4529ZM15.4526 22.93C16.3168 21.523 16.9386 19.5197 17.3037 17.3039C19.5195 16.9388 21.5227 16.3171 22.9301 15.4529C21.9071 19.0605 19.0606 21.907 15.4526 22.93Z" fill="#FFF8EA"/>
</g>
</svg>
