<svg width="25" height="15" viewBox="0 0 25 15" fill="none" xmlns="http://www.w3.org/2000/svg">
<path d="M22.7612 0H2.23887C2.15339 0 2.06777 0 1.98245 0.000461796C1.91033 0.000937586 1.83837 0.00167926 1.76642 0.00349846C1.60949 0.00743072 1.45122 0.0160089 1.29625 0.0418135C1.13881 0.068066 0.992302 0.110887 0.849375 0.178309C0.708864 0.244514 0.580225 0.331108 0.468745 0.434438C0.357217 0.537769 0.263754 0.656758 0.192313 0.787083C0.119528 0.919506 0.0732801 1.05529 0.0451417 1.20127C0.0171407 1.34489 0.00782015 1.4915 0.00359108 1.63675C0.0016578 1.70341 0.000828596 1.77008 0.000358867 1.83673C-0.000139559 1.91595 2.65827e-05 1.99511 2.65827e-05 2.07447V12.7543C2.65827e-05 12.8336 -0.000139559 12.9126 0.000358867 12.992C0.000828595 13.0587 0.0016578 13.1253 0.00359108 13.192C0.00782015 13.3371 0.0171407 13.4837 0.0451417 13.6273C0.0732801 13.7733 0.119528 13.9091 0.192313 14.0415C0.263754 14.1718 0.357217 14.291 0.468745 14.3941C0.580225 14.4976 0.708864 14.5842 0.849375 14.6503C0.992302 14.7179 1.13881 14.7607 1.29625 14.7869C1.45122 14.8126 1.60949 14.8213 1.76642 14.8252C1.83837 14.8268 1.91033 14.8276 1.98245 14.828C2.06777 14.8286 2.15339 14.8286 2.23887 14.8286H22.7612C22.8465 14.8286 22.9321 14.8286 23.0174 14.828C23.0894 14.8276 23.1613 14.8268 23.2336 14.8252C23.3902 14.8213 23.5484 14.8126 23.7038 14.7869C23.861 14.7607 24.0076 14.7179 24.1505 14.6503C24.2912 14.5842 24.4194 14.4976 24.5311 14.3941C24.6425 14.291 24.7359 14.1718 24.8076 14.0415C24.8805 13.9091 24.9267 13.7733 24.9547 13.6273C24.9827 13.4837 24.9918 13.3371 24.9961 13.192C24.998 13.1253 24.999 13.0587 24.9993 12.992C25 12.9126 25 12.8336 25 12.7543V2.07447C25 1.99511 25 1.91595 24.9993 1.83673C24.999 1.77008 24.998 1.70341 24.9961 1.63675C24.9918 1.4915 24.9827 1.34489 24.9547 1.20127C24.9267 1.05529 24.8805 0.919506 24.8076 0.787083C24.7359 0.656758 24.6425 0.537769 24.5311 0.434438C24.4194 0.331108 24.2912 0.244514 24.1505 0.178309C24.0076 0.110887 23.861 0.0680659 23.7038 0.0418135C23.5484 0.0160088 23.3902 0.00743064 23.2336 0.00349837C23.1613 0.00167918 23.0894 0.000937504 23.0174 0.000461714C22.9321 0 22.8465 0 22.7612 0V0Z" fill="black"/>
<path d="M22.7614 0.494629L23.0138 0.495077C23.0822 0.495525 23.1506 0.49621 23.2194 0.497946C23.339 0.50094 23.4789 0.506943 23.6094 0.528606C23.7228 0.547526 23.8179 0.576297 23.9091 0.619342C23.9992 0.661757 24.0817 0.717341 24.1538 0.784021C24.2262 0.85115 24.2862 0.927752 24.3326 1.01215C24.3788 1.09604 24.4097 1.18373 24.43 1.28955C24.4533 1.40908 24.4597 1.53909 24.463 1.6506C24.4649 1.71355 24.4658 1.77649 24.4661 1.84093C24.4668 1.91886 24.4667 1.99675 24.4667 2.07484V12.7546C24.4667 12.8327 24.4668 12.9105 24.4661 12.9901C24.4658 13.053 24.4649 13.1159 24.463 13.179C24.4597 13.2903 24.4533 13.4203 24.4297 13.5412C24.4097 13.6456 24.3788 13.7333 24.3324 13.8176C24.2861 13.9018 24.2262 13.9783 24.1541 14.045C24.0816 14.1122 23.9994 14.1676 23.9082 14.2104C23.8176 14.2532 23.7227 14.282 23.6104 14.3007C23.4774 14.3227 23.3316 14.3287 23.2218 14.3315C23.1527 14.3329 23.0839 14.3338 23.0135 14.3341C22.9296 14.3347 22.8453 14.3347 22.7614 14.3347H2.23908C2.23796 14.3347 2.23687 14.3347 2.23574 14.3347C2.15276 14.3347 2.06961 14.3347 1.98512 14.3341C1.91623 14.3338 1.8475 14.3329 1.78104 14.3315C1.66873 14.3287 1.52284 14.3227 1.39085 14.3008C1.27762 14.282 1.18269 14.2532 1.09092 14.2098C1.00061 14.1674 0.918401 14.112 0.845887 14.0448C0.773933 13.9782 0.714137 13.9019 0.667904 13.8176C0.621626 13.7334 0.590663 13.6454 0.570305 13.5398C0.546771 13.4191 0.540307 13.2897 0.537076 13.1791C0.535232 13.1158 0.534462 13.0524 0.534024 12.9895L0.533691 12.8037L0.533707 12.7546V2.07484L0.533691 2.02578L0.534009 1.84035C0.534462 1.77702 0.535232 1.71372 0.537076 1.65045C0.540307 1.53974 0.546771 1.41027 0.570499 1.28855C0.590678 1.18389 0.621626 1.09593 0.668146 1.01128C0.714016 0.927612 0.773918 0.851233 0.846251 0.784231C0.918296 0.717453 1.00078 0.661939 1.09166 0.619118C1.18245 0.576283 1.27755 0.547525 1.39079 0.528648C1.52125 0.506929 1.66128 0.50094 1.78121 0.497931C1.84957 0.49621 1.91793 0.495524 1.98577 0.49509L2.23908 0.494629H22.7614Z" fill="white"/>
<path d="M6.82439 4.98779C7.03845 4.73972 7.18371 4.40665 7.1454 4.06628C6.83205 4.08072 6.44967 4.25782 6.22829 4.50608C6.02951 4.71867 5.85357 5.06569 5.89944 5.39179C6.25119 5.42006 6.60262 5.22889 6.82439 4.98779Z" fill="black"/>
<path d="M7.14192 5.4555C6.63109 5.42731 6.19676 5.72412 5.95281 5.72412C5.70873 5.72412 5.33517 5.46971 4.93113 5.47657C4.40525 5.48372 3.9173 5.75921 3.65044 6.19736C3.10155 7.07388 3.50559 8.37406 4.03935 9.08793C4.29856 9.44111 4.61095 9.82998 5.02257 9.81601C5.41149 9.80187 5.56393 9.58269 6.03667 9.58269C6.50906 9.58269 6.64638 9.81601 7.05807 9.80895C7.485 9.80187 7.75191 9.45559 8.01111 9.10207C8.30847 8.69947 8.4302 8.31072 8.43786 8.28938C8.4302 8.28232 7.61461 7.99243 7.60705 7.1232C7.59935 6.39538 8.24738 6.04918 8.27788 6.02772C7.91193 5.52625 7.34014 5.46971 7.14192 5.4555Z" fill="black"/>
<path d="M11.5896 4.47046C12.6999 4.47046 13.473 5.17954 13.473 6.2119C13.473 7.24796 12.684 7.96072 11.5618 7.96072H10.3325V9.77196H9.44434V4.47046H11.5896V4.47046ZM10.3325 7.26999H11.3516C12.1249 7.26999 12.565 6.88427 12.565 6.21559C12.565 5.54697 12.1249 5.16487 11.3556 5.16487H10.3325V7.26999Z" fill="black"/>
<path d="M13.7051 8.67347C13.7051 7.99742 14.2642 7.58229 15.2556 7.53084L16.3976 7.46841V7.17084C16.3976 6.74098 16.0843 6.48381 15.5609 6.48381C15.0652 6.48381 14.7558 6.7042 14.6806 7.04959H13.8717C13.9192 6.3515 14.5616 5.83716 15.5926 5.83716C16.6038 5.83716 17.2501 6.33315 17.2501 7.10834V9.77196H16.4292V9.13637H16.4095C16.1676 9.56623 15.6402 9.83807 15.093 9.83807C14.2761 9.83807 13.7051 9.36781 13.7051 8.67347ZM16.3976 8.32446V8.01953L15.3705 8.07828C14.859 8.11137 14.5695 8.32078 14.5695 8.65143C14.5695 8.98939 14.8709 9.20985 15.3309 9.20985C15.9296 9.20985 16.3976 8.82775 16.3976 8.32446Z" fill="black"/>
<path d="M18.0252 11.1938V10.5509C18.0885 10.5655 18.2313 10.5655 18.3027 10.5655C18.6992 10.5655 18.9134 10.4113 19.0442 10.0145C19.0442 10.0071 19.1196 9.77935 19.1196 9.77566L17.6128 5.90698H18.5406L19.5955 9.05191H19.6112L20.6661 5.90698H21.5702L20.0077 9.97401C19.651 10.9109 19.2386 11.2122 18.3741 11.2122C18.3027 11.2122 18.0885 11.2048 18.0252 11.1938Z" fill="black"/>
</svg>
