<svg width="40" height="25" viewBox="0 0 40 25" fill="none" xmlns="http://www.w3.org/2000/svg">
<rect width="40" height="25" rx="4" fill="black"/>
<path d="M10.6604 8.40906C10.9948 7.99084 11.2217 7.4293 11.1618 6.85547C10.6724 6.87981 10.0751 7.17838 9.72925 7.59693C9.41875 7.95535 9.14394 8.54041 9.21558 9.09018C9.76503 9.13784 10.314 8.81554 10.6604 8.40906Z" fill="white"/>
<path d="M11.1557 9.19752C10.3577 9.14999 9.6793 9.65038 9.29824 9.65038C8.91698 9.65038 8.33347 9.22147 7.70235 9.23303C6.88091 9.2451 6.1187 9.70955 5.70185 10.4482C4.84447 11.926 5.47559 14.118 6.30935 15.3216C6.71424 15.917 7.20221 16.5726 7.84518 16.5491C8.45268 16.5252 8.69079 16.1557 9.42923 16.1557C10.1671 16.1557 10.3816 16.5491 11.0247 16.5371C11.6916 16.5252 12.1085 15.9414 12.5134 15.3454C12.9779 14.6666 13.168 14.0112 13.18 13.9753C13.168 13.9633 11.894 13.4746 11.8822 12.0091C11.8702 10.7821 12.8824 10.1984 12.9301 10.1622C12.3585 9.3168 11.4653 9.22147 11.1557 9.19752Z" fill="white"/>
<path d="M18.103 7.5369C19.8373 7.5369 21.0449 8.73236 21.0449 10.4729C21.0449 12.2196 19.8124 13.4212 18.0595 13.4212H16.1393V16.4749H14.752V7.5369H18.103ZM16.1393 12.2567H17.7312C18.939 12.2567 19.6265 11.6064 19.6265 10.4791C19.6265 9.35183 18.939 8.70762 17.7374 8.70762H16.1393V12.2567Z" fill="white"/>
<path d="M21.4072 14.6229C21.4072 13.4831 22.2806 12.7833 23.8292 12.6965L25.613 12.5913V12.0896C25.613 11.3649 25.1236 10.9313 24.3062 10.9313C23.5317 10.9313 23.0486 11.3029 22.931 11.8852H21.6674C21.7418 10.7082 22.7451 9.84108 24.3556 9.84108C25.9351 9.84108 26.9446 10.6773 26.9446 11.9842V16.4749H25.6624V15.4033H25.6316C25.2538 16.1281 24.4299 16.5864 23.5752 16.5864C22.2992 16.5864 21.4072 15.7935 21.4072 14.6229ZM25.613 14.0345V13.5204L24.0087 13.6195C23.2096 13.6753 22.7575 14.0283 22.7575 14.5858C22.7575 15.1555 23.2283 15.5272 23.9468 15.5272C24.882 15.5272 25.613 14.883 25.613 14.0345Z" fill="white"/>
<path d="M28.155 18.872V17.788C28.2539 17.8128 28.4768 17.8128 28.5884 17.8128C29.2078 17.8128 29.5423 17.5527 29.7466 16.8837C29.7466 16.8713 29.8644 16.4873 29.8644 16.4811L27.5107 9.95877H28.96L30.6077 15.2609H30.6324L32.2802 9.95877H33.6923L31.2517 16.8155C30.6945 18.3951 30.0503 18.903 28.7 18.903C28.5884 18.903 28.2539 18.8905 28.155 18.872Z" fill="white"/>
</svg>
