<svg preserveAspectRatio="xMidYMid meet"   overflow="visible" style="display: block;" viewBox="0 0 20 19.4113" fill="none" xmlns="http://www.w3.org/2000/svg">
<g id="Grupo 8933">
<mask id="mask0_0_8" style="mask-type:alpha" maskUnits="userSpaceOnUse" x="0" y="0" width="20" height="20">
<path id="Rect&#195;&#161;ngulo 3724" d="M0 0H20V19.4113H0V0Z" fill="var(--fill-0, black)"/>
</mask>
<g mask="url(#mask0_0_8)">
<path id="Trazado 8199" d="M0.766178 4.01036H6.85576C7.20207 5.42809 8.47944 6.4845 10.0023 6.4845C11.5252 6.4845 12.8025 5.42809 13.1488 4.01036H19.2338C19.6571 4.01036 20 3.66741 20 3.24418C20 2.82125 19.6571 2.478 19.2338 2.478H13.1501C12.805 1.05843 11.5264 -0.000125093 10.0023 -0.000125093C8.47822 -0.000125093 7.19962 1.05843 6.85453 2.478H0.766178C0.342941 2.478 0 2.82125 0 3.24418C0 3.66741 0.342941 4.01036 0.766178 4.01036V4.01036ZM10.0023 1.53223C10.9453 1.53223 11.7124 2.29933 11.7124 3.24234C11.7124 4.18505 10.9453 4.95214 10.0023 4.95214C9.06266 4.95214 8.29801 4.18995 8.2928 3.25153L8.29342 3.24418L8.2928 3.2356C8.29617 2.29565 9.06143 1.53223 10.0023 1.53223Z" fill="var(--fill-0, #B2DE61)"/>
<path id="Trazado 8200" d="M19.2338 8.9424H17.4955C17.151 7.52221 15.8721 6.46304 14.3474 6.46304C12.8228 6.46304 11.5442 7.52221 11.1997 8.9424H0.766178C0.342941 8.9424 0 9.28534 0 9.70857C0 10.1318 0.342941 10.4748 0.766178 10.4748H11.2012C11.5478 11.8919 12.8252 12.948 14.3474 12.948C15.87 12.948 17.1471 11.8919 17.494 10.4748H19.2338C19.6571 10.4748 20 10.1318 20 9.70857C20 9.28534 19.6571 8.9424 19.2338 8.9424V8.9424ZM14.3474 11.4156C13.4072 11.4156 12.6422 10.6528 12.6379 9.71348L12.6383 9.70857L12.6376 9.70152C12.6398 8.76066 13.406 7.9954 14.3474 7.9954C15.2905 7.9954 16.0576 8.7625 16.0576 9.70551C16.0576 10.6485 15.2905 11.4156 14.3474 11.4156Z" fill="var(--fill-0, #B2DE61)"/>
<path id="Trazado 8201" d="M19.2338 15.3997H8.80338C8.45676 13.9826 7.1797 12.9262 5.65715 12.9262C4.1346 12.9262 2.85723 13.9826 2.51061 15.3997H0.766178C0.342941 15.3997 0 15.7427 0 16.1659C0 16.5892 0.342941 16.9321 0.766178 16.9321H2.50908C2.85386 18.3523 4.13246 19.4111 5.65715 19.4111C7.18154 19.4111 8.46044 18.3523 8.80492 16.9321H19.2338C19.6571 16.9321 20 16.5892 20 16.1659C20 15.7427 19.6571 15.3997 19.2338 15.3997V15.3997ZM5.65715 17.8788C4.7172 17.8788 3.95225 17.1166 3.94735 16.1779C3.94765 16.1739 3.94857 16.1699 3.94857 16.1659C3.94857 16.1625 3.94765 16.1595 3.94765 16.1561C3.9547 15.2189 4.71843 14.4586 5.65715 14.4586C6.60016 14.4586 7.36726 15.226 7.36726 16.1687C7.36726 17.1117 6.60016 17.8788 5.65715 17.8788Z" fill="var(--fill-0, #B2DE61)"/>
</g>
</g>
</svg>
