<svg xmlns="http://www.w3.org/2000/svg" width="25" height="20" viewBox="0 0 25 20" fill="none">
  <mask id="mask0_95_485" style="mask-type:alpha" maskUnits="userSpaceOnUse" x="0" y="0" width="25" height="20">
    <path d="M0 0H25V19.5253H0V0Z" fill="black"/>
  </mask>
  <g mask="url(#mask0_95_485)">
    <path d="M24.2375 2.35237H18.2485L16.9912 1.0954C16.2851 0.388987 15.3459 9.15527e-05 14.347 9.15527e-05C13.3484 9.15527e-05 12.4093 0.388987 11.7031 1.0954L10.7725 2.0257L10.064 1.26957C9.05561 0.194082 7.41829 -0.0166843 6.17047 0.768426L4.69175 1.69903C4.31902 1.93389 3.88956 2.05773 3.44942 2.05773H0.762539C0.341313 2.05773 0 2.39904 0 2.82027C0 3.24149 0.341313 3.58281 0.762539 3.58281H3.44942C4.17719 3.58281 4.88788 3.37784 5.50401 2.98986L6.98272 2.05956C7.6135 1.66243 8.44131 1.76888 8.95129 2.31272L9.6934 3.10454L8.00575 4.79219C6.72011 6.07814 6.72011 8.16994 8.00605 9.45588C8.62889 10.0787 9.45701 10.4219 10.3379 10.4219C11.2188 10.4219 12.0469 10.0787 12.6697 9.45588L13.4335 8.69212L16.0444 11.3028L18.1591 13.4174L14.5233 17.0529C13.9127 17.6639 13.1007 18 12.2369 18C11.3734 18 10.5612 17.6639 9.95053 17.0529L4.88147 11.9842C4.73842 11.8411 4.54443 11.7606 4.3422 11.7606H0.762539C0.341313 11.7606 0 12.1022 0 12.5231C0 12.9443 0.341313 13.2857 0.762539 13.2857H4.02651L8.87199 18.1311C9.77087 19.03 10.9659 19.5251 12.2369 19.5251C13.5082 19.5251 14.7033 19.03 15.6019 18.1311L18.3632 15.3701C19.1306 14.6027 20.1512 14.18 21.2367 14.18H24.2375C24.6587 14.18 25 13.8387 25 13.4174V3.11491C25 2.69369 24.6587 2.35237 24.2375 2.35237V2.35237ZM21.2367 12.6549H19.5533L16.9339 10.0354L14.9729 8.07447L14.9717 8.07355L14.512 7.61389L15.8404 6.28555C16.1381 5.98816 16.1381 5.50532 15.8404 5.20732C15.5427 4.90932 15.0598 4.90932 14.7618 5.20732L12.3287 7.64012L11.5912 8.37765C11.2566 8.71225 10.8113 8.89679 10.3379 8.89679C9.86421 8.89679 9.41919 8.71225 9.08428 8.37765C8.39312 7.68618 8.39312 6.56159 9.08428 5.87042L12.7814 2.17363C13.1996 1.75546 13.7556 1.52517 14.347 1.52517C14.9384 1.52517 15.4945 1.75546 15.9127 2.17363L17.3935 3.65387C17.5366 3.79693 17.7303 3.87745 17.9325 3.87745H23.4749V12.6549H21.2367Z" fill="#FFF8EA"/>
  </g>
</svg>
