<svg preserveAspectRatio="xMidYMid meet"   overflow="visible" style="display: block;" viewBox="0 0 25 20.4054" fill="none" xmlns="http://www.w3.org/2000/svg">
<g id="Grupo 9210">
<mask id="mask0_0_38" style="mask-type:alpha" maskUnits="userSpaceOnUse" x="0" y="0" width="25" height="21">
<path id="Rect&#195;&#161;ngulo 3917" d="M0 7.62939e-06H25V20.4054H0V7.62939e-06Z" fill="var(--fill-0, black)"/>
</mask>
<g mask="url(#mask0_0_38)">
<path id="Trazado 8407" d="M15.6329 15.2258C14.752 15.2258 13.9237 15.5688 13.3005 16.1918L11.8763 17.6165C11.531 17.9618 11.0719 18.1518 10.5836 18.1518C10.0954 18.1518 9.63652 17.9618 9.29121 17.6165L7.86675 16.1918C7.24379 15.5688 6.41552 15.2258 5.53461 15.2258H3.29806C2.29037 15.2258 1.47064 14.4061 1.47064 13.3981V3.29836C1.47064 2.29038 2.29037 1.47065 3.29806 1.47065H17.8689C18.8766 1.47065 19.6966 2.29038 19.6966 3.29836V10.003C19.6966 10.4092 20.0257 10.7383 20.4319 10.7383C20.8381 10.7383 21.1672 10.4092 21.1672 10.003V3.29836C21.1672 1.47976 19.6875 5.38538e-06 17.8689 5.38538e-06H3.29806C1.47946 5.38538e-06 0 1.47976 0 3.29836V13.3981C0 15.217 1.47946 16.6965 3.29806 16.6965H5.53461C6.02257 16.6965 6.4817 16.8865 6.82671 17.2315L8.25117 18.6563C8.87414 19.2792 9.7024 19.6225 10.5836 19.6225C11.4648 19.6225 12.2931 19.2792 12.916 18.6563L14.3405 17.2315C14.6858 16.8865 15.1447 16.6965 15.6329 16.6965C16.0391 16.6965 16.3682 16.3673 16.3682 15.9612C16.3682 15.555 16.0391 15.2258 15.6329 15.2258Z" fill="var(--fill-0, #B2DE61)"/>
<path id="Trazado 8408" d="M23.7838 13.3252C22.7587 12.3001 21.2681 11.8945 19.8748 12.2301L15.2305 7.58586C15.5667 6.19317 15.1605 4.70194 14.1352 3.6769C13.1437 2.6851 11.7301 2.26273 10.356 2.54774C9.98476 2.6248 9.68681 2.89717 9.57857 3.25894C9.47122 3.61749 9.56945 4.00456 9.83417 4.26957L10.6836 5.11872C10.813 5.24843 10.8845 5.42079 10.8845 5.60403C10.8845 5.78727 10.813 5.95963 10.6836 6.08904C10.416 6.35611 9.98065 6.35611 9.71328 6.08904L8.86414 5.2399C8.59942 4.97518 8.21235 4.87665 7.8541 4.98371C7.49232 5.09195 7.21967 5.38931 7.14231 5.76109C6.85759 7.13614 7.27967 8.54913 8.27147 9.54093C9.2965 10.566 10.788 10.9716 12.1804 10.6357L16.8247 15.28C16.4885 16.6729 16.8944 18.1642 17.9197 19.1892C18.7077 19.9772 19.761 20.4054 20.8501 20.4054C21.1322 20.4054 21.4166 20.3766 21.6993 20.3181C22.0705 20.2413 22.3681 19.9689 22.4764 19.6075C22.5837 19.2492 22.4861 18.8618 22.2208 18.5965L21.3716 17.7474C21.2422 17.618 21.1707 17.4456 21.1707 17.2624C21.1707 17.0791 21.2422 16.9068 21.3716 16.7771C21.639 16.51 22.0746 16.51 22.342 16.7771L23.1905 17.6259C23.4552 17.8909 23.8426 17.9892 24.2009 17.8824C24.5629 17.7745 24.8356 17.4765 24.9126 17.1047C25.1977 15.7303 24.7756 14.317 23.7838 13.3252V13.3252ZM23.3817 15.7373C22.5411 14.8964 21.1728 14.8961 20.3316 15.7373C19.9245 16.1447 19.7001 16.6865 19.7001 17.2624C19.7001 17.8386 19.9245 18.3798 20.3319 18.7871L20.4487 18.9042C19.8928 18.8195 19.3701 18.5601 18.9595 18.1495C18.2242 17.4139 17.9833 16.3059 18.3454 15.3264C18.4451 15.057 18.3786 14.7544 18.1756 14.5514L12.9093 9.28504C12.769 9.14445 12.581 9.06944 12.3893 9.06944C12.3037 9.06944 12.2172 9.08444 12.1343 9.11503C11.1548 9.47799 10.0468 9.23622 9.31121 8.50089C8.9009 8.09059 8.64148 7.56821 8.55677 7.01231L8.67354 7.12879C9.51416 7.9697 10.8821 7.96999 11.7234 7.12879C12.1307 6.72171 12.3551 6.17993 12.3551 5.60403C12.3551 5.02783 12.1307 4.48634 11.7234 4.07897L11.6066 3.9622C12.1625 4.04691 12.6849 4.30633 13.0955 4.71664C13.8308 5.45226 14.072 6.56024 13.7099 7.53968C13.6102 7.80911 13.6764 8.11147 13.8796 8.31471L19.146 13.5811C19.3486 13.784 19.6513 13.8499 19.9207 13.7508C20.9004 13.3896 22.0087 13.6299 22.744 14.3649C23.1543 14.7752 23.4138 15.2979 23.4985 15.8538L23.3817 15.7373Z" fill="var(--fill-0, #B2DE61)"/>
</g>
</g>
</svg>
