<svg preserveAspectRatio="xMidYMid meet"   overflow="visible" style="display: block;" viewBox="0 0 20 20.0001" fill="none" xmlns="http://www.w3.org/2000/svg">
<g id="Grupo 10433">
<mask id="mask0_0_48" style="mask-type:alpha" maskUnits="userSpaceOnUse" x="0" y="0" width="20" height="20">
<path id="Rect&#195;&#161;ngulo 4759" d="M0 0H20V20H0V0Z" fill="var(--fill-0, black)"/>
</mask>
<g mask="url(#mask0_0_48)">
<path id="Trazado 9626" d="M19.3012 9.3012C18.9153 9.3012 18.6025 9.61396 18.6025 9.99996C18.6025 14.7434 14.7434 18.6022 10 18.6022C7.75505 18.6022 5.60456 17.7122 4.0114 16.1713H6.30695C6.69294 16.1713 7.0057 15.8586 7.0057 15.4726C7.0057 15.0866 6.69294 14.7738 6.30695 14.7738H2.47862C2.47414 14.7738 2.47023 14.775 2.46604 14.7752C2.43977 14.7755 2.41349 14.7797 2.38722 14.7831C2.36766 14.7856 2.34753 14.7867 2.32825 14.7909C2.30645 14.7956 2.28548 14.804 2.26396 14.811C2.2416 14.8183 2.21896 14.8241 2.19772 14.8337C2.18011 14.8412 2.16362 14.8521 2.14657 14.8613C2.12309 14.8742 2.09933 14.8862 2.07753 14.9016C2.07418 14.9041 2.07027 14.9055 2.06691 14.908C2.0535 14.9178 2.04287 14.9301 2.0303 14.9404C2.01101 14.9569 1.99145 14.9726 1.97412 14.991C1.95819 15.0078 1.94477 15.0257 1.93079 15.0436C1.91682 15.0612 1.90284 15.0782 1.89083 15.0972C1.87825 15.1168 1.86791 15.1375 1.85757 15.1584C1.8475 15.178 1.83744 15.1973 1.82934 15.218C1.82067 15.24 1.8148 15.2627 1.80837 15.2853C1.8025 15.306 1.79636 15.3264 1.79216 15.3479C1.78741 15.3742 1.78601 15.4008 1.78434 15.4276C1.78322 15.443 1.77986 15.4572 1.77986 15.4726V19.3009C1.77986 19.6869 2.09263 19.9997 2.47862 19.9997C2.86433 19.9997 3.17737 19.6869 3.17737 19.3009V17.3042C5.01426 19.0147 7.4543 19.9997 10 19.9997C15.514 19.9997 20 15.514 20 9.99996C20 9.61396 19.6872 9.3012 19.3012 9.3012Z" fill="var(--fill-0, #112719)"/>
<path id="Trazado 9627" d="M9.99972 1.39746C12.2447 1.39746 14.3954 2.28739 15.9886 3.82828H13.6931C13.3071 3.82828 12.9943 4.14105 12.9943 4.52704C12.9943 4.91303 13.3071 5.22579 13.6931 5.22579H17.5214C17.5259 5.22579 17.5298 5.22467 17.5342 5.22467C17.5594 5.22411 17.5843 5.2202 17.6094 5.21713C17.6304 5.21433 17.6516 5.21321 17.672 5.20874C17.6924 5.20427 17.7123 5.19616 17.7324 5.19002C17.7559 5.18247 17.7799 5.17604 17.8026 5.16598C17.8196 5.15871 17.8353 5.14809 17.8518 5.13943C17.8758 5.12629 17.9001 5.11371 17.9225 5.09806C17.9258 5.09554 17.9297 5.09443 17.9331 5.09191C17.9465 5.08213 17.9568 5.06983 17.9694 5.05921C17.9887 5.043 18.0083 5.02707 18.0259 5.0089C18.0418 4.99213 18.0552 4.97396 18.0692 4.95607C18.0829 4.93846 18.0972 4.92141 18.1092 4.90269C18.1218 4.88284 18.1318 4.86216 18.1422 4.84148C18.1522 4.82163 18.1626 4.80235 18.1707 4.78166C18.1793 4.75986 18.1852 4.73722 18.1916 4.71458C18.1975 4.69362 18.2036 4.67322 18.2076 4.65197C18.2123 4.62542 18.214 4.59887 18.2157 4.57204C18.2165 4.55694 18.2201 4.54241 18.2201 4.52704V0.698707C18.2201 0.312716 17.9074 -4.61244e-05 17.5214 -4.61244e-05C17.1354 -4.61244e-05 16.8226 0.312716 16.8226 0.698707V2.69547C14.9855 0.985196 12.5451 -4.61244e-05 9.99972 -4.61244e-05C4.48572 -4.61244e-05 0 4.48595 0 9.99995C0 10.3859 0.312762 10.6987 0.698753 10.6987C1.08474 10.6987 1.39751 10.3859 1.39751 9.99995C1.39751 5.25654 5.2563 1.39746 9.99972 1.39746Z" fill="var(--fill-0, #112719)"/>
</g>
</g>
</svg>
