<svg preserveAspectRatio="xMidYMid meet"   overflow="visible" style="display: block;" viewBox="0 0 25 24.309" fill="none" xmlns="http://www.w3.org/2000/svg">
<g id="Grupo 9670">
<mask id="mask0_0_53" style="mask-type:alpha" maskUnits="userSpaceOnUse" x="0" y="0" width="25" height="25">
<path id="Rect&#195;&#161;ngulo 4047" d="M0 0H25V24.309H0V0Z" fill="var(--fill-0, black)"/>
</mask>
<g mask="url(#mask0_0_53)">
<path id="Trazado 8663" d="M18.6534 15.3143L18.6177 15.2966C18.435 15.1993 18.1359 14.756 17.8712 14.3631C17.0153 13.0982 15.7218 11.1872 12.9981 11.1872L12.2983 11.1883C9.57589 11.1886 8.28276 13.0999 7.42645 14.3648C7.14918 14.7754 6.86238 15.1997 6.69159 15.2909L6.6392 15.3174C5.51243 15.8886 2.88192 17.4668 2.7853 19.786C2.74822 21.0564 3.23302 22.3097 4.10566 23.2137C4.75614 23.9108 5.67403 24.3091 6.62729 24.3091C6.67424 24.3091 6.72085 24.3068 6.76746 24.3C7.22674 24.2316 7.66289 24.0795 8.06298 23.8475C8.9346 23.4273 10.1315 22.8609 12.6007 22.8609H12.712C14.23 22.8316 15.7613 23.1711 17.1316 23.8325C17.5681 24.0676 18.0376 24.2248 18.5268 24.2996C18.5779 24.3071 18.6289 24.3091 18.6799 24.3091C19.6318 24.3091 20.547 23.9104 21.1835 23.2242C22.0664 22.309 22.5505 21.0561 22.5131 19.7755C22.4164 17.4692 19.7859 15.8896 18.6534 15.3143V15.3143ZM19.9479 22.0549C19.6308 22.3968 19.1872 22.5965 18.7221 22.6078C18.4438 22.5581 18.1764 22.4645 17.9267 22.3284C17.9148 22.322 17.9025 22.3159 17.8906 22.3097C16.3335 21.5548 14.6025 21.1581 12.8844 21.1581C12.8225 21.1581 12.7599 21.1588 12.6977 21.1598H12.6007C9.72049 21.1598 8.20587 21.8903 7.29343 22.3301C7.27063 22.3407 7.2492 22.3522 7.22777 22.3648C7.02704 22.4846 6.80829 22.5659 6.57762 22.6074C6.11256 22.5941 5.66688 22.3938 5.33926 22.043C4.77281 21.4558 4.46152 20.6515 4.48533 19.8466C4.5333 18.693 6.0901 17.5032 7.40637 16.8357L7.47442 16.801C8.03576 16.5017 8.40659 15.9526 8.8356 15.3177C9.60617 14.1794 10.4792 12.8893 12.2996 12.8893H12.3006L12.9994 12.8883C14.8192 12.8883 15.6919 14.1784 16.4621 15.316C16.8911 15.9519 17.2612 16.501 17.8386 16.8085L17.8896 16.8337C19.2083 17.5036 20.7651 18.6947 20.813 19.8361C20.8368 20.6512 20.5259 21.4555 19.9479 22.0549Z" fill="var(--fill-0, #B2DE61)"/>
<path id="Trazado 8664" d="M5.0841 14.5329C5.88734 14.1117 6.45481 13.3254 6.60042 12.4361C6.93859 10.4571 5.98634 8.47304 4.21248 7.48847C3.77361 7.25849 3.27894 7.13261 2.78224 7.1241C2.75842 7.1241 2.73325 7.12445 2.70909 7.12614C2.33622 7.13227 1.96267 7.21936 1.6245 7.37926C1.61362 7.38436 1.60307 7.38947 1.59252 7.39525C0.788947 7.81677 0.221477 8.603 0.0785885 9.47666C-0.105805 10.448 0.0374231 11.4689 0.474593 12.3378C1.204 13.8579 2.58934 14.7948 3.92126 14.7948C4.31965 14.7948 4.71395 14.7108 5.0841 14.5329V14.5329ZM2.00112 11.5873C1.72418 11.0369 1.63471 10.4 1.7531 9.77298C1.81298 9.40827 2.0416 9.08678 2.36616 8.9102C2.49 8.85475 2.62506 8.82379 2.76012 8.82685C2.77169 8.82754 2.7836 8.82685 2.79483 8.82651C3.01392 8.83604 3.22961 8.89388 3.4055 8.98573C4.53024 9.61002 5.14057 10.8817 4.92284 12.1555C4.86194 12.5263 4.62686 12.8519 4.32101 13.0128C3.61269 13.352 2.53252 12.6937 2.00112 11.5873Z" fill="var(--fill-0, #B2DE61)"/>
<path id="Trazado 8665" d="M23.3551 7.76948C23.2078 7.70008 23.0523 7.64462 22.8938 7.60414L22.8696 7.59801C21.339 7.22243 19.6277 8.23557 18.7986 10.004C18.3622 10.8916 18.2285 11.9139 18.4173 12.8614C18.5721 13.7562 19.146 14.5373 19.9805 14.9639C20.331 15.1282 20.713 15.2099 21.1053 15.2099C21.6071 15.2099 22.1266 15.0765 22.6199 14.8122C23.4296 14.3784 24.1127 13.6333 24.5428 12.7151C25.4722 10.7317 24.9388 8.51352 23.3551 7.76948V7.76948ZM23.0026 11.9935C22.7308 12.5736 22.2984 13.0546 21.8167 13.3129C21.5809 13.4391 21.1236 13.6208 20.7293 13.4367C20.3953 13.2656 20.1578 12.9424 20.0897 12.5508C19.9693 11.9459 20.0527 11.308 20.3316 10.7402C20.8011 9.73998 21.6108 9.22286 22.23 9.22286C22.3144 9.22286 22.3957 9.23273 22.4716 9.25178L22.4858 9.25552C22.5362 9.26913 22.5852 9.2875 22.6318 9.30893C23.3554 9.6488 23.5252 10.8783 23.0026 11.9935Z" fill="var(--fill-0, #B2DE61)"/>
<path id="Trazado 8666" d="M15.0781 9.55525C15.2598 9.60287 15.4445 9.62601 15.6309 9.62601C16.3277 9.62601 17.0442 9.29839 17.6964 8.67206C17.7076 8.66083 17.7192 8.64961 17.7297 8.63804C19.3471 6.8999 19.9775 4.48475 19.4161 2.17847C19.4124 2.16316 19.4083 2.14785 19.4039 2.13288C19.0708 1.03434 18.4128 0.305953 17.5491 0.0810738C17.3711 0.0351455 17.1884 0.011671 17.0057 0.011671C16.986 0.0113308 16.9639 0.0120112 16.9421 0.0137122C16.1542 0.0691665 15.4265 0.421284 14.9117 0.985352C14.0881 1.83214 13.5091 2.88679 13.2413 4.01628C12.9365 5.18423 12.9188 6.37904 13.1927 7.38198C13.5067 8.53189 14.1932 9.32458 15.0781 9.55525V9.55525ZM14.892 4.42726C15.0934 3.57809 15.5217 2.79799 16.1491 2.15227C16.3794 1.89984 16.6914 1.74504 17.0302 1.71306C17.0615 1.7151 17.0925 1.72021 17.1221 1.72735C17.3776 1.79437 17.6188 2.12131 17.7692 2.60407C18.1829 4.33812 17.7096 6.15042 16.5009 7.46125C16.1331 7.80895 15.7616 7.97633 15.5074 7.90931C15.2366 7.83854 14.9784 7.46499 14.8335 6.93393C14.6399 6.22459 14.6593 5.31759 14.892 4.42726Z" fill="var(--fill-0, #B2DE61)"/>
<path id="Trazado 8667" d="M7.24614 8.65097C7.89832 9.29668 8.62297 9.63519 9.33129 9.63519C9.50513 9.63519 9.67796 9.61512 9.84841 9.57396C10.7139 9.36541 11.3838 8.6462 11.743 7.52147C12.0618 6.39129 12.071 5.19545 11.7696 4.06153C11.5114 2.91604 10.9497 1.85969 10.1621 1.02652C9.63101 0.425026 8.89752 0.0616818 8.09666 0.00350592C8.07523 0.00146466 8.0538 -0.00193744 8.03236 0.00112445C7.85954 0.00180487 7.68739 0.0225577 7.51763 0.0637231C6.65349 0.275334 5.98464 0.993858 5.6349 2.08661C5.6298 2.10192 5.62538 2.11757 5.62163 2.13322C5.02695 4.43168 5.62197 6.85568 7.21348 8.6166C7.22402 8.62885 7.23491 8.64008 7.24614 8.65097V8.65097ZM7.26213 2.58298C7.42032 2.10192 7.6663 1.77872 7.92043 1.71612C7.94935 1.70932 7.97895 1.7049 8.00923 1.7032C8.34978 1.73722 8.66107 1.89644 8.90636 2.17337C9.50649 2.80888 9.92325 3.59578 10.1131 4.44835C10.1158 4.46094 10.1185 4.47285 10.1219 4.48509C10.3485 5.32813 10.3434 6.2188 10.1144 7.03157C9.95625 7.52555 9.70756 7.85794 9.44934 7.92019C9.18976 7.98279 8.82097 7.81065 8.45933 7.45819C7.26995 6.13035 6.82326 4.31125 7.26213 2.58298Z" fill="var(--fill-0, #B2DE61)"/>
</g>
</g>
</svg>
