<svg preserveAspectRatio="xMidYMid meet"   overflow="visible" style="display: block;" viewBox="0 0 25 23.1755" fill="none" xmlns="http://www.w3.org/2000/svg">
<g id="Grupo 10550">
<mask id="mask0_0_69" style="mask-type:alpha" maskUnits="userSpaceOnUse" x="0" y="0" width="25" height="24">
<path id="Rect&#195;&#161;ngulo 4906" d="M0 0H25V23.1755H0V0Z" fill="var(--fill-0, black)"/>
</mask>
<g mask="url(#mask0_0_69)">
<path id="Trazado 9768" d="M21.1044 -0.000140468H3.89559C1.74735 -0.000140468 0 1.74756 0 3.89545V15.824C0 17.9722 1.74735 19.7196 3.89559 19.7196H6.53642C7.11308 19.7196 7.65535 19.944 8.06283 20.3518L9.74522 22.0342C10.4813 22.7703 11.4592 23.1757 12.5 23.1757C13.5408 23.1757 14.519 22.7703 15.2544 22.0342L16.9372 20.3518C17.345 19.944 17.8869 19.7196 18.4636 19.7196H21.1044C23.2526 19.7196 25 17.9722 25 15.824V3.89545C25 1.74756 23.2526 -0.000140468 21.1044 -0.000140468ZM23.2631 15.824C23.2631 17.0141 22.2946 17.9827 21.1044 17.9827H18.4636C17.4232 17.9827 16.4449 18.3877 15.7092 19.1238L14.0264 20.8062C13.6186 21.214 13.0767 21.4388 12.5 21.4388C11.9233 21.4388 11.3814 21.214 10.9739 20.8062L9.29119 19.1238C8.55543 18.3877 7.57719 17.9827 6.53642 17.9827H3.89559C2.7051 17.9827 1.73693 17.0141 1.73693 15.824V3.89545C1.73693 2.7053 2.7051 1.73679 3.89559 1.73679H21.1044C22.2946 1.73679 23.2631 2.7053 23.2631 3.89545V15.824Z" fill="var(--fill-0, #B2DE61)"/>
<path id="Trazado 9769" d="M12.2909 4.39291C9.93803 4.39291 8.29975 5.29924 7.35868 6.72839L9.46732 7.96577C10.0252 7.16401 10.8791 6.67593 11.9942 6.67593C13.1274 6.67593 13.8767 7.21612 13.8767 8.07034C13.8767 9.58668 11.1577 10.1269 11.1577 12.5669H13.7895C13.7895 10.7195 16.7176 10.4058 16.7176 7.61734C16.7176 5.56047 14.905 4.39291 12.2909 4.39291Z" fill="var(--fill-0, #B2DE61)"/>
<path id="Trazado 9770" d="M12.4826 13.8046C11.5065 13.8046 10.8096 14.4668 10.8096 15.3557C10.8096 16.2273 11.5065 16.9419 12.4826 16.9419C13.4588 16.9419 14.1556 16.2273 14.1556 15.3557C14.1556 14.4668 13.4588 13.8046 12.4826 13.8046Z" fill="var(--fill-0, #B2DE61)"/>
</g>
</g>
</svg>
