<svg preserveAspectRatio="xMidYMid meet"   overflow="visible" style="display: block;" viewBox="0 0 62 49.6111" fill="none" xmlns="http://www.w3.org/2000/svg">
<g id="Grupo 8994">
<mask id="mask0_0_35" style="mask-type:alpha" maskUnits="userSpaceOnUse" x="0" y="0" width="62" height="50">
<path id="Rect&#195;&#161;ngulo 3770" d="M0 0H62V49.6111H0V0Z" fill="var(--fill-0, black)"/>
</mask>
<g mask="url(#mask0_0_35)">
<path id="Trazado 8238" d="M48.389 29.6858C48.3371 29.5518 48.2709 29.4337 48.1964 29.3173C48.121 29.2084 48.0372 29.0995 47.9359 28.999C47.8437 28.906 47.7357 28.8147 47.6184 28.7393C47.5087 28.6631 47.383 28.6053 47.2566 28.5467C47.1326 28.4964 46.9986 28.4537 46.8646 28.4294C46.5957 28.3783 46.3185 28.3783 46.0513 28.4294C45.9172 28.4537 45.7832 28.4964 45.6567 28.5467C45.5328 28.6053 45.4055 28.6631 45.2983 28.7393C45.1801 28.8147 45.0721 28.906 44.98 28.999C44.8794 29.0995 44.7949 29.2084 44.7195 29.3173C44.6432 29.4337 44.5771 29.5518 44.5268 29.6858C44.4682 29.8106 44.4339 29.9371 44.4003 30.0711C44.3761 30.2051 44.3677 30.3475 44.3677 30.4807C44.3677 31.0335 44.5855 31.5704 44.98 31.9641C45.0721 32.0562 45.1801 32.1475 45.2983 32.2229C45.4055 32.2991 45.5328 32.3653 45.6567 32.4164C45.7832 32.4658 45.9172 32.5085 46.0513 32.5328C46.1853 32.5663 46.3185 32.5747 46.4617 32.5747C47.0061 32.5747 47.5514 32.3569 47.9359 31.9641C48.3304 31.5704 48.5557 31.0335 48.5557 30.4807C48.5557 30.3475 48.5398 30.2135 48.513 30.0711C48.4803 29.9371 48.4468 29.8106 48.389 29.6858Z" fill="var(--fill-0, #B2DE61)"/>
<path id="Trazado 8239" d="M54.2279 11.3549H7.77125C5.79452 11.3549 4.18716 9.74757 4.18716 7.77167C4.18716 5.79577 5.79452 4.18758 7.77125 4.18758H59.906C61.0619 4.18758 62 3.25031 62 2.09358C62 0.936856 61.0619 -0.00041857 59.906 -0.00041857H7.77125C3.48609 -0.00041857 -0.0008376 3.48651 -0.0008376 7.77167V41.8385C-0.0008376 46.1237 3.48609 49.6106 7.77125 49.6106H54.2279C58.5122 49.6106 62 46.1237 62 41.8385V19.1279C62 14.8427 58.5122 11.3549 54.2279 11.3549V11.3549ZM57.812 41.8385C57.812 43.8144 56.2038 45.4226 54.2279 45.4226H7.77125C5.79452 45.4226 4.18716 43.8144 4.18716 41.8385V14.6668C5.2618 15.2272 6.47967 15.5429 7.77125 15.5429H54.2279C56.2038 15.5429 57.812 17.1511 57.812 19.1279V41.8385Z" fill="var(--fill-0, #B2DE61)"/>
</g>
</g>
</svg>
