<svg width="122" height="90" viewBox="0 0 122 90" fill="none" xmlns="http://www.w3.org/2000/svg">
<mask id="mask0_53_367" style="mask-type:alpha" maskUnits="userSpaceOnUse" x="0" y="-1" width="122" height="91">
<path d="M0 -0.000213623H121.573V89.9998H0V-0.000213623Z" fill="black"/>
</mask>
<g mask="url(#mask0_53_367)">
<path d="M89.8954 57.716V24.6346C89.8954 21.7702 92.2256 19.441 95.09 19.441C97.9544 19.441 100.284 21.7702 100.284 24.6346V39.3703C100.284 40.7188 101.377 41.8112 102.725 41.8112C104.074 41.8112 105.167 40.7188 105.167 39.3703V24.6346C105.167 19.0782 100.646 14.5573 95.09 14.5573C89.5336 14.5573 85.0127 19.0782 85.0127 24.6346V29.4266H68.1949V24.6346C68.1949 21.7702 70.5251 19.441 73.3886 19.441C76.253 19.441 78.5822 21.7702 78.5822 24.6346C78.5822 25.9831 79.6755 27.0764 81.024 27.0764C82.3725 27.0764 83.4659 25.9831 83.4659 24.6346C83.4659 19.0782 78.945 14.5573 73.3886 14.5573C67.8321 14.5573 63.3123 19.0782 63.3123 24.6346V45.2776H51.3572V43.06H58.8063C60.1548 43.06 61.2482 41.9666 61.2482 40.6182C61.2482 39.2697 60.1548 38.1763 58.8063 38.1763H32.6468L28.7638 34.2933C27.81 33.3395 26.2632 33.3395 25.3104 34.2933C24.3575 35.2461 24.3575 36.792 25.3104 37.7458L29.909 42.3444C30.3674 42.8028 30.9874 43.06 31.6352 43.06H34.7597V45.2776H20.8333C20.8403 45.2048 20.8553 45.135 20.8553 45.0613V20.8553H34.387C35.7355 20.8553 36.8278 19.7629 36.8278 18.4144C36.8278 8.26037 28.5675 0 18.4134 0C8.26037 0 0 8.26037 0 18.4144C0 19.7629 1.09235 20.8553 2.44084 20.8553H15.9726V45.0613C15.9726 45.135 15.9875 45.2048 15.9945 45.2776H5.69097C4.34248 45.2776 3.24913 46.3699 3.24913 47.7194C3.24913 49.0679 4.34248 50.1602 5.69097 50.1602H63.3123V68.9295C63.3123 70.278 64.4046 71.3713 65.7531 71.3713C67.1016 71.3713 68.1949 70.278 68.1949 68.9295V64.3159H85.0127V64.5641C86.1559 61.9957 87.8412 59.6694 89.8954 57.716ZM31.7239 15.9726H28.4489C28.2455 12.9268 27.6685 10.155 26.7904 7.80888C29.316 9.8082 31.1219 12.6796 31.7239 15.9726ZM20.8553 6.76039C22.115 8.63014 23.2303 11.8215 23.5552 15.9726H20.8553V6.76039ZM8.37898 15.9726H5.10393C5.70592 12.6796 7.51188 9.8082 10.0374 7.80888C9.15837 10.155 8.5823 12.9268 8.37898 15.9726ZM15.9726 15.9726H13.2726C13.5975 11.8215 14.7128 8.63014 15.9726 6.76039V15.9726ZM46.4746 45.2776H39.6434V43.06H46.4746V45.2776ZM68.1949 59.4332V34.3103H85.0127V45.2776H71.6474C70.2989 45.2776 69.2055 46.3699 69.2055 47.7194C69.2055 49.0679 70.2989 50.1602 71.6474 50.1602H85.0127V59.4332H68.1949Z" fill="#B2DE61"/>
<path d="M50.7105 26.8771C54.7291 26.8771 57.9991 23.607 57.9991 19.5875C57.9991 15.5679 54.7291 12.2989 50.7105 12.2989C46.6919 12.2989 43.4219 15.5679 43.4219 19.5875C43.4219 23.607 46.6919 26.8771 50.7105 26.8771ZM50.7105 17.1815C52.0371 17.1815 53.1165 18.2609 53.1165 19.5875C53.1165 20.915 52.0371 21.9934 50.7105 21.9934C49.3839 21.9934 48.3045 20.915 48.3045 19.5875C48.3045 18.2609 49.3839 17.1815 50.7105 17.1815Z" fill="#B2DE61"/>
<path d="M91.4673 47.7194C91.4673 49.0679 92.5606 50.1612 93.9091 50.1612H109.959C111.308 50.1612 112.401 49.0679 112.401 47.7194C112.401 46.3709 111.308 45.2776 109.959 45.2776H93.9091C92.5606 45.2776 91.4673 46.3709 91.4673 47.7194Z" fill="#B2DE61"/>
<path d="M80.0102 41.5281C81.3587 41.5281 82.452 40.4348 82.452 39.0863V36.9435C82.452 35.595 81.3587 34.5016 80.0102 34.5016C78.6617 34.5016 77.5684 35.595 77.5684 36.9435V39.0863C77.5684 40.4348 78.6617 41.5281 80.0102 41.5281Z" fill="#B2DE61"/>
<path d="M78.2242 77.1031C75.7077 78.6131 73.5339 79.9167 68.9403 79.9167C64.3467 79.9167 62.1729 78.6131 59.6563 77.1031C56.9145 75.4576 53.8059 73.5929 47.8588 73.5929C41.9117 73.5929 38.8031 75.4576 36.0613 77.1031C33.5447 78.6131 31.37 79.9167 26.7753 79.9167C22.1807 79.9167 20.007 78.6131 17.4894 77.1031C14.7466 75.4576 11.6379 73.5929 5.69084 73.5929C4.34235 73.5929 3.25 74.6862 3.25 76.0347C3.25 77.3832 4.34235 78.4765 5.69084 78.4765C10.2865 78.4765 12.4602 79.7802 14.9778 81.2911C17.7196 82.9356 20.8282 84.8004 26.7753 84.8004C32.7224 84.8004 35.831 82.9356 38.5729 81.2911C41.0904 79.7802 43.2642 78.4765 47.8588 78.4765C52.4534 78.4765 54.6272 79.7802 57.1438 81.2901C59.8856 82.9356 62.9942 84.8004 68.9403 84.8004C74.8864 84.8004 77.994 82.9356 80.7368 81.2901C81.9817 80.5426 83.1448 79.847 84.5571 79.3337C84.0488 77.7938 83.6989 76.1852 83.5145 74.5307C81.3637 75.2224 79.7372 76.1952 78.2242 77.1031Z" fill="#B2DE61"/>
<path d="M5.69183 61.7166C10.2865 61.7166 12.4602 63.0212 14.9778 64.5312C17.7206 66.1767 20.8282 68.0414 26.7753 68.0414C32.7234 68.0414 35.831 66.1767 38.5739 64.5312C41.0914 63.0212 43.2652 61.7166 47.8598 61.7166C52.4534 61.7166 54.6272 63.0212 57.1438 64.5312C58.3936 65.2807 59.7231 66.075 61.3597 66.7189V61.3319C60.7876 61.0209 60.2304 60.688 59.6563 60.3442C56.9145 58.6987 53.8059 56.8339 47.8598 56.8339C41.9127 56.8339 38.8041 58.6987 36.0613 60.3442C33.5447 61.8541 31.37 63.1588 26.7753 63.1588C22.1807 63.1588 20.007 61.8541 17.4904 60.3442C14.7475 58.6987 11.6389 56.8339 5.69183 56.8339C4.34334 56.8339 3.25 57.9263 3.25 59.2748C3.25 60.6233 4.34334 61.7166 5.69183 61.7166Z" fill="#B2DE61"/>
<path d="M105.167 57.1877C96.1216 57.1877 88.7612 64.5471 88.7612 73.5939C88.7612 82.6396 96.1216 90 105.167 90C114.213 90 121.573 82.6396 121.573 73.5939C121.573 64.5471 114.213 57.1877 105.167 57.1877V57.1877ZM105.167 85.0167C98.8694 85.0167 93.7446 79.8918 93.7446 73.5939C93.7446 67.2949 98.8694 62.1711 105.167 62.1711C111.465 62.1711 116.59 67.2949 116.59 73.5939C116.59 79.8918 111.465 85.0167 105.167 85.0167Z" fill="#B2DE61"/>
<path d="M105.81 72.5573C103.789 71.8646 103.156 71.3434 103.156 70.4155C103.156 69.4776 103.716 68.8577 104.973 68.8577C106.028 68.8577 106.577 69.2683 106.821 69.8384C107.005 70.271 107.402 70.572 107.87 70.572C108.708 70.572 109.299 69.66 108.873 68.9384C108.402 68.1411 107.508 67.5909 106.052 67.4145V66.971C106.052 66.4547 105.634 66.0371 105.118 66.0371C104.603 66.0371 104.185 66.4547 104.185 66.971V67.4006C102.091 67.6438 100.747 68.8268 100.747 70.557C100.747 72.4796 101.905 73.3477 104.692 74.2975C106.556 74.9503 107.144 75.5125 107.144 76.5789C107.144 77.7141 106.393 78.2852 105.116 78.2852C103.896 78.2852 103.281 77.7898 103.024 77.0732C102.866 76.6337 102.445 76.3457 101.979 76.3457H101.913C101.073 76.3457 100.511 77.2447 100.908 77.9852C101.421 78.945 102.448 79.5928 104.185 79.7503V80.2157C104.185 80.731 104.603 81.1496 105.118 81.1496C105.634 81.1496 106.052 80.731 106.052 80.2157V79.7313C108.451 79.4592 109.588 78.1855 109.588 76.3646C109.588 74.5497 108.557 73.4862 105.81 72.5573Z" fill="#B2DE61"/>
</g>
</svg>
