<svg width="48" height="47" viewBox="0 0 48 47" fill="none" xmlns="http://www.w3.org/2000/svg">
<path d="M38.0356 22.2886C32.8257 22.2886 28.5869 26.5274 28.5869 31.7372C28.5869 36.9471 32.8257 41.1854 38.0356 41.1854C43.245 41.1854 47.4838 36.9471 47.4838 31.7372C47.4838 26.5274 43.245 22.2886 38.0356 22.2886ZM38.0356 38.9407C34.0629 38.9407 30.8317 35.7093 30.8317 31.7372C30.8317 27.7646 34.0629 24.5332 38.0356 24.5332C42.0077 24.5332 45.2392 27.7646 45.2392 31.7372C45.2392 35.7093 42.0077 38.9407 38.0356 38.9407Z" fill="white"/>
<path d="M39.9829 29.0945L37.1076 31.9084L36.0909 30.9134C35.6261 30.4581 34.8728 30.4585 34.4076 30.913C33.9423 31.3683 33.9423 32.1059 34.4076 32.5608L36.2656 34.3797C36.4891 34.5982 36.7918 34.7208 37.1076 34.7208C37.4232 34.7208 37.7262 34.5982 37.949 34.3797L41.6662 30.7424C42.1315 30.2875 42.1315 29.5498 41.6662 29.0945C41.2015 28.6397 40.4481 28.6397 39.9829 29.0945Z" fill="white"/>
<mask id="mask0_220_410" style="mask-type:alpha" maskUnits="userSpaceOnUse" x="0" y="0" width="46" height="47">
<path d="M0 0H45.0619V47H0V0Z" fill="black"/>
</mask>
<g mask="url(#mask0_220_410)">
<path d="M32.4334 47H6.90202C3.09652 47 0 43.9278 0 40.1514V6.86283C0 3.07865 3.09652 0 6.90202 0H19.5006C21.0553 0 22.5352 0.335594 23.8977 0.996415C24.9325 1.45446 25.9282 2.14055 26.8046 3.01257L36.3047 12.4435C37.1609 13.2942 37.8523 14.2821 38.3625 15.3796C38.7398 16.1921 38.3834 17.1541 37.5662 17.5293C36.7491 17.9038 35.782 17.55 35.4048 16.7376C35.0607 15.9984 34.5759 15.3058 34.0018 14.735L24.5018 5.30407C23.9068 4.71257 23.2402 4.25064 22.5202 3.9306C21.5558 3.46413 20.5562 3.23932 19.5006 3.23932H6.90202C4.8924 3.23932 3.25813 4.86482 3.25813 6.86283V40.1514C3.25813 42.1417 4.8924 43.7607 6.90202 43.7607H32.4334C33.3332 43.7607 34.0624 44.4857 34.0624 45.3803C34.0624 46.2751 33.3332 47 32.4334 47Z" fill="white"/>
<path d="M36.8838 17.6783H23.1848C22.2848 17.6783 21.5557 16.9533 21.5557 16.0586V2.45213C21.5557 1.90273 21.8352 1.39157 22.2985 1.0929C22.7612 0.794235 23.345 0.748891 23.8488 0.973052C24.9324 1.45377 25.9268 2.13985 26.8052 3.01188L36.3059 12.4441C37.1614 13.2948 37.8535 14.2821 38.363 15.3796C38.5957 15.881 38.5559 16.4661 38.2569 16.9312C37.9571 17.3964 37.4397 17.6783 36.8838 17.6783ZM24.8138 14.4389H33.7039L24.8138 5.61241V14.4389Z" fill="white"/>
<path d="M14.7558 13.5513H8.77653C7.8766 13.5513 7.14746 12.827 7.14746 11.9316C7.14746 11.037 7.8766 10.312 8.77653 10.312H14.7558C15.6557 10.312 16.3849 11.037 16.3849 11.9316C16.3849 12.827 15.6557 13.5513 14.7558 13.5513Z" fill="white"/>
<path d="M14.7558 21.4483H8.77653C7.8766 21.4483 7.14746 20.7233 7.14746 19.8287C7.14746 18.9339 7.8766 18.209 8.77653 18.209H14.7558C15.6557 18.209 16.3849 18.9339 16.3849 19.8287C16.3849 20.7233 15.6557 21.4483 14.7558 21.4483Z" fill="white"/>
<path d="M23.6792 38.9262H13.3725C9.93966 38.9262 7.14746 36.1501 7.14746 32.7372C7.14746 29.3249 9.93966 26.5488 13.3725 26.5488H23.6792C24.5791 26.5488 25.3083 27.2738 25.3083 28.1684C25.3083 29.0625 24.5791 29.7881 23.6792 29.7881H13.3725C11.7362 29.7881 10.4056 31.1111 10.4056 32.7372C10.4056 34.364 11.7362 35.6869 13.3725 35.6869H23.6792C24.5791 35.6869 25.3083 36.4119 25.3083 37.3066C25.3083 38.2013 24.5791 38.9262 23.6792 38.9262Z" fill="white"/>
</g>
</svg>
