<svg preserveAspectRatio="xMidYMid meet"   overflow="visible" style="display: block;" viewBox="0 0 20 14.4621" fill="none" xmlns="http://www.w3.org/2000/svg">
<g id="Grupo 8943">
<mask id="mask0_0_37" style="mask-type:alpha" maskUnits="userSpaceOnUse" x="0" y="0" width="20" height="15">
<path id="Rect&#195;&#161;ngulo 3729" d="M0 0H20V14.4621H0V0Z" fill="var(--fill-0, black)"/>
</mask>
<g mask="url(#mask0_0_37)">
<path id="Trazado 8204" d="M19.9116 6.90884C18.7365 4.93351 17.3796 3.3596 15.9017 2.22036L17.0465 1.07558C17.2924 0.829391 17.2924 0.430747 17.0465 0.184807C16.8003 -0.061385 16.4016 -0.061385 16.1557 0.184807L14.8466 1.49388C13.3193 0.5643 11.6849 0.0764522 9.99987 0.0764522C6.22938 0.0764522 2.70937 2.50309 0.0886996 6.90884C-0.0294825 7.10741 -0.0294825 7.35461 0.0886996 7.55317C1.26372 9.52851 2.62042 11.1024 4.09858 12.2417L2.95355 13.3867C2.70761 13.6329 2.70761 14.0315 2.95355 14.2775C3.07652 14.4007 3.23779 14.4622 3.39906 14.4622C3.56008 14.4622 3.72135 14.4007 3.84432 14.2775L5.15365 12.9684C6.68069 13.8977 8.31483 14.3858 9.99987 14.3858H10.0001C13.7704 14.3858 17.2909 11.9589 19.9116 7.55317C20.0297 7.35461 20.0297 7.10741 19.9116 6.90884V6.90884ZM1.36703 7.23088C3.72639 3.42612 6.78124 1.33639 9.99987 1.33639C11.35 1.33639 12.6707 1.70858 13.9238 2.41641L12.2007 4.1395C11.5791 3.6955 10.8206 3.43141 10.0001 3.43141C7.9051 3.43141 6.20066 5.13611 6.20066 7.23113C6.20066 8.05161 6.46474 8.81009 6.90849 9.43174L4.99943 11.3411C3.677 10.3538 2.44831 8.97489 1.36703 7.23088V7.23088ZM12.5397 7.23113C12.5397 8.63143 11.4004 9.77092 10.0001 9.77092C9.52815 9.77092 9.08718 9.63888 8.70819 9.4136L12.1826 5.93919C12.4079 6.31844 12.5397 6.75916 12.5397 7.23113V7.23113ZM7.4606 7.23113C7.4606 5.83084 8.59983 4.69135 10.0001 4.69135C10.4721 4.69135 10.9128 4.82314 11.2918 5.04842L7.81741 8.52282C7.59238 8.14383 7.4606 7.70311 7.4606 7.23113V7.23113ZM9.99987 13.1259C8.64973 13.1259 7.32931 12.7534 6.07618 12.0459L7.79927 10.3225C8.42092 10.7665 9.17965 11.0309 10.0001 11.0309C12.0952 11.0309 13.7996 9.32641 13.7996 7.23113C13.7996 6.41066 13.5355 5.65218 13.0915 5.03028L15.0008 3.12122C16.3232 4.1085 17.5517 5.48713 18.6332 7.23088C16.2736 11.0361 13.2188 13.1259 9.99987 13.1259Z" fill="var(--fill-0, #FFF8EA)"/>
</g>
</g>
</svg>
