<svg xmlns="http://www.w3.org/2000/svg" width="66" height="63" viewBox="0 0 66 63" fill="none">
  <mask id="mask0_1_4347" style="mask-type:alpha" maskUnits="userSpaceOnUse" x="0" y="0" width="66" height="63">
    <path d="M0 0H65.0129V62.4717H0V0Z" fill="black"/>
  </mask>
  <g mask="url(#mask0_1_4347)">
    <path d="M63.0263 30.1056C64.8273 28.3505 65.4646 25.7734 64.6864 23.3811C63.9103 20.9877 61.8815 19.2766 59.3903 18.915L45.6945 16.9252C45.1841 16.8513 44.7425 16.5297 44.5148 16.0672L38.3896 3.65794C37.2758 1.40144 35.0213 0 32.5061 0C29.9909 0 27.7354 1.40144 26.6227 3.65794L20.4974 16.0672C20.2687 16.5297 19.8282 16.8513 19.3178 16.9252L5.62195 18.915C3.13272 19.2766 1.10297 20.9877 0.325831 23.3811C-0.451307 25.7724 0.184987 28.3495 1.98599 30.1056L11.897 39.7659C12.2666 40.1255 12.4344 40.6449 12.3475 41.1533L10.0081 54.7932C9.58256 57.2724 10.5825 59.7317 12.6182 61.2111C13.7679 62.0471 15.1124 62.4717 16.4679 62.4717C17.5108 62.4717 18.5586 62.22 19.5265 61.7105L31.7769 55.2707C32.2324 55.0299 32.7778 55.0299 33.2353 55.2707L45.4857 61.7105C47.7133 62.8812 50.3593 62.6894 52.3951 61.2121C54.4298 59.7327 55.4307 57.2734 55.0052 54.7932L52.6648 41.1553C52.5779 40.6449 52.7467 40.1255 53.1153 39.7659L63.0263 30.1056ZM49.6281 36.1908C48.0838 37.6972 47.3786 39.8678 47.7422 41.9974L50.0826 55.6373C50.2315 56.5043 49.6951 56.9988 49.4583 57.1706C49.2216 57.3424 48.5843 57.697 47.8091 57.2894L35.5597 50.8496C33.6479 49.8447 31.3654 49.8447 29.4535 50.8496L17.2031 57.2894C16.425 57.699 15.7907 57.3434 15.5539 57.1706C15.3162 56.9988 14.7818 56.5043 14.9306 55.6383L17.269 41.9974C17.6356 39.8688 16.9304 37.6972 15.3831 36.1898L5.47212 26.5296C4.84282 25.9162 4.98566 25.202 5.07556 24.9243C5.16646 24.6447 5.47112 23.9834 6.34016 23.8565L20.036 21.8667C22.1736 21.5571 24.0205 20.2156 24.9765 18.2777L31.1017 5.86849C31.4912 5.07936 32.2125 4.99446 32.5061 4.99446C32.7988 4.99446 33.521 5.07936 33.9106 5.86849L40.0348 18.2777C40.9917 20.2156 42.8387 21.5571 44.9763 21.8667L58.6721 23.8565C59.5421 23.9834 59.8458 24.6447 59.9367 24.9243C60.0266 25.202 60.1694 25.9162 59.5401 26.5296L49.6281 36.1908Z" fill="#FFF8EA"/>
  </g>
</svg>
