<svg preserveAspectRatio="xMidYMid meet"   overflow="visible" style="display: block;" viewBox="0 0 20 20" fill="none" xmlns="http://www.w3.org/2000/svg">
<g id="Grupo 9048">
<mask id="mask0_0_20" style="mask-type:alpha" maskUnits="userSpaceOnUse" x="0" y="0" width="20" height="20">
<path id="Rect&#195;&#161;ngulo 3804" d="M0 0H20V20H0V0Z" fill="var(--fill-0, black)"/>
</mask>
<g mask="url(#mask0_0_20)">
<path id="Trazado 8279" d="M19.7873 18.7598L14.4663 13.4388C15.6578 12.0162 16.3771 10.185 16.3771 8.18844C16.3771 3.67305 12.7037 -0.000117515 8.18856 -0.000117515C3.67346 -0.000117515 -5.54317e-07 3.67305 -5.54317e-07 8.18844C-5.54317e-07 12.7035 3.67346 16.377 8.18856 16.377C10.1851 16.377 12.0163 15.6577 13.4389 14.4662L18.7599 19.7872C18.9017 19.929 19.0877 19.9999 19.2734 19.9999C19.4594 19.9999 19.6454 19.929 19.7873 19.7872C20.0712 19.5035 20.0712 19.0434 19.7873 18.7598V18.7598ZM1.45311 8.18844C1.45311 4.47458 4.47441 1.45299 8.18856 1.45299C11.9024 1.45299 14.924 4.47458 14.924 8.18844C14.924 11.9023 11.9024 14.9239 8.18856 14.9239C4.47441 14.9239 1.45311 11.9023 1.45311 8.18844Z" fill="var(--fill-0, #FFF8EA)"/>
</g>
</g>
</svg>
