<svg xmlns="http://www.w3.org/2000/svg" width="20" height="25" viewBox="0 0 20 25" fill="none">
  <mask id="mask0_95_460" style="mask-type:alpha" maskUnits="userSpaceOnUse" x="0" y="0" width="20" height="25">
    <path d="M0 0H19.8882V25H0V0Z" fill="black"/>
  </mask>
  <g mask="url(#mask0_95_460)">
    <path d="M13.6294 8.97034H4.93195C4.44196 8.97034 4.04492 9.36737 4.04492 9.85737C4.04492 10.3474 4.44196 10.7444 4.93195 10.7444H13.6294C14.1194 10.7444 14.5165 10.3474 14.5165 9.85737C14.5165 9.36737 14.1194 8.97034 13.6294 8.97034Z" fill="#FFF8EA"/>
    <path d="M13.6294 4.74664H4.93195C4.44196 4.74664 4.04492 5.14368 4.04492 5.63367C4.04492 6.12366 4.44196 6.5207 4.93195 6.5207H13.6294C14.1194 6.5207 14.5165 6.12366 14.5165 5.63367C14.5165 5.14368 14.1194 4.74664 13.6294 4.74664Z" fill="#FFF8EA"/>
    <path d="M13.2416 23.2259H5.40555C3.40299 23.2259 1.77406 21.5967 1.77406 19.5941V5.4059C1.77406 3.40335 3.40299 1.77406 5.40555 1.77406H13.1557C15.1579 1.77406 16.7872 3.40335 16.7872 5.4059V11.0442C16.7872 11.5338 17.1842 11.9312 17.6742 11.9312C18.1642 11.9312 18.5612 11.5338 18.5612 11.0442V5.4059C18.5612 2.42513 16.1361 0 13.1557 0H5.40555C2.42513 0 0 2.42513 0 5.4059V19.5941C0 22.5749 2.42513 25 5.40555 25H13.2416C13.7316 25 14.1286 24.603 14.1286 24.113C14.1286 23.623 13.7316 23.2259 13.2416 23.2259Z" fill="#FFF8EA"/>
    <path d="M19.179 13.6772H6.7897C6.39764 13.6772 6.08008 13.9948 6.08008 14.3869V21.2936C6.08008 21.6853 6.39764 22.0032 6.7897 22.0032H19.179C19.5711 22.0032 19.8886 21.6853 19.8886 21.2936V14.3869C19.8886 13.9948 19.5711 13.6772 19.179 13.6772V13.6772ZM18.4694 20.584H7.49897V15.0965H18.4694V20.584Z" fill="#FFF8EA"/>
    <path d="M11.106 18.6628H9.90138V16.705H9.1875V19.2291H11.106V18.6628Z" fill="#FFF8EA"/>
    <path d="M12.6213 19.2794C13.4289 19.2794 14.0239 18.7244 14.0239 17.9673C14.0239 17.2098 13.4289 16.6545 12.6213 16.6545C11.8138 16.6545 11.2188 17.2098 11.2188 17.9673C11.2188 18.7244 11.8138 19.2794 12.6213 19.2794V19.2794ZM12.6213 17.2459C13.0035 17.2459 13.3029 17.5309 13.3029 17.9673C13.3029 18.4033 13.0035 18.6883 12.6213 18.6883C12.2392 18.6883 11.9397 18.4033 11.9397 17.9673C11.9397 17.5309 12.2392 17.2459 12.6213 17.2459Z" fill="#FFF8EA"/>
    <path d="M15.6634 19.2794C16.031 19.2794 16.4312 19.1676 16.7232 18.9586V17.9126H16.0924V18.6052C15.9664 18.6627 15.8401 18.6879 15.7067 18.6879C15.2813 18.6879 14.9925 18.3923 14.9925 17.9669C14.9925 17.5305 15.2813 17.2459 15.7138 17.2459C15.9554 17.2459 16.1538 17.3357 16.3265 17.527L16.7811 17.1161C16.5323 16.8166 16.1499 16.6545 15.6776 16.6545C14.8591 16.6545 14.2715 17.1991 14.2715 17.9669C14.2715 18.7351 14.8591 19.2794 15.6634 19.2794Z" fill="#FFF8EA"/>
  </g>
</svg>
