<svg preserveAspectRatio="xMidYMid meet"   overflow="visible" style="display: block;" viewBox="0 0 25 25" fill="none" xmlns="http://www.w3.org/2000/svg">
<g id="Grupo 9780">
<mask id="mask0_0_92" style="mask-type:alpha" maskUnits="userSpaceOnUse" x="0" y="0" width="25" height="25">
<path id="Rect&#195;&#161;ngulo 4129" d="M0 0H25V25H0V0Z" fill="var(--fill-0, black)"/>
</mask>
<g mask="url(#mask0_0_92)">
<path id="Trazado 8837" d="M12.5 0.000131559C5.60751 0.000131559 0 5.60764 0 12.5001C0 19.3926 5.60751 24.9998 12.5 24.9998C19.3925 24.9998 25 19.3926 25 12.5001C25 5.60764 19.3925 0.000131559 12.5 0.000131559ZM12.5 23.3418C11.4415 23.3418 10.0832 21.2155 9.40111 17.53C10.4228 17.6344 11.4667 17.6888 12.5 17.6888C13.5336 17.6888 14.5775 17.6344 15.5992 17.53C14.9171 21.2155 13.5585 23.3418 12.5 23.3418V23.3418ZM12.5 16.0308C11.2979 16.0308 10.1804 15.9638 9.15307 15.8474C9.03634 14.8197 8.96969 13.7025 8.96969 12.5001C8.96969 11.2977 9.03634 10.1802 9.15307 9.15287C10.1804 9.03615 11.2979 8.96949 12.5 8.96949C13.7024 8.96949 14.8199 9.03615 15.8473 9.15287C15.964 10.1802 16.0306 11.2977 16.0306 12.5001C16.0306 13.7025 15.964 14.8197 15.8473 15.8471C14.8199 15.9638 13.7024 16.0308 12.5 16.0308V16.0308ZM7.47016 15.599C3.78465 14.9169 1.65804 13.5586 1.65804 12.5001C1.65804 11.4416 3.78465 10.083 7.47016 9.40092C7.3657 10.4226 7.31165 11.4665 7.31165 12.5001C7.31165 13.5334 7.3657 14.5773 7.47016 15.599V15.599ZM12.5 1.65818C13.5585 1.65818 14.9171 3.78445 15.5992 7.46995C14.5775 7.3655 13.5336 7.31145 12.5 7.31145C11.4667 7.31145 10.4228 7.3655 9.40111 7.46995C10.0832 3.78445 11.4415 1.65818 12.5 1.65818V1.65818ZM17.5302 9.40092C21.2157 10.083 23.342 11.4416 23.342 12.5001C23.342 13.5586 21.2157 14.9169 17.5302 15.599C17.6346 14.5773 17.6887 13.5334 17.6887 12.5001C17.6887 11.4668 17.6346 10.4226 17.5302 9.40092V9.40092ZM22.9301 9.54749C21.5227 8.68331 19.5195 8.06155 17.3037 7.69644C16.9386 5.48063 16.3168 3.47705 15.4526 2.07003C19.0606 3.09305 21.9071 5.93958 22.9301 9.54749V9.54749ZM9.54769 2.07003C8.68351 3.47705 8.06175 5.4803 7.69664 7.69644C5.4805 8.06155 3.47725 8.68331 2.07023 9.54749C3.09292 5.93958 5.93978 3.09305 9.54769 2.07003V2.07003ZM2.07023 15.4528C3.47725 16.317 5.4805 16.9387 7.69664 17.3038C8.06175 19.5196 8.68351 21.5229 9.54769 22.9299C5.93978 21.9072 3.09292 19.0604 2.07023 15.4528V15.4528ZM15.4526 22.9299C16.3168 21.5229 16.9386 19.5196 17.3037 17.3038C19.5195 16.9387 21.5227 16.317 22.9301 15.4528C21.9071 19.0604 19.0606 21.9069 15.4526 22.9299Z" fill="var(--fill-0, #B2DE61)"/>
</g>
</g>
</svg>
