<svg preserveAspectRatio="xMidYMid meet"   overflow="visible" style="display: block;" viewBox="0 0 65 48.5465" fill="none" xmlns="http://www.w3.org/2000/svg">
<g id="Grupo 9195">
<mask id="mask0_0_4" style="mask-type:alpha" maskUnits="userSpaceOnUse" x="0" y="0" width="65" height="49">

</mask>
<g mask="url(#mask0_0_4)">
<path id="Trazado 8380" d="M9.14394 11.9396V25.7967C9.14394 25.8392 9.15289 25.8789 9.15625 25.9203H3.25839C2.48628 25.9203 1.86066 26.5459 1.86066 27.318C1.86066 28.0901 2.48628 28.7157 3.25839 28.7157H36.2448V39.4609C36.2448 40.2325 36.8704 40.8586 37.6425 40.8586C38.4141 40.8586 39.0403 40.2325 39.0403 39.4609V36.8198H48.6678V39.4609C48.6678 40.2325 49.2934 40.8586 50.0655 40.8586C50.8376 40.8586 51.4633 40.2325 51.4633 39.4609V14.1033C51.4633 12.4635 52.7973 11.1295 54.4365 11.1295C56.0763 11.1295 57.4103 12.4635 57.4103 14.1033V22.5389C57.4103 23.3104 58.0359 23.9366 58.8081 23.9366C59.5796 23.9366 60.2058 23.3104 60.2058 22.5389V14.1033C60.2058 10.9221 57.6178 8.33405 54.4365 8.33405C51.2558 8.33405 48.6678 10.9221 48.6678 14.1033V16.8462H39.0403V14.1033C39.0403 12.4635 40.3737 11.1295 42.0129 11.1295C43.6528 11.1295 44.9868 12.4635 44.9868 14.1033C44.9868 14.8749 45.6124 15.501 46.3845 15.501C47.1566 15.501 47.7822 14.8749 47.7822 14.1033C47.7822 10.9221 45.1942 8.33405 42.0129 8.33405C38.8323 8.33405 36.2448 10.9221 36.2448 14.1033V25.9203H29.401V24.6506H33.6651C34.4373 24.6506 35.0629 24.025 35.0629 23.2528C35.0629 22.4813 34.4373 21.8551 33.6651 21.8551H18.6899L16.4664 19.6322C15.9213 19.0865 15.0357 19.0865 14.49 19.6322C13.9437 20.1778 13.9437 21.0629 14.49 21.6086L17.1222 24.2413C17.3844 24.5035 17.74 24.6506 18.1107 24.6506H19.8992V25.9203H11.9271C11.9305 25.8789 11.9394 25.8392 11.9394 25.7967V11.9396H19.6856C20.4577 11.9396 21.0833 11.314 21.0833 10.5419C21.0833 4.72958 16.354 0.000226073 10.5417 0.000226073C4.7288 0.000226073 0 4.72958 0 10.5419C0 11.314 0.625624 11.9396 1.39773 11.9396H9.14394ZM48.6678 19.6417V25.9203H41.0166C40.2445 25.9203 39.6189 26.5459 39.6189 27.318C39.6189 28.0901 40.2445 28.7157 41.0166 28.7157H48.6678V34.0243H39.0403V19.6417H48.6678ZM22.6946 24.6506H26.6055V25.9203H22.6946V24.6506ZM7.59862 9.14417C7.78423 6.76803 8.42272 4.94092 9.14394 3.87026V9.14417H7.59862ZM11.9394 3.87026C12.6606 4.94092 13.2991 6.76803 13.4847 9.14417H11.9394V3.87026ZM18.1615 9.14417H16.2863C16.17 7.40036 15.8396 5.81366 15.337 4.47072C16.7828 5.61518 17.8166 7.25891 18.1615 9.14417V9.14417ZM5.74634 4.47072C5.24316 5.81366 4.9133 7.40036 4.79701 9.14417H2.92181C3.26677 7.25891 4.30053 5.61518 5.74634 4.47072Z" fill="var(--fill-0, #B2DE61)"/>
<path id="Trazado 8381" d="M29.0303 15.3864C31.3309 15.3864 33.2028 13.5146 33.2028 11.2139C33.2028 8.91271 31.3309 7.04087 29.0303 7.04087C26.7296 7.04087 24.8578 8.91271 24.8578 11.2139C24.8578 13.5146 26.7296 15.3864 29.0303 15.3864V15.3864ZM29.0303 9.83633C29.7895 9.83633 30.4073 10.4541 30.4073 11.2139C30.4073 11.9732 29.7895 12.591 29.0303 12.591C28.271 12.591 27.6532 11.9732 27.6532 11.2139C27.6532 10.4541 28.271 9.83633 29.0303 9.83633Z" fill="var(--fill-0, #B2DE61)"/>
<path id="Trazado 8382" d="M52.3629 27.318C52.3629 28.0901 52.9885 28.7157 53.7606 28.7157H62.9493C63.7208 28.7157 64.347 28.0901 64.347 27.318C64.347 26.5459 63.7208 25.9203 62.9493 25.9203H53.7606C52.9885 25.9203 52.3629 26.5459 52.3629 27.318Z" fill="var(--fill-0, #B2DE61)"/>
<path id="Trazado 8383" d="M45.8042 23.7739C46.5763 23.7739 47.2019 23.1483 47.2019 22.3762V21.149C47.2019 20.3769 46.5763 19.7513 45.8042 19.7513C45.032 19.7513 44.4064 20.3769 44.4064 21.149V22.3762C44.4064 23.1483 45.032 23.7739 45.8042 23.7739Z" fill="var(--fill-0, #B2DE61)"/>
<path id="Trazado 8384" d="M63.6023 45.7513C60.9723 45.7513 59.7283 45.0049 58.2875 44.1405C56.7176 43.1984 54.9386 42.1306 51.5343 42.1306C48.13 42.1306 46.3509 43.1984 44.781 44.1405C43.3402 45.0049 42.0962 45.7513 39.4668 45.7513C36.8363 45.7513 35.5923 45.0049 34.1516 44.1405C32.5816 43.1984 30.802 42.1306 27.3983 42.1306C23.9934 42.1306 22.2138 43.1984 20.6439 44.1405C19.2031 45.0049 17.9586 45.7513 15.3281 45.7513C12.6975 45.7513 11.4536 45.0049 10.0122 44.14C8.44229 43.1984 6.6627 42.1306 3.25783 42.1306C2.48628 42.1306 1.8601 42.7568 1.8601 43.5283C1.8601 44.3004 2.48628 44.926 3.25783 44.926C5.88835 44.926 7.13289 45.673 8.57423 46.5373C10.1442 47.4794 11.9237 48.5467 15.3281 48.5467C18.7329 48.5467 20.512 47.4794 22.0819 46.5373C23.5232 45.673 24.7678 44.926 27.3983 44.926C30.0283 44.926 31.2722 45.673 32.713 46.5373C34.2829 47.4794 36.0625 48.5467 39.4668 48.5467C42.8706 48.5467 44.6496 47.4794 46.2195 46.5373C47.6603 45.673 48.9043 44.926 51.5343 44.926C54.1642 44.926 55.4082 45.673 56.849 46.5373C58.4189 47.4794 60.198 48.5467 63.6023 48.5467C64.3744 48.5467 65 47.9211 65 47.149C65 46.3769 64.3744 45.7513 63.6023 45.7513Z" fill="var(--fill-0, #B2DE61)"/>
<path id="Trazado 8385" d="M20.6439 34.5454C19.2031 35.4097 17.958 36.1567 15.3286 36.1567C12.6975 36.1567 11.4536 35.4097 10.0122 34.5454C8.44284 33.6033 6.6627 32.536 3.25783 32.536C2.48572 32.536 1.8601 33.1616 1.8601 33.9337C1.8601 34.7058 2.48572 35.3315 3.25783 35.3315C5.88835 35.3315 7.13289 36.0779 8.57479 36.9428C10.1442 37.8843 11.9232 38.9521 15.3286 38.9521C18.7335 38.9521 20.512 37.8843 22.0819 36.9428C23.5238 36.0779 24.7678 35.3315 27.3988 35.3315C30.0277 35.3315 31.2728 36.0779 32.713 36.9428C33.4292 37.3716 34.1901 37.8261 35.1261 38.1946V35.1106C34.7995 34.9334 34.4803 34.7427 34.151 34.5454C32.5816 33.6033 30.802 32.536 27.3988 32.536C23.994 32.536 22.2138 33.6033 20.6439 34.5454Z" fill="var(--fill-0, #B2DE61)"/>
<path id="Trazado 8386" d="M58.2876 34.5454C56.8591 33.6883 55.2522 32.7295 52.4087 32.5634V35.3622C54.4594 35.5098 55.5787 36.1802 56.8496 36.9428C58.4189 37.8843 60.198 38.9521 63.6023 38.9521C64.3744 38.9521 65 38.3265 65 37.5544C65 36.7823 64.3744 36.1567 63.6023 36.1567C60.9729 36.1567 59.7283 35.4097 58.2876 34.5454Z" fill="var(--fill-0, #B2DE61)"/>
</g>
</g>
</svg>
