<svg xmlns="http://www.w3.org/2000/svg" width="25" height="25" viewBox="0 0 25 25" fill="none">
  <mask id="mask0_95_365" style="mask-type:alpha" maskUnits="userSpaceOnUse" x="0" y="0" width="25" height="25">
    <path d="M0 -6.10352e-05H25V24.4907H0V-6.10352e-05Z" fill="black"/>
  </mask>
  <g mask="url(#mask0_95_365)">
    <path d="M20.3618 15.2156C17.8047 15.2156 15.7246 17.2957 15.7246 19.8532C15.7246 22.4103 17.8047 24.4908 20.3618 24.4908C22.9189 24.4908 24.9994 22.4103 24.9994 19.8532C24.9994 17.2957 22.9189 15.2156 20.3618 15.2156V15.2156ZM20.3618 22.9741C18.6412 22.9741 17.2413 21.5742 17.2413 19.8532C17.2413 18.1321 18.6412 16.7322 20.3618 16.7322C22.0829 16.7322 23.4827 18.1321 23.4827 19.8532C23.4827 21.5742 22.0829 22.9741 20.3618 22.9741Z" fill="#FFF8EA"/>
    <path d="M21.7418 19.0949H21.1203V18.4738C21.1203 18.0548 20.781 17.7155 20.362 17.7155C19.9434 17.7155 19.6036 18.0548 19.6036 18.4738V19.0949H18.9829C18.564 19.0949 18.2246 19.4346 18.2246 19.8532C18.2246 20.2718 18.564 20.6115 18.9829 20.6115H19.6036V21.2326C19.6036 21.6516 19.9434 21.9909 20.362 21.9909C20.781 21.9909 21.1203 21.6516 21.1203 21.2326V20.6115H21.7418C22.1604 20.6115 22.5001 20.2718 22.5001 19.8532C22.5001 19.4346 22.1604 19.0949 21.7418 19.0949Z" fill="#FFF8EA"/>
    <path d="M13.1937 6.71507C13.1937 6.19144 12.7694 5.76715 12.2458 5.76715C11.7221 5.76715 11.2979 6.19144 11.2979 6.71507V13.829C11.2979 14.3526 11.7221 14.7769 12.2458 14.7769C12.7694 14.7769 13.1937 14.3526 13.1937 13.829V6.71507Z" fill="#FFF8EA"/>
    <path d="M13.0335 17.2487C12.9993 17.1956 12.9576 17.1501 12.9159 17.1046C12.5633 16.752 11.9301 16.752 11.5737 17.1046C11.532 17.1501 11.4903 17.1956 11.4561 17.2487C11.422 17.3018 11.3955 17.3549 11.3689 17.4117C11.3462 17.4686 11.3272 17.5293 11.3158 17.59C11.3045 17.6506 11.2969 17.7151 11.2969 17.7757C11.2969 18.026 11.3993 18.2687 11.5737 18.4469C11.7519 18.6213 11.9945 18.7237 12.2448 18.7237C12.495 18.7237 12.7377 18.6213 12.9159 18.4469C13.0903 18.2687 13.1927 18.026 13.1927 17.7757C13.1927 17.7151 13.1851 17.6506 13.1738 17.59C13.1624 17.5293 13.1434 17.4686 13.1207 17.4117C13.0979 17.3549 13.0676 17.3018 13.0335 17.2487Z" fill="#FFF8EA"/>
    <path d="M15.2626 22.5411C14.2806 22.8285 13.2652 22.9741 12.2456 22.9741C6.32944 22.9741 1.51667 18.1613 1.51667 12.2456C1.51667 6.32981 6.32944 1.51667 12.2456 1.51667C18.1613 1.51667 22.9741 6.32981 22.9741 12.2456C22.9741 13.0289 22.8861 13.8184 22.7132 14.5926C22.6222 15.0014 22.8797 15.4067 23.2884 15.4981C23.6964 15.5891 24.1025 15.332 24.1939 14.9233C24.3907 14.0409 24.4908 13.14 24.4908 12.2456C24.4908 5.49337 18.9978 0 12.2456 0C5.49337 0 0 5.49337 0 12.2456C0 18.9974 5.49337 24.4908 12.2456 24.4908C13.4096 24.4908 14.568 24.3247 15.6884 23.9967C16.0907 23.8792 16.3209 23.4579 16.2033 23.056C16.0854 22.6537 15.663 22.4228 15.2626 22.5411Z" fill="#FFF8EA"/>
  </g>
</svg>
