<svg preserveAspectRatio="xMidYMid meet"   overflow="visible" style="display: block;" viewBox="0 0 25 22.1474" fill="none" xmlns="http://www.w3.org/2000/svg">
<g id="Grupo 10173">
<mask id="mask0_0_29" style="mask-type:alpha" maskUnits="userSpaceOnUse" x="0" y="0" width="25" height="23">
<path id="Rect&#195;&#161;ngulo 4498" d="M0 0.000202179H25V22.1475H0V0.000202179Z" fill="var(--fill-0, black)"/>
</mask>
<g mask="url(#mask0_0_29)">
<path id="Trazado 9334" d="M22.1505 0.072687C21.9185 0.024914 21.6782 0.000129557 21.4321 0.000129557H16.7378H3.56789C1.60057 0.000129557 0 1.6007 0 3.56802V16.6862V18.5795C0 20.3011 1.22557 21.7415 2.84986 22.0748C3.0819 22.1226 3.32184 22.1474 3.56789 22.1474H8.26221H21.4321C23.3994 22.1474 25 20.5468 25 18.5795V5.46134V3.56802C25 1.84639 23.7744 0.40602 22.1505 0.072687V0.072687ZM23.204 18.5795C23.204 19.5565 22.4091 20.3514 21.4321 20.3514H8.26221H3.56789C3.32364 20.3514 3.09088 20.3019 2.87895 20.2121C2.24318 19.9427 1.79598 19.3123 1.79598 18.5795V16.6862V3.56802C1.79598 2.59101 2.59088 1.79611 3.56789 1.79611H16.7378H21.4321C21.6764 1.79611 21.9095 1.84568 22.1214 1.93547C22.7568 2.20487 23.204 2.83526 23.204 3.56802V5.46134V18.5795Z" fill="var(--fill-0, #B2DE61)"/>
<path id="Trazado 9335" d="M15.5754 4.56335C15.0794 4.56335 14.6774 4.96529 14.6774 5.46134C14.6774 5.95738 15.0794 6.35932 15.5754 6.35932H20.8915C21.3876 6.35932 21.7895 5.95738 21.7895 5.46134C21.7895 4.96529 21.3876 4.56335 20.8915 4.56335H15.5754Z" fill="var(--fill-0, #B2DE61)"/>
<path id="Trazado 9336" d="M15.5754 9.21601C15.0794 9.21601 14.6774 9.61794 14.6774 10.114C14.6774 10.61 15.0794 11.012 15.5754 11.012H20.8915C21.3876 11.012 21.7895 10.61 21.7895 10.114C21.7895 9.61794 21.3876 9.21601 20.8915 9.21601H15.5754Z" fill="var(--fill-0, #B2DE61)"/>
<path id="Trazado 9337" d="M17.2633 13.8687C16.7672 13.8687 16.3653 14.2706 16.3653 14.7667C16.3653 15.2627 16.7672 15.6646 17.2633 15.6646H20.8912C21.3872 15.6646 21.7892 15.2627 21.7892 14.7667C21.7892 14.2706 21.3872 13.8687 20.8912 13.8687H17.2633Z" fill="var(--fill-0, #B2DE61)"/>
<path id="Trazado 9338" d="M8.48815 11.3223C5.64368 11.3223 3.13506 13.3353 2.52335 16.109C2.40876 16.6276 2.53305 17.1611 2.86351 17.5727C3.18965 17.9789 3.67565 18.2117 4.19648 18.2117H12.7795C13.3006 18.2117 13.7863 17.9789 14.1124 17.5727C14.4432 17.1611 14.5672 16.6276 14.4529 16.109C13.8409 13.3353 11.3326 11.3223 8.48815 11.3223V11.3223ZM12.8951 16.5946C12.8657 16.6312 12.8269 16.6499 12.7795 16.6499H4.19648C4.14943 16.6499 4.11063 16.6312 4.08118 16.5946C4.06178 16.5705 4.03197 16.5195 4.04849 16.4459C4.50395 14.382 6.37105 12.8841 8.48815 12.8841C10.6052 12.8841 12.4723 14.382 12.9278 16.4459C12.9443 16.5195 12.9145 16.5705 12.8951 16.5946Z" fill="var(--fill-0, #B2DE61)"/>
<path id="Trazado 9339" d="M8.48779 9.65674C10.31 9.65674 11.7924 8.17398 11.7924 6.35178C11.7924 4.52958 10.31 3.04718 8.48779 3.04718C6.66595 3.04718 5.18355 4.52958 5.18355 6.35178C5.18355 8.17398 6.66595 9.65674 8.48779 9.65674V9.65674ZM8.48779 4.60897C9.44899 4.60897 10.2306 5.39058 10.2306 6.35178C10.2306 7.31299 9.44899 8.09496 8.48779 8.09496C7.52694 8.09496 6.74533 7.31299 6.74533 6.35178C6.74533 5.39058 7.52694 4.60897 8.48779 4.60897Z" fill="var(--fill-0, #B2DE61)"/>
</g>
</g>
</svg>
