<svg preserveAspectRatio="xMidYMid meet"   overflow="visible" style="display: block;" viewBox="0 0 59.1943 59.2947" fill="none" xmlns="http://www.w3.org/2000/svg">
<g id="Grupo 8984">
<mask id="mask0_0_25" style="mask-type:alpha" maskUnits="userSpaceOnUse" x="0" y="0" width="60" height="60">
<path id="Rect&#195;&#161;ngulo 3759" d="M0 0H59.1943V59.2947H0V0Z" fill="var(--fill-0, black)"/>
</mask>
<g mask="url(#mask0_0_25)">
<path id="Trazado 8222" d="M56.2314 49.443C56.2314 53.2405 53.1417 56.3318 49.3426 56.3318H44.9591C44.1408 56.3318 43.4776 56.995 43.4776 57.8132C43.4776 58.6315 44.1408 59.2947 44.9591 59.2947H49.3426C54.7845 59.2947 59.1943 54.8832 59.1943 49.443V45.0085C59.1943 44.1902 58.5311 43.527 57.7128 43.527C56.8946 43.527 56.2314 44.1902 56.2314 45.0085V49.443ZM49.3426 0H44.9591C44.1408 0 43.4776 0.663201 43.4776 1.48146C43.4776 2.29972 44.1408 2.96292 44.9591 2.96292H47.8611C52.4839 2.96292 56.2314 6.71037 56.2314 11.3332V14.2862C56.2314 15.1045 56.8946 15.7677 57.7128 15.7677C58.5311 15.7677 59.1943 15.1045 59.1943 14.2862V9.85172C59.1943 4.41147 54.7845 0 49.3426 0ZM11.3332 0C5.07401 0 0 5.07401 0 11.3332V14.2862C0 15.1045 0.663201 15.7677 1.48146 15.7677C2.29972 15.7677 2.96292 15.1045 2.96292 14.2862V11.3332C2.96292 6.71037 6.71037 2.96292 11.3332 2.96292H14.2369C15.0551 2.96292 15.7183 2.29972 15.7183 1.48146C15.7183 0.663201 15.0551 0 14.2369 0H11.3332ZM9.85172 56.3318C6.0526 56.3318 2.96292 53.2405 2.96292 49.443V45.0085C2.96292 44.1902 2.29972 43.527 1.48146 43.527C0.663201 43.527 0 44.1902 0 45.0085V47.9615C0 54.2207 5.07401 59.2947 11.3332 59.2947H14.2369C15.0551 59.2947 15.7183 58.6315 15.7183 57.8132C15.7183 56.995 15.0551 56.3318 14.2369 56.3318H9.85172Z" fill="var(--fill-0, #FFF8EA)"/>
<path id="Trazado 8223" d="M17.5555 28.2437C16.7372 28.2437 16.074 27.5806 16.074 26.7623V22.1266C16.074 21.3085 16.7372 20.6452 17.5555 20.6452C18.3738 20.6452 19.037 21.3085 19.037 22.1266V26.7623C19.037 27.5806 18.3738 28.2437 17.5555 28.2437Z" fill="var(--fill-0, #FFF8EA)"/>
<path id="Trazado 8224" d="M41.9645 28.2437C41.1463 28.2437 40.4831 27.5806 40.4831 26.7623V22.1266C40.4831 21.3085 41.1463 20.6452 41.9645 20.6452C42.7828 20.6452 43.446 21.3085 43.446 22.1266V26.7623C43.446 27.5806 42.7828 28.2437 41.9645 28.2437Z" fill="var(--fill-0, #FFF8EA)"/>
<path id="Trazado 8225" d="M28.994 37.2252H27.1707C26.3524 37.2252 25.6892 36.562 25.6892 35.7437C25.6892 34.9255 26.3524 34.2623 27.1707 34.2623H28.994C29.3384 34.2623 29.6185 33.9821 29.6185 33.6378V22.1268C29.6185 21.3085 30.2818 20.6453 31.1 20.6453C31.9183 20.6453 32.5815 21.3085 32.5815 22.1268V33.6378C32.5815 35.6158 30.9723 37.2252 28.994 37.2252Z" fill="var(--fill-0, #FFF8EA)"/>
<path id="Trazado 8226" d="M29.5609 47.9948C25.7384 47.9948 22.1457 46.5051 19.4445 43.8003C18.8182 43.1729 18.8188 42.1568 19.4462 41.5305C20.0735 40.9042 21.0898 40.905 21.7159 41.532C23.8106 43.6297 26.5967 44.7849 29.5609 44.7849C32.5252 44.7849 35.3113 43.6297 37.4063 41.532C38.0324 40.9048 39.0489 40.9042 39.6759 41.5305C40.3032 42.1568 40.3038 43.1731 39.6774 43.8003C36.9762 46.5051 33.3834 47.9948 29.5609 47.9948Z" fill="var(--fill-0, #FFF8EA)"/>
</g>
</g>
</svg>
