<svg width="25" height="25" viewBox="0 0 25 25" fill="none" xmlns="http://www.w3.org/2000/svg">
<mask id="mask0_55_517" style="mask-type:alpha" maskUnits="userSpaceOnUse" x="0" y="0" width="25" height="25">
<path d="M0 0H25V25H0V0Z" fill="black"/>
</mask>
<g mask="url(#mask0_55_517)">
<path d="M25 12.5C25 12.2549 24.9909 12.0122 24.9769 11.7705C24.9712 11.6665 24.9614 11.5626 24.9531 11.4587C24.9433 11.3393 24.9329 11.2206 24.9199 11.1023C24.9118 11.0299 24.9085 10.9574 24.8994 10.885C24.8961 10.8599 24.888 10.8368 24.8827 10.8123C24.0559 4.71549 18.8197 0 12.5 0C5.6073 0 0 5.6073 0 12.5C0 19.3927 5.6073 25 12.5 25C14.7184 25 16.898 24.4109 18.803 23.2969C19.2026 23.0632 19.337 22.5499 19.1034 22.1499C18.87 21.7506 18.3564 21.6168 17.9568 21.8499C16.3083 22.8141 14.4214 23.3237 12.5 23.3237C6.53162 23.3237 1.67632 18.4684 1.67632 12.5C1.67632 6.53162 6.53162 1.67632 12.5 1.67632C18.0654 1.67632 22.6612 5.89898 23.2566 11.3085C23.265 11.3883 23.2724 11.4677 23.2791 11.5472C23.2895 11.6642 23.2995 11.7815 23.3059 11.8995C23.3113 11.9948 23.3126 12.09 23.3156 12.1852C23.3186 12.2898 23.3237 12.3944 23.3237 12.5C23.3237 12.5047 23.3247 12.5087 23.325 12.5134C23.3247 13.8873 23.0695 15.2237 22.5603 16.5017C22.2552 17.2678 21.6088 17.8039 20.7871 17.9732C19.9425 18.1465 19.0762 17.889 18.4701 17.2832C17.7734 16.5862 17.5588 15.5167 17.9232 14.5579C18.0315 14.2725 18.114 13.9778 18.1757 13.6785C18.1774 13.6711 18.1787 13.6637 18.1804 13.6563C18.3098 13.0153 18.3346 12.3511 18.2454 11.6954C18.2394 11.6501 18.227 11.6079 18.2142 11.566C17.7653 8.8131 15.3776 6.70328 12.5 6.70328C9.30359 6.70328 6.70294 9.30359 6.70294 12.5C6.70294 15.6964 9.30359 18.2967 12.5 18.2967C13.9527 18.2967 15.279 17.7556 16.2975 16.8692C16.498 17.4633 16.8289 18.0128 17.2846 18.4684C18.0845 19.268 19.1557 19.7032 20.2641 19.7028C20.55 19.7028 20.8384 19.674 21.1253 19.6153C22.4889 19.3344 23.6076 18.4023 24.1176 17.1226C24.6966 15.6689 24.9936 14.1022 24.998 12.5188C24.9983 12.5124 25 12.5064 25 12V12.5ZM12.5 16.6204C10.2279 16.6204 8.37926 14.7718 8.37926 12.5C8.37926 10.2282 10.2279 8.3796 12.5 8.3796C14.6175 8.3796 16.3656 9.98585 16.5936 12.0434C16.5989 12.0937 16.6013 12.1436 16.605 12.1939C16.6124 12.2955 16.6204 12.3967 16.6204 12.5C16.6204 12.7451 16.5949 12.9841 16.5537 13.2178C16.5453 13.2657 16.5386 13.3137 16.5282 13.3613C16.5084 13.4538 16.4839 13.544 16.4581 13.6342C16.4414 13.6919 16.4236 13.7492 16.4045 13.8065C15.8567 15.4393 14.3151 16.6204 12.5 16.6204Z" fill="#D1D1D1"/>
</g>
</svg>
