<svg preserveAspectRatio="xMidYMid meet"   overflow="visible" style="display: block;" viewBox="0 0 23.4178 25" fill="none" xmlns="http://www.w3.org/2000/svg">
<g id="Grupo 9825">
<mask id="mask0_0_52" style="mask-type:alpha" maskUnits="userSpaceOnUse" x="0" y="0" width="24" height="25">
<path id="Rect&#195;&#161;ngulo 4168" d="M0 0H23.4178V25H0V0Z" fill="var(--fill-0, black)"/>
</mask>
<g mask="url(#mask0_0_52)">
<path id="Trazado 8904" d="M9.96641 18.7909C9.75354 18.7909 9.54068 18.7097 9.37837 18.5474L5.89304 15.0621C5.56842 14.7371 5.56842 14.2106 5.89304 13.886C6.21766 13.5614 6.7445 13.5614 7.06911 13.886L9.96641 16.7833L16.349 10.4006C16.6737 10.076 17.2005 10.076 17.5251 10.4006C17.8497 10.7253 17.8497 11.2518 17.5251 11.5767L10.5544 18.5474C10.3921 18.7097 10.1793 18.7909 9.96641 18.7909Z" fill="var(--fill-0, #B2DE61)"/>
<path id="Trazado 8905" d="M19.1535 25.0002H4.26428C1.91279 25.0002 -3.17194e-07 23.0871 -3.17194e-07 20.7356V10.4439C-3.17194e-07 9.44874 0.435375 8.50881 1.19437 7.86523L9.51906 0.805759C10.7856 -0.268544 12.6249 -0.268544 13.8921 0.805094L22.2224 7.8649C22.9821 8.50881 23.4178 9.44908 23.4178 10.4446V20.7356C23.4178 23.0871 21.5047 25.0002 19.1535 25.0002V25.0002ZM11.7059 1.66454C11.3111 1.66454 10.9163 1.80124 10.5947 2.07397L2.26967 9.13377C1.88419 9.46072 1.66301 9.93833 1.66301 10.4439V20.7356C1.66301 22.1701 2.82977 23.3372 4.26428 23.3372H19.1535C20.5877 23.3372 21.7548 22.1701 21.7548 20.7356V10.4446C21.7548 9.93867 21.5333 9.46072 21.1471 9.13377L12.8168 2.07364C12.4952 1.8009 12.1004 1.66454 11.7059 1.66454Z" fill="var(--fill-0, #B2DE61)"/>
</g>
</g>
</svg>
