<svg preserveAspectRatio="xMidYMid meet"   overflow="visible" style="display: block;" viewBox="0 0 25 24.9998" fill="none" xmlns="http://www.w3.org/2000/svg">
<g id="Grupo 9827">
<mask id="mask0_0_47" style="mask-type:alpha" maskUnits="userSpaceOnUse" x="0" y="0" width="25" height="25">
<path id="Rect&#195;&#161;ngulo 4169" d="M0 0.000205994H25V24.9999H0V0.000205994Z" fill="var(--fill-0, black)"/>
</mask>
<g mask="url(#mask0_0_47)">
<path id="Trazado 8906" d="M12.5 24.9998C5.6075 24.9998 0 19.3923 0 12.4998C0 5.60763 5.6075 0.000134024 12.5 0.000134024C19.3925 0.000134024 25 5.60763 25 12.4998C25 19.3923 19.3925 24.9998 12.5 24.9998V24.9998ZM12.5 1.74702C6.57073 1.74702 1.74688 6.57086 1.74688 12.4998C1.74688 18.4294 6.57073 23.2529 12.5 23.2529C18.4293 23.2529 23.2531 18.4294 23.2531 12.4998C23.2531 6.57086 18.4293 1.74702 12.5 1.74702Z" fill="var(--fill-0, #B2DE61)"/>
<path id="Trazado 8907" d="M12.5 14.8326C12.0175 14.8326 11.6266 14.4416 11.6266 13.9591V7.40448C11.6266 6.92199 12.0175 6.53103 12.5 6.53103C12.9825 6.53103 13.3734 6.92199 13.3734 7.40448V13.9591C13.3734 14.4416 12.9825 14.8326 12.5 14.8326Z" fill="var(--fill-0, #B2DE61)"/>
<path id="Trazado 8908" d="M12.5014 18.4696C12.2708 18.4696 12.0437 18.3753 11.883 18.2145C11.8411 18.1726 11.8061 18.1272 11.7747 18.0818C11.7432 18.0329 11.7153 17.9839 11.6943 17.928C11.6734 17.8756 11.6559 17.8232 11.6454 17.7673C11.6315 17.7114 11.628 17.652 11.628 17.5961C11.628 17.5402 11.6315 17.4808 11.6454 17.4249C11.6559 17.369 11.6734 17.3131 11.6943 17.2607C11.7153 17.2083 11.7432 17.1594 11.7747 17.1105C11.8061 17.0616 11.8411 17.0197 11.883 16.9777C12.0856 16.7751 12.3861 16.6843 12.6691 16.7402C12.725 16.7506 12.7809 16.7681 12.8333 16.7891C12.8857 16.81 12.9381 16.838 12.9835 16.8694C13.0324 16.9009 13.0779 16.9393 13.1163 16.9777C13.1582 17.0197 13.1932 17.0616 13.2281 17.1105C13.2561 17.1594 13.284 17.2083 13.305 17.2607C13.3294 17.3131 13.3434 17.369 13.3574 17.4249C13.3679 17.4808 13.3748 17.5402 13.3748 17.5961C13.3748 17.652 13.3679 17.7114 13.3574 17.7673C13.3434 17.8232 13.3294 17.8756 13.305 17.928C13.284 17.9839 13.2561 18.0329 13.2281 18.0818C13.1932 18.1272 13.1582 18.1726 13.1163 18.2145C13.0779 18.253 13.0324 18.2914 12.9835 18.3228C12.9381 18.3543 12.8857 18.3822 12.8333 18.4032C12.7809 18.4242 12.725 18.4416 12.6691 18.4521C12.6132 18.4626 12.5573 18.4696 12.5014 18.4696Z" fill="var(--fill-0, #B2DE61)"/>
</g>
</g>
</svg>
