<svg xmlns="http://www.w3.org/2000/svg" width="25" height="22" viewBox="0 0 25 22" fill="none">
  <mask id="mask0_95_607" style="mask-type:alpha" maskUnits="userSpaceOnUse" x="0" y="0" width="25" height="22">
    <path d="M0 0H25V21.6138H0V0Z" fill="black"/>
  </mask>
  <g mask="url(#mask0_95_607)">
    <path d="M7.25505 17.8704H3.13296C2.27505 17.8704 1.57705 17.1724 1.57705 16.3144V3.13284C1.57705 2.27493 2.27505 1.57693 3.13296 1.57693H18.8195C19.6775 1.57693 20.3755 2.27493 20.3755 3.13284V4.79505C20.3755 5.23063 20.7284 5.58357 21.164 5.58357C21.5996 5.58357 21.9525 5.23063 21.9525 4.79505V3.13284C21.9525 1.40534 20.547 -0.00012207 18.8195 -0.00012207H3.13296C1.40547 -0.00012207 0 1.40534 0 3.13284V16.3144C0 18.0419 1.40547 19.4474 3.13296 19.4474H7.25505C7.69063 19.4474 8.04358 19.0945 8.04358 18.6589C8.04358 18.2233 7.69063 17.8704 7.25505 17.8704Z" fill="#FFF8EA"/>
    <path d="M12.936 4.00684C12.5004 4.00684 12.1475 4.35978 12.1475 4.79536C12.1475 5.23094 12.5004 5.58388 12.936 5.58388H17.604C18.0396 5.58388 18.3926 5.23094 18.3926 4.79536C18.3926 4.35978 18.0396 4.00684 17.604 4.00684H12.936Z" fill="#FFF8EA"/>
    <path d="M7.7204 8.35411C6.22031 7.84031 5.75098 7.45393 5.75098 6.76476C5.75098 6.06897 6.16637 5.60942 7.09935 5.60942C7.88189 5.60942 8.28908 5.9141 8.47012 6.33738C8.60701 6.65752 8.90097 6.88115 9.24887 6.88115C9.87086 6.88115 10.3093 6.20459 9.99292 5.66934C9.64376 5.07795 8.98014 4.66949 7.90018 4.5386V4.20931C7.90018 3.82672 7.58982 3.51636 7.20722 3.51636C6.82432 3.51636 6.51427 3.82672 6.51427 4.20931V4.52567C4.95993 4.70608 3.96387 5.58576 3.96387 6.86979C3.96387 8.29671 4.82336 8.94046 6.89055 9.64508C8.27299 10.1299 8.70984 10.5468 8.70984 11.3379C8.70984 12.1797 8.15251 12.6039 7.20533 12.6039C6.29947 12.6039 5.84402 12.2362 5.6532 11.7041C5.53618 11.3786 5.22361 11.1647 4.87761 11.1647H4.82903C4.20579 11.1647 3.78881 11.8318 4.08278 12.3813C4.46411 13.0935 5.22614 13.5741 6.51427 13.6905V14.0359C6.51427 14.4185 6.82432 14.7289 7.20722 14.7289C7.58982 14.7289 7.90018 14.4185 7.90018 14.0359V13.6779C9.68098 13.4764 10.5225 12.5305 10.5225 11.1789C10.5225 9.83212 9.75826 9.04328 7.7204 8.35411Z" fill="#FFF8EA"/>
    <path d="M18.0453 7.70471C14.2105 7.70471 11.0908 10.8244 11.0908 14.6592C11.0908 18.4939 14.2105 21.6136 18.0453 21.6136C21.88 21.6136 25.0001 18.4939 25.0001 14.6592C25.0001 10.8244 21.88 7.70471 18.0453 7.70471ZM18.0453 20.0366C15.0804 20.0366 12.6679 17.6243 12.6679 14.6592C12.6679 11.6943 15.0804 9.28176 18.0453 9.28176C21.0105 9.28176 23.423 11.6943 23.423 14.6592C23.423 17.6243 21.0105 20.0366 18.0453 20.0366Z" fill="#FFF8EA"/>
    <path d="M18.0454 16.3848C18.4809 16.3848 18.8339 16.0319 18.8339 15.5963V11.8489C18.8339 11.4133 18.4809 11.0604 18.0454 11.0604C17.6098 11.0604 17.2568 11.4133 17.2568 11.8489V15.5963C17.2568 16.0319 17.6098 16.3848 18.0454 16.3848Z" fill="#FFF8EA"/>
    <path d="M17.4881 16.9121C17.343 17.0572 17.2578 17.2622 17.2578 17.4707C17.2578 17.5212 17.2641 17.5748 17.2733 17.625C17.283 17.6754 17.2985 17.7227 17.3177 17.7701C17.3367 17.8205 17.3619 17.865 17.39 17.9088C17.4184 17.9498 17.4534 17.9908 17.4881 18.0287C17.5256 18.0634 17.5634 18.0981 17.6079 18.1268C17.6521 18.1549 17.6959 18.1769 17.7435 18.199C17.7909 18.2182 17.841 18.2337 17.8915 18.2432C17.9419 18.2526 17.9956 18.2593 18.0463 18.2593C18.0968 18.2593 18.1504 18.2526 18.2009 18.2432C18.2514 18.2337 18.2984 18.2182 18.346 18.199C18.393 18.1769 18.4406 18.1549 18.4813 18.1268C18.5258 18.0981 18.5668 18.0634 18.6011 18.0287C18.639 17.9908 18.674 17.9498 18.7024 17.9088C18.7305 17.865 18.7529 17.8205 18.7749 17.7701C18.7939 17.7227 18.8093 17.6754 18.8191 17.625C18.8286 17.5748 18.8349 17.5212 18.8349 17.4707C18.8349 17.2622 18.7497 17.0572 18.6011 16.9121C18.311 16.6188 17.7814 16.6188 17.4881 16.9121Z" fill="#FFF8EA"/>
  </g>
</svg>
