<svg preserveAspectRatio="xMidYMid meet"   overflow="visible" style="display: block;" viewBox="0 0 25 21.2264" fill="none" xmlns="http://www.w3.org/2000/svg">
<g id="Grupo 10181">
<mask id="mask0_0_12" style="mask-type:alpha" maskUnits="userSpaceOnUse" x="0" y="0" width="25" height="22">
<path id="Rect&#195;&#161;ngulo 4503" d="M0 0H25V21.2264H0V0Z" fill="var(--fill-0, black)"/>
</mask>
<g mask="url(#mask0_0_12)">
<path id="Trazado 9350" d="M14.1352 18.6239H3.26507C2.37098 18.6239 1.64355 17.8965 1.64355 17.0024V3.26497C1.64355 2.37088 2.37098 1.64345 3.26507 1.64345H19.6131C20.5072 1.64345 21.2346 2.37088 21.2346 3.26497V11.5715C21.2346 12.0254 21.6025 12.3932 22.0564 12.3932C22.5104 12.3932 22.8782 12.0254 22.8782 11.5715V3.26497C22.8782 1.46463 21.4135 -0.000100314 19.6131 -0.000100314H3.26507C1.46473 -0.000100314 0 1.46463 0 3.26497V17.0024C0 18.8027 1.46473 20.2675 3.26507 20.2675H14.1352C14.5891 20.2675 14.9569 19.8996 14.9569 19.4457C14.9569 18.9917 14.5891 18.6239 14.1352 18.6239Z" fill="var(--fill-0, #B2DE61)"/>
<path id="Trazado 9351" d="M13.481 4.17583C13.0271 4.17583 12.6593 4.54365 12.6593 4.9976C12.6593 5.45155 13.0271 5.81937 13.481 5.81937H18.3459C18.7999 5.81937 19.1677 5.45155 19.1677 4.9976C19.1677 4.54365 18.7999 4.17583 18.3459 4.17583H13.481Z" fill="var(--fill-0, #B2DE61)"/>
<path id="Trazado 9352" d="M8.04582 8.70643C6.48248 8.17096 5.99336 7.76829 5.99336 7.05006C5.99336 6.32493 6.42627 5.846 7.39859 5.846C8.21412 5.846 8.63848 6.16353 8.82716 6.60466C8.96982 6.9383 9.27618 7.17135 9.63875 7.17135C10.287 7.17135 10.7439 6.46627 10.4142 5.90845C10.0503 5.29212 9.35869 4.86644 8.23319 4.73003V4.38686C8.23319 3.98813 7.90973 3.66468 7.51101 3.66468C7.11196 3.66468 6.78884 3.98813 6.78884 4.38686V4.71655C5.16896 4.90457 4.13089 5.82134 4.13089 7.15952C4.13089 8.6466 5.02662 9.3175 7.18099 10.0518C8.62172 10.5571 9.07698 10.9916 9.07698 11.816C9.07698 12.6933 8.49615 13.1355 7.50904 13.1355C6.56499 13.1355 6.09033 12.7522 5.89146 12.1977C5.76951 11.8584 5.44376 11.6356 5.08316 11.6356H5.03254C4.38301 11.6356 3.94846 12.3308 4.25481 12.9034C4.65222 13.6456 5.44639 14.1466 6.78884 14.2679V14.6278C6.78884 15.0265 7.11196 15.35 7.51101 15.35C7.90973 15.35 8.23319 15.0265 8.23319 14.6278V14.2547C10.0891 14.0447 10.9661 13.0589 10.9661 11.6504C10.9661 10.2468 10.1696 9.42466 8.04582 8.70643Z" fill="var(--fill-0, #B2DE61)"/>
<path id="Trazado 9353" d="M24.173 16.412C23.4761 15.7152 22.4624 15.4391 21.5147 15.6675L18.3568 12.5096C18.5856 11.5626 18.3094 10.5485 17.6123 9.85165C16.9377 9.17714 15.9766 8.88985 15.0421 9.08379C14.79 9.13605 14.5871 9.32111 14.5135 9.56732C14.4405 9.81122 14.5073 10.0742 14.6874 10.2543L15.2649 10.8319C15.353 10.92 15.4017 11.0373 15.4017 11.1619C15.4017 11.2865 15.353 11.4035 15.2649 11.4916C15.0832 11.6734 14.787 11.6734 14.6052 11.4916L14.0277 10.914C13.8479 10.7342 13.5846 10.6672 13.341 10.7402C13.0951 10.8135 12.9097 11.0159 12.8571 11.2687C12.6635 12.2036 12.9505 13.1644 13.625 13.8389C14.3219 14.5358 15.3359 14.8115 16.283 14.5834L19.4409 17.7413C19.2124 18.6883 19.4882 19.7024 20.1854 20.3996C20.7212 20.9354 21.4374 21.2266 22.178 21.2266C22.3697 21.2266 22.5633 21.2069 22.7556 21.1671C23.0077 21.1149 23.2102 20.9295 23.2838 20.6839C23.3568 20.4404 23.2904 20.1771 23.1102 19.9963L22.5327 19.4191C22.4446 19.331 22.396 19.214 22.396 19.0894C22.396 18.9645 22.4446 18.8474 22.5327 18.7593C22.7145 18.5776 23.0107 18.5776 23.1924 18.7593L23.7696 19.3366C23.9494 19.5167 24.2131 19.5834 24.4566 19.5108C24.7025 19.4375 24.8882 19.235 24.9405 18.9822C25.1344 18.0474 24.8475 17.0865 24.173 16.412V16.412ZM23.8995 18.0523C23.3279 17.4803 22.3973 17.4803 21.8257 18.0523C21.5485 18.3294 21.396 18.6975 21.396 19.0894C21.396 19.4809 21.5485 19.849 21.8257 20.1261L21.9052 20.2057C21.5269 20.1481 21.1718 19.9716 20.8924 19.6926C20.3925 19.1923 20.2285 18.4389 20.475 17.7729C20.5427 17.5895 20.4977 17.384 20.3593 17.246L16.7783 13.6647C16.683 13.5694 16.5551 13.5184 16.425 13.5184C16.3668 13.5184 16.3079 13.5286 16.2514 13.5493C15.5854 13.7962 14.832 13.6318 14.3317 13.1318C14.0527 12.8528 13.8765 12.4974 13.8189 12.1194L13.8982 12.1986C14.4698 12.7706 15.4 12.7706 15.972 12.1986C16.2491 11.9219 16.4016 11.5534 16.4016 11.1619C16.4016 10.7701 16.2491 10.4019 15.972 10.1248L15.8928 10.0456C16.2708 10.1031 16.6258 10.2793 16.9052 10.5584C17.4052 11.0587 17.5692 11.8121 17.3227 12.478C17.2549 12.6611 17.3003 12.8669 17.4384 13.005L21.0193 16.5859C21.1571 16.7243 21.3628 16.769 21.5459 16.7016C22.2122 16.4558 22.9659 16.6191 23.4659 17.1191C23.745 17.3982 23.9212 17.7535 23.979 18.1315L23.8995 18.0523Z" fill="var(--fill-0, #B2DE61)"/>
</g>
</g>
</svg>
