<svg width="40" height="40" viewBox="0 0 40 40" fill="none" xmlns="http://www.w3.org/2000/svg">
<mask id="mask0_55_499" style="mask-type:alpha" maskUnits="userSpaceOnUse" x="0" y="0" width="40" height="40">
<path d="M0 0H40V40H0V0Z" fill="black"/>
</mask>
<g mask="url(#mask0_55_499)">
<path d="M33.5569 8.85118C36.0531 11.8829 37.5522 15.7664 37.5522 20C37.5522 29.6938 29.6938 37.5522 20 37.5522C10.3063 37.5522 2.4479 29.6938 2.4479 20C2.4479 10.3062 10.3063 2.4479 20 2.4479V0C8.95436 0 0 8.95429 0 20C0 31.0457 8.95436 40 20 40C31.0457 40 40.0001 31.0457 40.0001 20C40.0001 15.1759 38.2919 10.7509 35.4477 7.29644L33.5569 8.85118Z" fill="#B2DE61"/>
<path d="M22.2476 21.7603C21.7248 22.4269 20.9126 22.8558 19.9997 22.8558C18.4225 22.8558 17.1439 21.5772 17.1439 20C17.1439 18.4228 18.4225 17.1442 19.9997 17.1442C20.8881 17.1442 21.6817 17.55 22.2055 18.1862L24.0824 16.6427C23.1129 15.4651 21.6441 14.7142 19.9997 14.7142C17.0804 14.7142 14.7139 17.0807 14.7139 20C14.7139 22.9193 17.0804 25.2858 19.9997 25.2858C21.6894 25.2858 23.1927 24.492 24.1603 23.2581L22.2476 21.7603Z" fill="#B2DE61"/>
<path d="M19.9999 9.80966C14.372 9.80966 9.80957 14.3721 9.80957 20C9.80957 22.4555 10.6782 24.7081 12.1248 26.4674L14.0171 24.9135C12.918 23.5768 12.2579 21.8656 12.2579 20C12.2579 15.7242 15.7242 12.258 19.9999 12.258C24.2757 12.258 27.7419 15.7242 27.7419 20C27.7419 24.2757 24.2757 27.742 19.9999 27.742H19.9996L19.9996 30.1903H19.9999C25.6279 30.1903 30.1902 25.6279 30.1902 20C30.1902 14.3721 25.6279 9.80966 19.9999 9.80966Z" fill="#B2DE61"/>
<path d="M29.9411 27.8034C27.6274 30.7467 24.0348 32.6372 20.0005 32.6372C13.0212 32.6372 7.36331 26.9793 7.36331 20C7.36331 13.0207 13.0212 7.36286 20.0005 7.36286C26.9798 7.36286 32.6376 13.0207 32.6376 20V20.0012L35.1016 20.0013V20C35.1016 11.6599 28.3406 4.8989 20.0005 4.8989C11.6604 4.8989 4.89941 11.6599 4.89941 20C4.89941 28.3401 11.6604 35.1011 20.0005 35.1011C24.8213 35.1011 29.1146 32.8421 31.8794 29.3249L29.9411 27.8034Z" fill="#B2DE61"/>
</g>
</svg>
