<svg preserveAspectRatio="xMidYMid meet"   overflow="visible" style="display: block;" viewBox="0 0 24.9999 25" fill="none" xmlns="http://www.w3.org/2000/svg">
<g id="Grupo 10492">
<mask id="mask0_0_65" style="mask-type:alpha" maskUnits="userSpaceOnUse" x="0" y="0" width="25" height="25">
<path id="Rect&#195;&#161;ngulo 4900" d="M0 0.000106812H24.9999V25H0V0.000106812Z" fill="var(--fill-0, black)"/>
</mask>
<g mask="url(#mask0_0_65)">
<path id="Trazado 9761" d="M12.4999 6.94963e-05C5.60716 6.94963e-05 0 5.60723 0 12.5C0 16.2556 1.66293 19.6269 4.29358 21.9221C6.49103 23.8401 9.35924 25 12.4999 25C15.6372 25 18.5089 23.8401 20.7028 21.9256C23.3335 19.6304 24.9999 16.2556 24.9999 12.5C24.9999 5.60723 19.3927 6.94963e-05 12.4999 6.94963e-05ZM6.36526 21.3247C7.44477 18.9736 9.83786 17.3805 12.4999 17.3805C15.162 17.3805 17.5551 18.9736 18.6346 21.3247C16.8948 22.5405 14.7812 23.2532 12.4999 23.2532C10.2187 23.2532 8.10505 22.5405 6.36526 21.3247V21.3247ZM20.0146 20.1823C18.5752 17.4539 15.6896 15.6337 12.4999 15.6337C9.31033 15.6337 6.42814 17.4539 4.98531 20.1789C2.98699 18.2295 1.74678 15.508 1.74678 12.5C1.74678 6.57145 6.57138 1.74685 12.4999 1.74685C18.4285 1.74685 23.2531 6.57145 23.2531 12.5C23.2531 15.508 22.0129 18.2295 20.0146 20.1823Z" fill="var(--fill-0, #B2DE61)"/>
<path id="Trazado 9762" d="M12.4999 3.80106C10.0265 3.80106 8.01771 5.81335 8.01771 8.28329C8.01771 10.7567 10.0265 12.7655 12.4999 12.7655C14.9699 12.7655 16.9822 10.7567 16.9822 8.28329C16.9822 5.81335 14.9699 3.80106 12.4999 3.80106V3.80106ZM12.4999 11.0187C10.9907 11.0187 9.76449 9.79251 9.76449 8.28329C9.76449 6.77408 10.9907 5.54784 12.4999 5.54784C14.0092 5.54784 15.2354 6.77408 15.2354 8.28329C15.2354 9.79251 14.0092 11.0187 12.4999 11.0187Z" fill="var(--fill-0, #B2DE61)"/>
</g>
</g>
</svg>
