<svg preserveAspectRatio="xMidYMid meet"   overflow="visible" style="display: block;" viewBox="0 0 16 16.9725" fill="none" xmlns="http://www.w3.org/2000/svg">
<g id="Grupo 8912">
<mask id="mask0_0_32" style="mask-type:alpha" maskUnits="userSpaceOnUse" x="0" y="0" width="16" height="17">
<path id="Rect&#195;&#161;ngulo 3703" d="M0 0H16V16.9725H0V0Z" fill="var(--fill-0, black)"/>
</mask>
<g mask="url(#mask0_0_32)">
<path id="Trazado 8173" d="M13.9917 4.65271H13.2925V2.65799C13.2925 1.19228 12.1001 -0.000101535 10.6344 -0.000101535H5.36558C3.89987 -0.000101535 2.70749 1.19228 2.70749 2.65799V4.65271H2.00829C0.900875 4.65271 0 5.55359 0 6.661V14.9644C0 16.0718 0.900875 16.9727 2.00829 16.9727H13.9917C15.0991 16.9727 16 16.0718 16 14.9644V6.661C16 5.55359 15.0991 4.65271 13.9917 4.65271V4.65271ZM3.98714 2.65799C3.98714 1.89788 4.60547 1.27955 5.36558 1.27955H10.6344C11.3945 1.27955 12.0129 1.89788 12.0129 2.65799V4.65271H3.98714V2.65799ZM14.7203 14.9644C14.7203 15.366 14.3935 15.693 13.9917 15.693H2.00829C1.60648 15.693 1.27965 15.366 1.27965 14.9644V6.661C1.27965 6.25919 1.60648 5.93236 2.00829 5.93236H3.34731H12.6527H13.9917C14.3935 5.93236 14.7203 6.25919 14.7203 6.661V14.9644Z" fill="var(--fill-0, #FFF8EA)"/>
<path id="Trazado 8174" d="M8.00013 8.85842C7.64669 8.85842 7.3603 9.1448 7.3603 9.49824V12.1269C7.3603 12.4801 7.64669 12.7667 8.00013 12.7667C8.35357 12.7667 8.63995 12.4801 8.63995 12.1269V9.49824C8.63995 9.1448 8.35357 8.85842 8.00013 8.85842Z" fill="var(--fill-0, #FFF8EA)"/>
</g>
</g>
</svg>
