<svg preserveAspectRatio="xMidYMid meet"   overflow="visible" style="display: block;" viewBox="0 0 16 12.4516" fill="none" xmlns="http://www.w3.org/2000/svg">
<g id="Grupo 8910">
<mask id="mask0_0_40" style="mask-type:alpha" maskUnits="userSpaceOnUse" x="0" y="0" width="16" height="13">
<path id="Rect&#195;&#161;ngulo 3702" d="M0 9.91821e-05H16V12.4516H0V9.91821e-05Z" fill="var(--fill-0, black)"/>
</mask>
<g mask="url(#mask0_0_40)">
<path id="Trazado 8172" d="M14.8335 8.07596e-05H1.16647C0.523241 8.07596e-05 0 0.523322 0 1.16655V11.2852C0 11.9284 0.523241 12.4516 1.16647 12.4516H14.8335C15.4768 12.4516 15.9998 11.9284 15.9998 11.2852V1.16655C15.9998 0.523322 15.4768 8.07596e-05 14.8335 8.07596e-05ZM14.2826 0.928801L8.75282 5.68849C8.31484 6.06481 7.68015 6.06333 7.24309 5.68478L1.72538 0.928801H14.2826ZM14.8335 11.5229H1.16647C1.03534 11.5229 0.928721 11.4163 0.928721 11.2852V1.46802L6.63589 6.38764C7.0306 6.7294 7.51521 6.90048 7.99981 6.90048C8.48201 6.90048 8.9642 6.73126 9.35816 6.39265L15.0711 1.47526V11.2852C15.0711 11.4163 14.9645 11.5229 14.8335 11.5229Z" fill="var(--fill-0, #FFF8EA)"/>
</g>
</g>
</svg>
