<svg preserveAspectRatio="xMidYMid meet"   overflow="visible" style="display: block;" viewBox="0 0 20 19.9941" fill="none" xmlns="http://www.w3.org/2000/svg">
<g id="Grupo 8977">
<mask id="mask0_0_41" style="mask-type:alpha" maskUnits="userSpaceOnUse" x="0" y="0" width="20" height="20">
<path id="Rect&#195;&#161;ngulo 3755" d="M0 0H20V19.9941H0V0Z" fill="var(--fill-0, black)"/>
</mask>
<g mask="url(#mask0_0_41)">
<path id="Trazado 8218" d="M20 7.15976C20 6.80454 19.7119 6.51671 19.3569 6.51671C19.002 6.51671 18.7139 6.80454 18.7139 7.15976V11.6187C18.7139 11.9294 18.6622 12.2391 18.5678 12.5352H13.1841C12.8289 12.5352 12.5411 12.823 12.5411 13.1782V18.5606C12.2484 18.6568 11.94 18.708 11.6187 18.708H2.88448C2.00324 18.708 1.28611 17.9908 1.28611 17.1096V2.87857C1.28611 2.00041 2.00324 1.28611 2.88448 1.28611H12.8343C13.1895 1.28611 13.4774 0.99802 13.4774 0.643054C13.4774 0.287831 13.1895 0 12.8343 0H2.88448C1.29408 0 0 1.29125 0 2.87857V17.1096C0 18.7 1.29408 19.9941 2.88448 19.9941H11.6187C12.2715 19.9941 12.8927 19.8526 13.4452 19.5828L13.4465 19.5823C13.5599 19.5316 13.6716 19.4753 13.7804 19.4138C14.0227 19.2772 14.2506 19.1121 14.4651 18.9248C14.541 18.8592 14.6164 18.7929 14.6881 18.7208L18.7265 14.6884C19.0864 14.3283 19.3768 13.9111 19.5879 13.4545L19.589 13.4517L19.5908 13.4481C19.5915 13.4465 19.5915 13.445 19.5923 13.4437C19.8583 12.8796 20 12.2489 20 11.6187V7.15976ZM17.7748 13.8213L13.8272 17.7627V13.8213H17.7748Z" fill="var(--fill-0, #FFF8EA)"/>
<path id="Trazado 8219" d="M5.25761 11.443L5.16321 13.74C5.15549 13.9193 5.22391 14.0939 5.35073 14.221C5.47161 14.3419 5.63547 14.4093 5.80549 14.4093C5.81424 14.4093 5.82324 14.4093 5.83198 14.4088L8.12846 14.3141C8.28999 14.3074 8.44304 14.2403 8.55673 14.1261L17.8712 4.8121C18.7291 3.95427 18.7291 2.55833 17.8712 1.70049C17.0137 0.842401 15.6175 0.842658 14.7596 1.70023V1.70049L5.44538 11.0147C5.33117 11.1287 5.26404 11.2817 5.25761 11.443V11.443ZM6.5324 11.7465L15.6692 2.60977C16.0257 2.25352 16.6054 2.25352 16.962 2.60977C17.3182 2.96628 17.3182 3.54631 16.962 3.90282L7.82468 13.0393L6.47684 13.0949L6.5324 11.7465Z" fill="var(--fill-0, #FFF8EA)"/>
</g>
</g>
</svg>
