<svg preserveAspectRatio="xMidYMid meet"   overflow="visible" style="display: block;" viewBox="0 0 40 40" fill="none" xmlns="http://www.w3.org/2000/svg">
<g id="Grupo 9268">
<mask id="mask0_0_48" style="mask-type:alpha" maskUnits="userSpaceOnUse" x="0" y="0" width="40" height="40">
<path id="Rect&#195;&#161;ngulo 3959" d="M0 0H40V40H0V0Z" fill="var(--fill-0, black)"/>
</mask>
<g mask="url(#mask0_0_48)">
<path id="Trazado 8467" d="M33.5569 8.85118C36.0531 11.8829 37.5522 15.7664 37.5522 20C37.5522 29.6938 29.6938 37.5522 20 37.5522C10.3063 37.5522 2.4479 29.6938 2.4479 20C2.4479 10.3062 10.3063 2.4479 20 2.4479V0C8.95436 0 0 8.95429 0 20C0 31.0457 8.95436 40 20 40C31.0457 40 40.0001 31.0457 40.0001 20C40.0001 15.1759 38.2919 10.7509 35.4477 7.29644L33.5569 8.85118Z" fill="var(--fill-0, #B2DE61)"/>
<path id="Trazado 8468" d="M22.2479 21.7603C21.7251 22.4269 20.9129 22.8558 20 22.8558C18.4228 22.8558 17.1442 21.5772 17.1442 20C17.1442 18.4228 18.4228 17.1442 20 17.1442C20.8884 17.1442 21.682 17.55 22.2058 18.1862L24.0827 16.6427C23.1132 15.4651 21.6444 14.7142 20 14.7142C17.0807 14.7142 14.7142 17.0807 14.7142 20C14.7142 22.9193 17.0807 25.2858 20 25.2858C21.6897 25.2858 23.1931 24.492 24.1606 23.2581L22.2479 21.7603Z" fill="var(--fill-0, #B2DE61)"/>
<path id="Trazado 8469" d="M20 9.80966C14.3721 9.80966 9.80966 14.3721 9.80966 20C9.80966 22.4555 10.6783 24.7081 12.1249 26.4674L14.0172 24.9135C12.9181 23.5768 12.258 21.8656 12.258 20C12.258 15.7242 15.7242 12.258 20 12.258C24.2757 12.258 27.742 15.7242 27.742 20C27.742 24.2757 24.2757 27.742 20 27.742H19.9997L19.9997 30.1903H20C25.628 30.1903 30.1903 25.6279 30.1903 20C30.1903 14.3721 25.628 9.80966 20 9.80966Z" fill="var(--fill-0, #B2DE61)"/>
<path id="Trazado 8470" d="M29.9407 27.8034C27.627 30.7467 24.0343 32.6372 20 32.6372C13.0207 32.6372 7.36286 26.9793 7.36286 20C7.36286 13.0207 13.0207 7.36286 20 7.36286C26.9794 7.36286 32.6371 13.0207 32.6371 20V20.0012L35.1011 20.0013V20C35.1011 11.6599 28.3401 4.8989 20 4.8989C11.66 4.8989 4.89896 11.6599 4.89896 20C4.89896 28.3401 11.66 35.1011 20 35.1011C24.8209 35.1011 29.1141 32.8421 31.879 29.3249L29.9407 27.8034Z" fill="var(--fill-0, #B2DE61)"/>
</g>
</g>
</svg>
