<svg xmlns="http://www.w3.org/2000/svg" width="65" height="58" viewBox="0 0 65 58" fill="none">
  <mask id="mask0_1_4326" style="mask-type:alpha" maskUnits="userSpaceOnUse" x="0" y="0" width="65" height="58">
    <path d="M0 0H65V57.3536H0V0Z" fill="black"/>
  </mask>
  <g mask="url(#mask0_1_4326)">
    <path d="M20.3602 46.8967C20.3909 46.8967 20.4216 46.8958 20.4524 46.8949L28.5189 46.5615C29.0853 46.538 29.6228 46.3022 30.023 45.902L62.7362 13.1888C64.1961 11.7298 65.0002 9.7884 65.0002 7.72411C65.0002 5.66074 64.1961 3.72022 62.7362 2.26032C59.7252 -0.752536 54.8206 -0.754343 51.8078 2.26032L19.0945 34.9735C18.6934 35.3746 18.4585 35.9113 18.4351 36.4777L18.1035 44.5451C18.0773 45.1757 18.3167 45.7882 18.763 46.2345C19.1876 46.6591 19.7622 46.8967 20.3602 46.8967ZM22.9123 37.5446L55.0022 5.45476C56.2534 4.20354 58.2888 4.20174 59.5427 5.45476C60.7948 6.70598 60.7948 8.74316 59.5427 9.99528L27.4519 42.0842L22.7172 42.2803L22.9123 37.5446Z" fill="#FFF8EA"/>
    <path d="M62.7415 52.8359H2.25851C1.01091 52.8359 0 53.8469 0 55.0945C0 56.3421 1.01091 57.353 2.25851 57.353H62.7415C63.9891 57.353 65 56.3421 65 55.0945C65 53.8469 63.9891 52.8359 62.7415 52.8359Z" fill="#FFF8EA"/>
    <path d="M0.66197 46.2338C1.10283 46.6747 1.68101 46.8951 2.25919 46.8951C2.83647 46.8951 3.41465 46.6747 3.85551 46.2338L6.42479 43.6645L8.99407 46.2338C9.43494 46.6747 10.0131 46.8951 10.5904 46.8951C11.1686 46.8951 11.7468 46.6747 12.1876 46.2338C13.0693 45.3512 13.0693 43.922 12.1876 43.0403L9.61833 40.471L12.1876 37.9017C13.0693 37.02 13.0693 35.5908 12.1876 34.7082C11.305 33.8264 9.8758 33.8264 8.99407 34.7082L6.42479 37.2774L3.85551 34.7082C2.97378 33.8264 1.5446 33.8264 0.66197 34.7082C-0.220657 35.5908 -0.220657 37.02 0.66197 37.9017L3.23125 40.471L0.66197 43.0403C-0.220657 43.922 -0.220657 45.3512 0.66197 46.2338Z" fill="#FFF8EA"/>
  </g>
</svg>
