<svg preserveAspectRatio="xMidYMid meet"   overflow="visible" style="display: block;" viewBox="0 0 24.7198 25" fill="none" xmlns="http://www.w3.org/2000/svg">
<g id="Grupo 10177">
<mask id="mask0_0_42" style="mask-type:alpha" maskUnits="userSpaceOnUse" x="0" y="0" width="25" height="25">
<path id="Rect&#195;&#161;ngulo 4501" d="M0 0H24.7198V25H0V0Z" fill="var(--fill-0, black)"/>
</mask>
<g mask="url(#mask0_0_42)">
<path id="Trazado 9342" d="M21.9088 6.48102C21.9354 6.48068 21.9616 6.47596 21.9886 6.47293C22.0172 6.46957 22.0462 6.46788 22.0741 6.46148C22.096 6.45677 22.1173 6.44801 22.1388 6.44161C22.1701 6.43184 22.2015 6.42342 22.2308 6.41029C22.25 6.40187 22.2681 6.38974 22.287 6.37964C22.317 6.36381 22.347 6.34798 22.3746 6.32878C22.3786 6.32575 22.3833 6.3244 22.3874 6.32137C22.4035 6.30958 22.416 6.29476 22.4308 6.2823C22.4544 6.26243 22.478 6.24323 22.4992 6.221C22.5181 6.20113 22.5342 6.17957 22.5507 6.15835C22.5679 6.1368 22.5847 6.11592 22.5996 6.09301C22.6144 6.06944 22.6265 6.04519 22.639 6.0206C22.6511 5.99635 22.6639 5.97244 22.6737 5.94717C22.6838 5.92124 22.6908 5.89497 22.6982 5.86836C22.7053 5.84243 22.7134 5.81717 22.7181 5.79056C22.7238 5.75991 22.7255 5.72892 22.7276 5.6976C22.7289 5.6784 22.7333 5.66021 22.7333 5.64068V0.842157C22.7333 0.377023 22.3564 0.000133622 21.8913 0.000133622C21.4261 0.000133622 21.0492 0.377023 21.0492 0.842157V3.42077C18.7586 1.26148 15.7034 0.0129324 12.5131 0.000133622H12.5H12.464H12.4512C5.58127 0.0267416 0 5.62384 0 12.5001C0 19.3926 5.60754 25.0001 12.5 25.0001C12.9651 25.0001 13.342 24.6232 13.342 24.1581C13.342 23.693 12.9651 23.3161 12.5 23.3161C6.53612 23.3161 1.68405 18.464 1.68405 12.5001C1.68405 6.54265 6.52635 1.69428 12.4818 1.68418C15.3258 1.6889 18.0469 2.83034 20.0513 4.79865H17.0927C16.6279 4.79865 16.2507 5.17554 16.2507 5.64068C16.2507 6.10581 16.6279 6.4827 17.0927 6.4827H21.8913C21.8973 6.4827 21.9027 6.48102 21.9088 6.48102Z" fill="var(--fill-0, #B2DE61)"/>
<path id="Trazado 9343" d="M12.5448 5.90541C12.0797 5.90541 11.7028 6.2823 11.7028 6.74743V11.6581H8.46267C7.99787 11.6581 7.62064 12.035 7.62064 12.5001C7.62064 12.9653 7.99787 13.3422 8.46267 13.3422H12.5448C13.0099 13.3422 13.3868 12.9653 13.3868 12.5001V6.74743C13.3868 6.2823 13.0099 5.90541 12.5448 5.90541Z" fill="var(--fill-0, #B2DE61)"/>
<path id="Trazado 9344" d="M24.7198 20.9416C24.7198 19.5034 23.9037 18.661 21.7276 17.9251C20.126 17.3765 19.6249 16.9639 19.6249 16.2279C19.6249 15.4849 20.0681 14.9942 21.0644 14.9942C21.9 14.9942 22.3352 15.3196 22.5282 15.7716C22.6743 16.1134 22.9882 16.3522 23.3601 16.3522C24.0239 16.3522 24.4921 15.6298 24.1546 15.0582C23.7818 14.4267 23.0728 13.9905 21.9195 13.8511V13.4991C21.9195 13.0906 21.5881 12.7591 21.1796 12.7591C20.771 12.7591 20.4396 13.0906 20.4396 13.4991V13.8369C18.7798 14.0296 17.7162 14.9689 17.7162 16.3404C17.7162 17.8638 18.634 18.5516 20.8414 19.3037C22.3177 19.8214 22.7841 20.2666 22.7841 21.1113C22.7841 22.0103 22.1893 22.4633 21.1779 22.4633C20.2102 22.4633 19.7239 22.0706 19.5201 21.5027C19.3955 21.1548 19.0614 20.9264 18.6919 20.9264H18.64C17.9745 20.9264 17.5292 21.6388 17.8431 22.2255C18.2503 22.986 19.0641 23.4993 20.4396 23.6239V23.9924C20.4396 24.4009 20.771 24.7324 21.1796 24.7324C21.5881 24.7324 21.9195 24.4009 21.9195 23.9924V23.6105C23.8212 23.3949 24.7198 22.3848 24.7198 20.9416Z" fill="var(--fill-0, #B2DE61)"/>
</g>
</g>
</svg>
