<svg preserveAspectRatio="xMidYMid meet"   overflow="visible" style="display: block;" viewBox="0 0 25 21.4607" fill="none" xmlns="http://www.w3.org/2000/svg">
<g id="Grupo 9829">
<mask id="mask0_0_22" style="mask-type:alpha" maskUnits="userSpaceOnUse" x="0" y="0" width="25" height="22">
<path id="Rect&#195;&#161;ngulo 4170" d="M0 0H25V21.4607H0V0Z" fill="var(--fill-0, black)"/>
</mask>
<g mask="url(#mask0_0_22)">
<path id="Trazado 8909" d="M9.13645 17.849H3.12917C2.2723 17.849 1.57514 17.1518 1.57514 16.2949V3.12895C1.57514 2.27239 2.2723 1.57523 3.12917 1.57523H18.7968C19.6537 1.57523 20.3508 2.27239 20.3508 3.12895V6.04958C20.3508 6.48463 20.7033 6.83715 21.1384 6.83715C21.5734 6.83715 21.926 6.48463 21.926 6.04958V3.12895C21.926 1.40386 20.5222 9.1332e-05 18.7968 9.1332e-05H3.12917C1.40377 9.1332e-05 0 1.40386 0 3.12895V16.2949C0 18.0203 1.40377 19.4241 3.12917 19.4241H9.13645C9.5715 19.4241 9.92402 19.0716 9.92402 18.6365C9.92402 18.2015 9.5715 17.849 9.13645 17.849Z" fill="var(--fill-0, #B2DE61)"/>
<path id="Trazado 8910" d="M12.9199 4.00189C12.4849 4.00189 12.1324 4.35441 12.1324 4.78946C12.1324 5.22452 12.4849 5.57703 12.9199 5.57703H17.5823C18.0174 5.57703 18.3699 5.22452 18.3699 4.78946C18.3699 4.35441 18.0174 4.00189 17.5823 4.00189H12.9199Z" fill="var(--fill-0, #B2DE61)"/>
<path id="Trazado 8911" d="M7.71094 8.34424C6.21267 7.83106 5.74391 7.44515 5.74391 6.75681C5.74391 6.06186 6.1588 5.60287 7.09065 5.60287C7.87224 5.60287 8.27894 5.90718 8.45976 6.32995C8.59649 6.6497 8.89009 6.87306 9.23788 6.87306C9.8588 6.87306 10.2967 6.19764 9.98072 5.66272C9.63198 5.07204 8.96916 4.66408 7.89051 4.53366V4.20446C7.89051 3.82233 7.58052 3.51234 7.19839 3.51234C6.81595 3.51234 6.50628 3.82233 6.50628 4.20446V4.52043C4.95382 4.70063 3.95896 5.57924 3.95896 6.86172C3.95896 8.28691 4.81741 8.93019 6.8821 9.63365C8.26287 10.1178 8.69919 10.5343 8.69919 11.3244C8.69919 12.1652 8.14285 12.5889 7.1965 12.5889C6.29174 12.5889 5.83684 12.2216 5.64625 11.6905C5.52969 11.365 5.21718 11.1515 4.87159 11.1515H4.82308C4.20058 11.1515 3.78412 11.8177 4.07804 12.3665C4.45859 13.0779 5.2197 13.558 6.50628 13.6745V14.0192C6.50628 14.4013 6.81595 14.7113 7.19839 14.7113C7.58052 14.7113 7.89051 14.4013 7.89051 14.0192V13.6616C9.66916 13.4603 10.5097 12.5155 10.5097 11.1656C10.5097 9.82046 9.74634 9.03258 7.71094 8.34424Z" fill="var(--fill-0, #B2DE61)"/>
<path id="Trazado 8912" d="M18.3699 8.20027C14.714 8.20027 11.7395 11.1748 11.7395 14.8307C11.7395 18.4866 14.714 21.4608 18.3699 21.4608C22.0255 21.4608 25 18.4866 25 14.8307C25 11.1748 22.0255 8.20027 18.3699 8.20027V8.20027ZM18.3699 19.8856C15.5822 19.8856 13.3147 17.618 13.3147 14.8307C13.3147 12.043 15.5822 9.77541 18.3699 9.77541C21.1573 9.77541 23.4249 12.043 23.4249 14.8307C23.4249 17.618 21.1573 19.8856 18.3699 19.8856Z" fill="var(--fill-0, #B2DE61)"/>
<path id="Trazado 8913" d="M19.6571 13.0438L17.755 14.946L17.0824 14.2734C16.7749 13.9656 16.2766 13.9659 15.9688 14.2731C15.661 14.5809 15.661 15.0795 15.9688 15.387L17.198 16.6166C17.3458 16.7643 17.5461 16.8472 17.755 16.8472C17.9638 16.8472 18.1642 16.7643 18.3116 16.6166L20.7707 14.1578C21.0785 13.8503 21.0785 13.3516 20.7707 13.0438C20.4633 12.7364 19.9649 12.7364 19.6571 13.0438Z" fill="var(--fill-0, #B2DE61)"/>
</g>
</g>
</svg>
