<svg preserveAspectRatio="xMidYMid meet"   overflow="visible" style="display: block;" viewBox="0 0 24.416 17.4687" fill="none" xmlns="http://www.w3.org/2000/svg">
<g id="Grupo 9823">
<mask id="mask0_0_57" style="mask-type:alpha" maskUnits="userSpaceOnUse" x="0" y="0" width="25" height="18">
<path id="Rect&#195;&#161;ngulo 4166" d="M0 0.000202179H24.416V17.4688H0V0.000202179Z" fill="var(--fill-0, black)"/>
</mask>
<g mask="url(#mask0_0_57)">
<path id="Trazado 8902" d="M12.2082 4.09619C9.65055 4.09619 7.56977 6.17667 7.56977 8.73458C7.56977 11.2922 9.65055 13.373 12.2082 13.373C14.7658 13.373 16.8469 11.2922 16.8469 8.73458C16.8469 6.17667 14.7658 4.09619 12.2082 4.09619V4.09619ZM12.2082 11.8348C10.4987 11.8348 9.1079 10.4441 9.1079 8.73458C9.1079 7.0251 10.4987 5.63432 12.2082 5.63432C13.9176 5.63432 15.3087 7.0251 15.3087 8.73458C15.3087 10.4441 13.9176 11.8348 12.2082 11.8348Z" fill="var(--fill-0, #B2DE61)"/>
<path id="Trazado 8903" d="M24.308 8.34082C21.1084 2.96228 16.8112 0.000139983 12.2082 0.000139983C7.60514 0.000139983 3.30791 2.96228 0.108285 8.34082C-0.0359923 8.58323 -0.0359923 8.88501 0.108285 9.12742C3.30791 14.5063 7.60514 17.4687 12.2082 17.4687C16.8112 17.4687 21.1084 14.5063 24.308 9.12742C24.4523 8.88501 24.4523 8.58323 24.308 8.34082V8.34082ZM12.2082 15.9306C8.27854 15.9306 4.54918 13.3794 1.66887 8.73397C4.54918 4.08911 8.27854 1.53827 12.2082 1.53827C16.1378 1.53827 19.8671 4.08911 22.7474 8.73397C19.8671 13.3794 16.1378 15.9306 12.2082 15.9306Z" fill="var(--fill-0, #B2DE61)"/>
</g>
</g>
</svg>
