<svg preserveAspectRatio="xMidYMid meet"   overflow="visible" style="display: block;" viewBox="0 0 25 24.7343" fill="none" xmlns="http://www.w3.org/2000/svg">
<g id="Grupo 9784">
<mask id="mask0_0_79" style="mask-type:alpha" maskUnits="userSpaceOnUse" x="0" y="0" width="25" height="25">
<path id="Rect&#195;&#161;ngulo 4131" d="M0 0H25V24.7343H0V0Z" fill="var(--fill-0, black)"/>
</mask>
<g mask="url(#mask0_0_79)">
<path id="Trazado 8840" d="M20.7309 10.8363C20.235 10.8363 19.8333 11.238 19.8333 11.7339V19.6966C19.8333 21.4843 18.3787 22.9392 16.5907 22.9392H5.03784C3.24977 22.9392 1.79525 21.4843 1.79525 19.6966V8.14338C1.79525 6.35567 3.24977 4.90079 5.03784 4.90079H13.0002C13.496 4.90079 13.8978 4.49901 13.8978 4.00316C13.8978 3.50731 13.496 3.10554 13.0002 3.10554H5.03784C2.25987 3.10554 0 5.3654 0 8.14338V19.6966C0 22.4745 2.25987 24.7344 5.03784 24.7344H16.5907C19.3686 24.7344 21.6285 22.4745 21.6285 19.6966V11.7339C21.6285 11.238 21.2267 10.8363 20.7309 10.8363Z" fill="var(--fill-0, #B2DE61)"/>
<path id="Trazado 8841" d="M19.8153 0.000104095C16.9565 0.000104095 14.6306 2.32604 14.6306 5.1848C14.6306 8.04356 16.9565 10.3695 19.8153 10.3695C22.6741 10.3695 25 8.04356 25 5.1848C25 2.32604 22.6741 0.000104095 19.8153 0.000104095ZM19.8153 8.57424C17.9464 8.57424 16.4259 7.05366 16.4259 5.1848C16.4259 3.31594 17.9464 1.79536 19.8153 1.79536C21.6842 1.79536 23.2047 3.31594 23.2047 5.1848C23.2047 7.05366 21.6842 8.57424 19.8153 8.57424Z" fill="var(--fill-0, #B2DE61)"/>
</g>
</g>
</svg>
