<svg preserveAspectRatio="xMidYMid meet"   overflow="visible" style="display: block;" viewBox="0 0 12.3279 12.3297" fill="none" xmlns="http://www.w3.org/2000/svg">
<g id="Grupo 7908">
<mask id="mask0_0_89" style="mask-type:alpha" maskUnits="userSpaceOnUse" x="0" y="0" width="13" height="13">
<path id="Rect&#195;&#161;ngulo 3151" d="M0 0H12.3279V12.3297H0V0Z" fill="var(--fill-0, black)"/>
</mask>
<g mask="url(#mask0_0_89)">
<path id="Trazado 6084" d="M11.97 1.84661L10.4812 0.357861C10.0038 -0.119532 9.22703 -0.119246 8.74993 0.358147L0 9.10921V12.3298L3.22005 12.3293L11.97 3.57819C12.4471 3.1008 12.4474 2.324 11.97 1.84661V1.84661ZM0.974785 11.8247L0.50482 11.3548V9.43348L2.89579 11.8244L0.974785 11.8247ZM3.13177 11.7033L0.625954 9.19749L7.50973 2.31257L10.0155 4.81868L3.13177 11.7033ZM10.1941 4.64012L7.68829 2.13402L7.796 2.02602L10.3021 4.53212L10.1941 4.64012ZM10.4807 4.35357L7.97455 1.84747L8.08226 1.73976L10.5884 4.24586L10.4807 4.35357ZM10.7669 4.0673L8.26082 1.5612L8.36853 1.45349L10.8746 3.9596L10.7669 4.0673ZM11.6129 3.22108L11.0532 3.78104L8.54708 1.27494L9.10676 0.714978C9.38731 0.434713 9.84385 0.434427 10.1241 0.714978L11.6131 2.20373C11.8934 2.48399 11.8934 2.94053 11.6129 3.22108Z" fill="var(--fill-0, black)"/>
</g>
</g>
</svg>
