<svg preserveAspectRatio="xMidYMid meet"   overflow="visible" style="display: block;" viewBox="0 0 61.9599 65" fill="none" xmlns="http://www.w3.org/2000/svg">
<g id="Grupo 8986">
<mask id="mask0_0_11" style="mask-type:alpha" maskUnits="userSpaceOnUse" x="0" y="0" width="62" height="65">

</mask>
<g mask="url(#mask0_0_11)">
<path id="Trazado 8227" d="M44.5958 65.0001H9.49025C4.25771 65.0001 0 60.7513 0 55.5286V9.49124C0 4.2578 4.25771 8.88655e-05 9.49025 8.88655e-05H26.8132C28.951 8.88655e-05 30.9858 0.464208 32.8593 1.37811C34.2821 2.01157 35.6512 2.96042 36.8563 4.16641L49.9188 17.2092C51.0961 18.3857 52.0468 19.752 52.7483 21.2698C53.2671 22.3934 52.777 23.7239 51.6534 24.2427C50.5299 24.7606 49.2002 24.2714 48.6815 23.1478C48.2084 22.1255 47.5418 21.1677 46.7524 20.3783L33.6899 7.3355C32.8718 6.51747 31.9552 5.87863 30.9652 5.43602C29.6391 4.79091 28.2647 4.48 26.8132 4.48H9.49025C6.72704 4.48 4.47992 6.72803 4.47992 9.49124V55.5286C4.47992 58.2811 6.72704 60.5202 9.49025 60.5202H44.5958C45.8331 60.5202 46.8357 61.5228 46.8357 62.7601C46.8357 63.9975 45.8331 65.0001 44.5958 65.0001Z" fill="var(--fill-0, #B2DE61)"/>
<path id="Trazado 8228" d="M50.7144 24.4488H31.8782C30.6408 24.4488 29.6382 23.4462 29.6382 22.2088V3.39139C29.6382 2.63159 30.0226 1.92466 30.6596 1.51161C31.2958 1.09856 32.0986 1.03585 32.7912 1.34586C34.2812 2.01068 35.6485 2.95952 36.8563 4.16552L49.9197 17.2101C51.0961 18.3866 52.0477 19.752 52.7483 21.2698C53.0682 21.9633 53.0135 22.7724 52.6023 23.4157C52.1901 24.059 51.4787 24.4488 50.7144 24.4488V24.4488ZM34.1181 19.9689H46.342L34.1181 7.76199V19.9689Z" fill="var(--fill-0, #B2DE61)"/>
<path id="Trazado 8229" d="M45.9245 50.1993C46.9074 50.1993 47.7962 50.8068 48.1277 51.7315C48.6698 53.243 49.9636 54.2877 52.5378 54.2877C55.2284 54.2877 56.8107 53.0826 56.8107 50.6912C56.8107 48.4441 55.5698 47.2596 51.6427 45.8825C45.7704 43.8818 43.3289 42.0522 43.3289 37.9987C43.3289 33.8942 46.9065 31.2377 52.3021 31.2377C56.7265 31.2377 59.2433 32.5341 60.4565 34.5886C61.3542 36.1091 60.1088 38.031 58.3428 38.031C57.3537 38.031 56.5186 37.3957 56.1297 36.4863C55.6164 35.2839 54.4587 34.4184 52.2358 34.4184C49.5855 34.4184 48.4064 35.7238 48.4064 37.7004C48.4064 39.6581 49.7396 40.7557 54 42.2152C59.789 44.173 61.9599 46.4138 61.9599 50.2397C61.9599 54.5923 58.8939 57.4676 52.3433 57.4559C47.5919 57.4478 44.9147 55.9856 43.6675 53.6552C42.8316 52.0943 44.0161 50.1993 45.7865 50.1993H45.9245ZM50.5738 31.8944V30.4411C50.5738 29.3543 51.4554 28.4726 52.5422 28.4726C53.6291 28.4726 54.5107 29.3543 54.5107 30.4411V31.8944H50.5738ZM50.5738 58.3555V56.6791H54.5107V58.3555C54.5107 59.4423 53.6291 60.324 52.5422 60.324C51.4554 60.324 50.5738 59.4423 50.5738 58.3555Z" fill="var(--fill-0, #B2DE61)"/>
<path id="Trazado 8230" d="M20.2895 18.7414H12.068C10.8306 18.7414 9.82804 17.7397 9.82804 16.5014C9.82804 15.2641 10.8306 14.2615 12.068 14.2615H20.2895C21.5269 14.2615 22.5295 15.2641 22.5295 16.5014C22.5295 17.7397 21.5269 18.7414 20.2895 18.7414Z" fill="var(--fill-0, #B2DE61)"/>
<path id="Trazado 8231" d="M20.2895 29.6625H12.068C10.8306 29.6625 9.82804 28.6599 9.82804 27.4226C9.82804 26.1852 10.8306 25.1826 12.068 25.1826H20.2895C21.5269 25.1826 22.5295 26.1852 22.5295 27.4226C22.5295 28.6599 21.5269 29.6625 20.2895 29.6625Z" fill="var(--fill-0, #B2DE61)"/>
<path id="Trazado 8232" d="M32.5591 53.8343H18.3874C13.6673 53.8343 9.82804 49.995 9.82804 45.275C9.82804 40.5559 13.6673 36.7166 18.3874 36.7166H32.5591C33.7965 36.7166 34.7991 37.7192 34.7991 38.9565C34.7991 40.193 33.7965 41.1965 32.5591 41.1965H18.3874C16.1376 41.1965 14.308 43.0261 14.308 45.275C14.308 47.5248 16.1376 49.3544 18.3874 49.3544H32.5591C33.7965 49.3544 34.7991 50.357 34.7991 51.5944C34.7991 52.8317 33.7965 53.8343 32.5591 53.8343Z" fill="var(--fill-0, #B2DE61)"/>
</g>
</g>
</svg>
