<svg width="25" height="24" viewBox="0 0 25 24" fill="none" xmlns="http://www.w3.org/2000/svg">
<mask id="mask0_55_522" style="mask-type:alpha" maskUnits="userSpaceOnUse" x="0" y="0" width="25" height="24">
<path d="M0 0H25V23.1755H0V0Z" fill="black"/>
</mask>
<g mask="url(#mask0_55_522)">
<path d="M12.5003 23.1755C11.4596 23.1755 10.4813 22.7701 9.74557 22.0344L8.06318 20.3516C7.65535 19.9441 7.11343 19.7197 6.53677 19.7197H3.89559C1.7477 19.7197 0 17.972 0 15.8241V3.89559C0 1.7477 1.7477 0 3.89559 0H21.1048C23.2526 0 25 1.7477 25 3.89559V15.8241C25 17.972 23.2526 19.7197 21.1048 19.7197H18.4639C17.8873 19.7197 17.345 19.9441 16.9372 20.3516L15.2548 22.0344C14.519 22.7701 13.5408 23.1755 12.5003 23.1755ZM3.89559 1.73693C2.70544 1.73693 1.73693 2.70544 1.73693 3.89559V15.8241C1.73693 17.0143 2.70544 17.9828 3.89559 17.9828H6.53677C7.57719 17.9828 8.55577 18.3878 9.29119 19.1236L10.9739 20.8064C11.3814 21.2142 11.9237 21.4386 12.5003 21.4386C13.0767 21.4386 13.6189 21.2142 14.0264 20.8064L15.7092 19.1236C16.4449 18.3878 17.4232 17.9828 18.4639 17.9828H21.1048C22.2949 17.9828 23.2631 17.0143 23.2631 15.8241V3.89559C23.2631 2.70544 22.2949 1.73693 21.1048 1.73693H3.89559Z" fill="#D1D1D1"/>
<path d="M3.80811 12.266L4.3205 11.1151C4.80893 11.4385 5.50266 11.6591 6.14115 11.6591C6.78764 11.6591 7.03984 11.4778 7.03984 11.21C7.03984 10.3349 3.90259 10.9734 3.90259 8.92415C3.90259 7.93862 4.70645 7.13477 6.34611 7.13477C7.06346 7.13477 7.80444 7.30047 8.3481 7.61555L7.86731 8.77443C7.33929 8.49062 6.8189 8.34888 6.33812 8.34888C5.68399 8.34888 5.44742 8.56947 5.44742 8.8453C5.44742 9.68875 8.57668 9.05824 8.57668 11.0918C8.57668 12.0534 7.77283 12.8732 6.13316 12.8732C5.22683 12.8732 4.32849 12.6287 3.80811 12.266Z" fill="#D1D1D1"/>
<path d="M14.2735 12.7636L14.2579 9.83933L12.8391 12.22H12.1454L10.7343 9.91819V12.7636H9.29199V7.24609H10.5766L12.5157 10.4306L14.4076 7.24609H15.6922L15.7079 12.7636H14.2735Z" fill="#D1D1D1"/>
<path d="M16.4238 12.266L16.9362 11.1151C17.4247 11.4385 18.1184 11.6591 18.7569 11.6591C19.4034 11.6591 19.6556 11.4778 19.6556 11.21C19.6556 10.3349 16.5183 10.9734 16.5183 8.92415C16.5183 7.93862 17.3222 7.13477 18.9618 7.13477C19.6792 7.13477 20.4198 7.30047 20.9638 7.61555L20.483 8.77443C19.955 8.49062 19.4346 8.34888 18.9538 8.34888C18.2997 8.34888 18.0631 8.56947 18.0631 8.8453C18.0631 9.68875 21.1924 9.05824 21.1924 11.0918C21.1924 12.0534 20.3885 12.8732 18.7489 12.8732C17.8425 12.8732 16.9442 12.6287 16.4238 12.266Z" fill="#D1D1D1"/>
</g>
</svg>
