<svg xmlns="http://www.w3.org/2000/svg" width="25" height="24" viewBox="0 0 25 24" fill="none">
  <mask id="mask0_95_173" style="mask-type:alpha" maskUnits="userSpaceOnUse" x="0" y="0" width="25" height="24">
    <path d="M0 0H25V23.1715H0V0Z" fill="black"/>
  </mask>
  <g mask="url(#mask0_95_173)">
    <path d="M24.1391 18.8212H10.3073C9.92252 17.3134 8.55673 16.1934 6.93053 16.1934C5.30432 16.1934 3.93853 17.3134 3.55372 18.8212H0.860882C0.385675 18.8212 0 19.2069 0 19.6821C0 20.1577 0.385675 20.543 0.860882 20.543H3.55372C3.93853 22.0508 5.30432 23.1708 6.93053 23.1708C8.55673 23.1708 9.92252 22.0508 10.3073 20.543H24.1391C24.6148 20.543 25 20.1577 25 19.6821C25 19.2069 24.6148 18.8212 24.1391 18.8212ZM6.93053 21.449C6.27023 21.449 5.70033 21.081 5.39687 20.543C5.25267 20.2873 5.16357 19.9963 5.16357 19.6821C5.16357 19.3679 5.25267 19.0773 5.39687 18.8212C5.70033 18.2831 6.27023 17.9151 6.93053 17.9151C7.59082 17.9151 8.16073 18.2831 8.46419 18.8212C8.60839 19.0773 8.69749 19.3679 8.69749 19.6821C8.69749 19.9963 8.60839 20.2873 8.46419 20.543C8.16073 21.081 7.59082 21.449 6.93053 21.449Z" fill="#FFF8EA"/>
    <path d="M0.860882 12.0918H14.9888C15.3736 13.6001 16.7394 14.7196 18.3656 14.7196C19.9918 14.7196 21.3576 13.6001 21.7424 12.0918H24.1391C24.6148 12.0918 25 11.7065 25 11.2309C25 10.7557 24.6148 10.37 24.1391 10.37H21.7424C21.3576 8.8622 19.9918 7.74219 18.3656 7.74219C16.7394 7.74219 15.3736 8.8622 14.9888 10.37H0.860882C0.385675 10.37 0 10.7557 0 11.2309C0 11.7065 0.385675 12.0918 0.860882 12.0918ZM18.3656 9.46395C19.0259 9.46395 19.5958 9.83241 19.8993 10.37C20.0435 10.6261 20.1326 10.9171 20.1326 11.2309C20.1326 11.5451 20.0435 11.8361 19.8993 12.0918C19.5958 12.6298 19.0259 12.9979 18.3656 12.9979C17.7053 12.9979 17.1354 12.6298 16.832 12.0918C16.6878 11.8361 16.5987 11.5451 16.5987 11.2309C16.5987 10.9171 16.6878 10.6261 16.832 10.37C17.1354 9.83241 17.7053 9.46395 18.3656 9.46395Z" fill="#FFF8EA"/>
    <path d="M0.860882 4.3496H5.82645C6.21126 5.85787 7.57705 6.97788 9.20325 6.97788C10.8295 6.97788 12.1952 5.85787 12.5801 4.3496H24.1391C24.6148 4.3496 25 3.96436 25 3.48872C25 3.01352 24.6148 2.62784 24.1391 2.62784H12.5801C12.1952 1.12001 10.8295 0 9.20325 0C7.57705 0 6.21126 1.12001 5.82645 2.62784H0.860882C0.385675 2.62784 0 3.01352 0 3.48872C0 3.96436 0.385675 4.3496 0.860882 4.3496ZM9.20325 1.72176C9.86355 1.72176 10.4335 2.09022 10.7369 2.62784C10.8811 2.88395 10.9702 3.17493 10.9702 3.48872C10.9702 3.80294 10.8811 4.09392 10.7369 4.3496C10.4335 4.88765 9.86355 5.25611 9.20325 5.25611C8.54296 5.25611 7.97305 4.88765 7.66959 4.3496C7.5254 4.09392 7.43629 3.80294 7.43629 3.48872C7.43629 3.17493 7.5254 2.88395 7.66959 2.62784C7.97305 2.09022 8.54296 1.72176 9.20325 1.72176Z" fill="#FFF8EA"/>
  </g>
</svg>
