<svg xmlns="http://www.w3.org/2000/svg" width="25" height="25" viewBox="0 0 25 25" fill="none">
  <g clip-path="url(#clip0_139_3032)">
    <mask id="mask0_139_3032" style="mask-type:alpha" maskUnits="userSpaceOnUse" x="0" y="1" width="25" height="24">
      <path d="M25 24.1719L1.09278e-06 24.1719L2.10564e-06 1.00039L25 1.00039L25 24.1719Z" fill="black"/>
    </mask>
    <g mask="url(#mask0_139_3032)">
      <path d="M0.860879 5.35016L14.6927 5.35016C15.0775 6.85801 16.4433 7.97803 18.0695 7.97803C19.6957 7.97803 21.0615 6.85801 21.4463 5.35016L24.1391 5.35016C24.6143 5.35016 25 4.96452 25 4.48927C25 4.01367 24.6143 3.62843 24.1391 3.62843L21.4463 3.62843C21.0615 2.12058 19.6957 1.00056 18.0695 1.00056C16.4433 1.00056 15.0775 2.12058 14.6927 3.62843L0.860879 3.62843C0.385244 3.62843 -2.54863e-06 4.01367 -2.56941e-06 4.48927C-2.59019e-06 4.96452 0.385244 5.35016 0.860879 5.35016ZM18.0695 2.72233C18.7298 2.72233 19.2997 3.09038 19.6031 3.62843C19.7473 3.8841 19.8364 4.1751 19.8364 4.48927C19.8364 4.80352 19.7473 5.09407 19.6031 5.35016C19.2997 5.88821 18.7298 6.25629 18.0695 6.25629C17.4092 6.25629 16.8393 5.88821 16.5358 5.35016C16.3916 5.09407 16.3025 4.80352 16.3025 4.48927C16.3025 4.1751 16.3916 3.8841 16.5358 3.62843C16.8393 3.09038 17.4092 2.72233 18.0695 2.72233Z" fill="#FFF8EA"/>
      <path d="M24.1391 12.0806L10.0112 12.0806C9.62638 10.5723 8.26059 9.45273 6.63438 9.45273C5.00818 9.45273 3.64239 10.5723 3.25758 12.0806L0.860879 12.0806C0.385244 12.0806 -2.54863e-06 12.4658 -2.56942e-06 12.9415C-2.59019e-06 13.4167 0.385244 13.8023 0.860879 13.8023L3.25758 13.8023C3.64239 15.3102 5.00818 16.4302 6.63438 16.4302C8.26059 16.4302 9.62638 15.3102 10.0112 13.8023L24.1391 13.8023C24.6143 13.8023 25 13.4167 25 12.9415C25 12.4658 24.6143 12.0806 24.1391 12.0806ZM6.63438 14.7084C5.97409 14.7084 5.40418 14.34 5.10072 13.8023C4.95653 13.5462 4.86742 13.2553 4.86742 12.9415C4.86742 12.6272 4.95653 12.3363 5.10072 12.0806C5.40418 11.5425 5.97409 11.1745 6.63438 11.1745C7.29468 11.1745 7.86458 11.5425 8.16804 12.0806C8.31224 12.3363 8.40134 12.6272 8.40134 12.9415C8.40134 13.2553 8.31224 13.5462 8.16804 13.8023C7.86458 14.34 7.29468 14.7084 6.63438 14.7084Z" fill="#FFF8EA"/>
      <path d="M24.1391 19.8223L19.1736 19.8223C18.7887 18.314 17.423 17.194 15.7967 17.194C14.1705 17.194 12.8048 18.314 12.4199 19.8223L0.860879 19.8223C0.385244 19.8223 -2.54862e-06 20.2075 -2.56942e-06 20.6832C-2.59019e-06 21.1584 0.385244 21.544 0.860879 21.544L12.4199 21.544C12.8048 23.0519 14.1705 24.1719 15.7967 24.1719C17.423 24.1719 18.7887 23.0519 19.1736 21.544L24.1391 21.544C24.6143 21.544 25 21.1584 25 20.6832C25 20.2075 24.6143 19.8223 24.1391 19.8223ZM15.7967 22.4501C15.1365 22.4501 14.5665 22.0817 14.2631 21.544C14.1189 21.2879 14.0298 20.9969 14.0298 20.6832C14.0298 20.3689 14.1189 20.078 14.2631 19.8223C14.5665 19.2842 15.1365 18.9158 15.7967 18.9158C16.457 18.9158 17.0269 19.2842 17.3304 19.8223C17.4746 20.078 17.5637 20.3689 17.5637 20.6832C17.5637 20.9969 17.4746 21.2879 17.3304 21.544C17.0269 22.0817 16.457 22.4501 15.7967 22.4501Z" fill="#FFF8EA"/>
    </g>
  </g>
  <defs>
    <clipPath id="clip0_139_3032">
      <rect width="25" height="25" fill="white" transform="translate(25 1.09278e-06) rotate(90)"/>
    </clipPath>
  </defs>
</svg>
