<svg preserveAspectRatio="xMidYMid meet"   overflow="visible" style="display: block;" viewBox="0 0 23.8307 25.0001" fill="none" xmlns="http://www.w3.org/2000/svg">
<g id="Grupo 9821">
<mask id="mask0_0_61" style="mask-type:alpha" maskUnits="userSpaceOnUse" x="0" y="0" width="24" height="25">
<path id="Rect&#195;&#161;ngulo 4163" d="M0 -3.41791e-05H23.8307V25H0V-3.41791e-05Z" fill="var(--fill-0, black)"/>
</mask>
<g mask="url(#mask0_0_61)">
<path id="Trazado 8897" d="M17.1522 23.277H3.65044C2.58767 23.277 1.72304 22.4158 1.72304 21.3571V3.65044C1.72304 2.58767 2.58767 1.72304 3.65044 1.72304H10.3131C10.6877 1.72304 11.0478 1.78232 11.3993 1.89259V8.54182C11.3993 9.01773 11.7849 9.40335 12.2608 9.40335H19.5059C19.5093 9.40335 19.5121 9.40231 19.5152 9.40231C19.5814 9.40162 19.6479 9.39335 19.7137 9.37715C19.7271 9.37371 19.7395 9.36751 19.753 9.36337C19.7909 9.352 19.8291 9.34166 19.8664 9.32443C19.8774 9.31926 19.886 9.31202 19.8967 9.30651C19.9163 9.29652 19.9349 9.2848 19.9535 9.27308C19.9928 9.24896 20.0294 9.22277 20.0638 9.19382C20.0797 9.18004 20.0955 9.16625 20.1107 9.15109C20.1483 9.11387 20.1813 9.0739 20.211 9.03082C20.2172 9.02186 20.2261 9.01532 20.232 9.00601C20.2337 9.00325 20.2341 9.0005 20.2358 8.99809C20.2702 8.94295 20.2975 8.88402 20.3185 8.82302C20.3243 8.80579 20.3274 8.78822 20.3323 8.77064C20.345 8.72515 20.3543 8.67898 20.3592 8.63177C20.3616 8.61005 20.3629 8.58869 20.3636 8.56698C20.365 8.5208 20.3619 8.47497 20.3557 8.42845C20.353 8.4088 20.3519 8.38951 20.3481 8.36986C20.335 8.3068 20.3168 8.24374 20.2885 8.18274L20.2878 8.17998C20.2368 8.06936 20.1789 7.96288 20.1207 7.8564C20.1024 7.82262 20.0869 7.78713 20.0676 7.75405C20.0469 7.71786 20.0225 7.68409 20.0008 7.64825C19.7757 7.27504 19.5097 6.92905 19.1999 6.6189L16.6915 4.11463L14.1755 1.60209C14.1334 1.56039 14.0883 1.52352 14.0456 1.4832C13.6134 1.07759 13.1358 0.751248 12.6385 0.530009C12.6347 0.528286 12.631 0.527252 12.6272 0.525184C12.622 0.523116 12.6172 0.520015 12.612 0.517603C12.6082 0.51588 12.6041 0.515535 12.6003 0.514157C11.8897 0.174372 11.1209 0 10.3131 0H3.65044C1.63758 0 0 1.63758 0 3.65044V21.3571C0 23.3659 1.63758 25 3.65044 25H17.1522C17.6281 25 18.0137 24.6144 18.0137 24.1385C18.0137 23.6626 17.6281 23.277 17.1522 23.277V23.277ZM13.1224 7.6803V2.98569L14.8578 4.71873L17.8239 7.6803H13.1224Z" fill="var(--fill-0, #B2DE61)"/>
<path id="Trazado 8898" d="M23.8307 19.3229C23.8307 17.8514 22.9958 16.9896 20.7692 16.2366C19.1303 15.6752 18.6175 15.2531 18.6175 14.5001C18.6175 13.7399 19.0713 13.2378 20.0904 13.2378C20.9457 13.2378 21.3906 13.5707 21.5884 14.0332C21.7379 14.3829 22.0591 14.6273 22.4392 14.6273C23.1188 14.6273 23.5974 13.8881 23.2521 13.3033C22.8707 12.6571 22.1453 12.2109 20.9657 12.0682V11.7081C20.9657 11.2901 20.6266 10.951 20.2086 10.951C19.7902 10.951 19.4515 11.2901 19.4515 11.7081V12.0537C17.7532 12.2508 16.6649 13.212 16.6649 14.6149C16.6649 16.1739 17.604 16.8776 19.8626 17.6471C21.373 18.1767 21.8503 18.6323 21.8503 19.4966C21.8503 20.4164 21.2414 20.8799 20.2065 20.8799C19.2168 20.8799 18.7192 20.478 18.5107 19.8967C18.3828 19.5411 18.0413 19.3074 17.6633 19.3074H17.6099C16.9293 19.3074 16.4737 20.0363 16.7949 20.6366C17.2115 21.4147 18.0441 21.9399 19.4515 22.0674V22.4444C19.4515 22.8624 19.7902 23.2015 20.2086 23.2015C20.6266 23.2015 20.9657 22.8624 20.9657 22.4444V22.0536C22.9113 21.833 23.8307 20.7996 23.8307 19.3229Z" fill="var(--fill-0, #B2DE61)"/>
<path id="Trazado 8899" d="M4.64154 7.20819H7.80367C8.27957 7.20819 8.66519 6.82291 8.66519 6.34666C8.66519 5.87076 8.27957 5.48514 7.80367 5.48514H4.64154C4.16563 5.48514 3.78002 5.87076 3.78002 6.34666C3.78002 6.82291 4.16563 7.20819 4.64154 7.20819Z" fill="var(--fill-0, #B2DE61)"/>
<path id="Trazado 8900" d="M4.64154 11.4083H7.80367C8.27957 11.4083 8.66519 11.0227 8.66519 10.5468C8.66519 10.0709 8.27957 9.68523 7.80367 9.68523H4.64154C4.16563 9.68523 3.78002 10.0709 3.78002 10.5468C3.78002 11.0227 4.16563 11.4083 4.64154 11.4083Z" fill="var(--fill-0, #B2DE61)"/>
<path id="Trazado 8901" d="M7.07172 15.8444H12.5227C12.9983 15.8444 13.3843 15.4588 13.3843 14.9829C13.3843 14.507 12.9983 14.1214 12.5227 14.1214H7.07172C5.25632 14.1214 3.77967 15.598 3.77967 17.4134C3.77967 19.2285 5.25632 20.7051 7.07172 20.7051H12.5227C12.9983 20.7051 13.3843 20.3195 13.3843 19.8436C13.3843 19.3681 12.9983 18.9821 12.5227 18.9821H7.07172C6.20641 18.9821 5.50306 18.2784 5.50306 17.4134C5.50306 16.5481 6.20641 15.8444 7.07172 15.8444Z" fill="var(--fill-0, #B2DE61)"/>
</g>
</g>
</svg>
