<svg preserveAspectRatio="xMidYMid meet"   overflow="visible" style="display: block;" viewBox="0 0 19.9344 25" fill="none" xmlns="http://www.w3.org/2000/svg">
<g id="Grupo 9648">
<mask id="mask0_0_61" style="mask-type:alpha" maskUnits="userSpaceOnUse" x="0" y="0" width="20" height="25">
<path id="Rect&#195;&#161;ngulo 4028" d="M0 0H19.9344V25H0V0Z" fill="var(--fill-0, black)"/>
</mask>
<g mask="url(#mask0_0_61)">
<path id="Trazado 8634" d="M15.678 16.6004V6.33616C15.678 5.82793 15.5636 5.31903 15.3512 4.8731C15.2654 4.68724 15.1643 4.51091 15.0486 4.34479C14.9329 4.17867 14.8025 4.02277 14.6585 3.87844L13.2264 2.44908L11.7937 1.01802C11.7045 0.92917 11.6112 0.848153 11.5152 0.770882C11.2939 0.591829 11.0591 0.444093 10.8208 0.338227L10.8116 0.334483C10.8061 0.33176 10.8007 0.328355 10.7949 0.325973C10.7908 0.324271 10.7864 0.32393 10.7827 0.322228C10.3323 0.109475 9.84689 -0.000135048 9.3373 -0.000135048H4.3868C1.96788 -0.000135048 0 1.96774 0 4.38632V16.6045C0 19.0213 1.96584 20.9872 4.38237 20.9872H11.2909C13.7098 20.9872 15.678 19.0193 15.678 16.6004V16.6004ZM12.7502 4.37883H11.2987V2.92973L12.4711 4.10004L12.7502 4.37883ZM1.70202 16.6045V4.38632C1.70202 2.90624 2.90638 1.70189 4.3868 1.70189H9.3373C9.42512 1.70189 9.51125 1.7104 9.59669 1.72333V5.22984C9.59669 5.69994 9.97794 6.08085 10.4477 6.08085H13.9545C13.9671 6.16527 13.976 6.25038 13.976 6.33616V16.6004C13.976 18.0808 12.7716 19.2852 11.2909 19.2852H4.38237C2.90433 19.2852 1.70202 18.0828 1.70202 16.6045Z" fill="var(--fill-0, #B2DE61)"/>
<path id="Trazado 8635" d="M19.0834 7.53779C18.6133 7.53779 18.2324 7.9187 18.2324 8.3888V17.5978C18.2324 20.7407 15.675 23.2982 12.5317 23.2982H5.86722C5.39712 23.2982 5.0162 23.6791 5.0162 24.1492C5.0162 24.6193 5.39712 25.0002 5.86722 25.0002H12.5317C16.6138 25.0002 19.9344 21.6796 19.9344 17.5978V8.3888C19.9344 7.9187 19.5535 7.53779 19.0834 7.53779Z" fill="var(--fill-0, #B2DE61)"/>
</g>
</g>
</svg>
