<svg preserveAspectRatio="xMidYMid meet"   overflow="visible" style="display: block;" viewBox="0 0 65 63.855" fill="none" xmlns="http://www.w3.org/2000/svg">
<g id="Grupo 8996">
<mask id="mask0_0_30" style="mask-type:alpha" maskUnits="userSpaceOnUse" x="0" y="0" width="65" height="64">
<path id="Rect&#195;&#161;ngulo 3771" d="M0 0H65V63.855H0V0Z" fill="var(--fill-0, black)"/>
</mask>
<g mask="url(#mask0_0_30)">
<path id="Trazado 8240" d="M55.2133 16.3332C55.2803 16.3323 55.3474 16.3204 55.4144 16.3128C55.4866 16.3043 55.5596 16.3001 55.63 16.2848C55.6852 16.2721 55.7395 16.25 55.7938 16.2339C55.8719 16.2093 55.9509 16.188 56.0247 16.1549C56.0739 16.1337 56.1189 16.1032 56.1673 16.0777C56.242 16.0378 56.3176 15.9979 56.3872 15.9495C56.3973 15.9427 56.4092 15.9385 56.4194 15.9308C56.4602 15.9011 56.4907 15.8646 56.5289 15.8324C56.5883 15.7823 56.6477 15.7339 56.7012 15.6779C56.7487 15.6287 56.7886 15.5743 56.8302 15.5217C56.8735 15.4665 56.9177 15.4131 56.955 15.3545C56.9915 15.2968 57.0212 15.2357 57.0526 15.1746C57.084 15.1134 57.1163 15.0523 57.1417 14.9878C57.1664 14.9225 57.1842 14.8563 57.2029 14.79C57.2215 14.7247 57.2411 14.661 57.2529 14.5931C57.2674 14.515 57.2716 14.4369 57.2767 14.358C57.2801 14.3105 57.2911 14.2646 57.2911 14.2154V2.12244C57.2911 0.950237 56.3413 0.000420933 55.1691 0.000420933C53.9969 0.000420933 53.0471 0.950237 53.0471 2.12244V8.62091C47.2743 3.17921 39.574 0.0326756 31.5341 0.000420933H31.501H31.411H31.3796C14.0639 0.0657791 0 14.173 0 31.5031C0 48.8722 14.1318 63.004 31.501 63.004C32.6732 63.004 33.623 62.0542 33.623 60.882C33.623 59.7098 32.6732 58.76 31.501 58.76C16.4711 58.76 4.24404 46.5329 4.24404 31.5031C4.24404 16.4885 16.4474 4.27077 31.456 4.24446C38.6233 4.25634 45.48 7.13295 50.5321 12.0934H43.0761C41.9039 12.0934 40.9541 13.0441 40.9541 14.2154C40.9541 15.3876 41.9039 16.3374 43.0761 16.3374H55.1691C55.1844 16.3374 55.198 16.3332 55.2133 16.3332Z" fill="var(--fill-0, #B2DE61)"/>
<path id="Trazado 8241" d="M31.6147 14.8826C30.4425 14.8826 29.4927 15.8324 29.4927 17.0046V29.3802H21.3271C20.1549 29.3802 19.2051 30.33 19.2051 31.5022C19.2051 32.6744 20.1549 33.6242 21.3271 33.6242H31.6147C32.7869 33.6242 33.7367 32.6744 33.7367 31.5022V17.0046C33.7367 15.8324 32.7869 14.8826 31.6147 14.8826Z" fill="var(--fill-0, #B2DE61)"/>
<path id="Trazado 8242" d="M65 54.302C65 50.6776 62.9434 48.5548 57.4592 46.7001C53.4231 45.3174 52.1601 44.2768 52.1601 42.423C52.1601 40.5505 53.2771 39.3138 55.7879 39.3138C57.8938 39.3138 58.9896 40.1337 59.4768 41.2728C59.8452 42.1344 60.6363 42.7362 61.5734 42.7362C63.2464 42.7362 64.4262 40.9155 63.5757 39.4751C62.6361 37.8836 60.8493 36.7843 57.943 36.4329V35.5459C57.943 34.5163 57.1078 33.6811 56.0782 33.6811C55.0486 33.6811 54.2134 34.5163 54.2134 35.5459V36.3973C50.0304 36.8828 47.3499 39.2501 47.3499 42.7056C47.3499 46.5456 49.6629 48.2789 55.226 50.1743C58.9463 51.4789 60.1219 52.601 60.1219 54.7298C60.1219 56.9953 58.6229 58.1369 56.074 58.1369C53.6353 58.1369 52.4096 57.1472 51.8961 55.7162C51.5821 54.8393 50.74 54.2638 49.8089 54.2638H49.6782C48.0009 54.2638 46.8788 56.0591 47.6699 57.5377C48.6961 59.4543 50.7468 60.7479 54.2134 61.0619V61.9905C54.2134 63.0201 55.0486 63.8554 56.0782 63.8554C57.1078 63.8554 57.943 63.0201 57.943 61.9905V61.028C62.7354 60.4848 65 57.9392 65 54.302Z" fill="var(--fill-0, #B2DE61)"/>
</g>
</g>
</svg>
