<svg preserveAspectRatio="xMidYMid meet" overflow="visible" style="display: block;" viewBox="0 0 50 48.0918" fill="none" xmlns="http://www.w3.org/2000/svg">
<path d="M2.12339 31.4491C1.37016 29.1177 0.954091 26.6284 0.954091 24.0459C0.954091 10.7676 11.7217 0 25 0C38.2783 0 49.0459 10.7676 49.0459 24.0459C49.0459 26.6284 48.6298 29.1177 47.8766 31.4491L25 6.45624L2.12339 31.4491ZM50 42.7045C47.9484 41.5136 45.7102 40.4663 43.3285 39.5839C38.9168 44.7848 32.3529 48.0918 25 48.0918C17.6471 48.0918 11.0832 44.7848 6.67145 39.5839C4.28981 40.4663 2.05882 41.5136 0 42.7045L25 15.3874L50 42.7045ZM32.5682 31.2195C29.3472 29.6126 26.736 27.0014 25.1291 23.7805C23.5222 27.0014 20.9111 29.6126 17.6901 31.2195C20.9111 32.8264 23.5222 35.4376 25.1291 38.6586C26.736 35.4376 29.3472 32.8264 32.5682 31.2195Z" fill="url(#cephai-grad)"/>
<defs>
<linearGradient id="cephai-grad" x1="25" y1="0" x2="25" y2="48.0918" gradientUnits="userSpaceOnUse">
<stop stop-color="#b2de61"/>
<stop offset="0.5" stop-color="#7DDB00"/>
<stop offset="1" stop-color="#019F38"/>
</linearGradient>
</defs>
</svg>
