<svg preserveAspectRatio="xMidYMid meet"   overflow="visible" style="display: block;" viewBox="0 0 25 22.4784" fill="none" xmlns="http://www.w3.org/2000/svg">
<g id="Grupo 10175">
<mask id="mask0_0_18" style="mask-type:alpha" maskUnits="userSpaceOnUse" x="0" y="0" width="25" height="23">
<path id="Rect&#195;&#161;ngulo 4500" d="M0 0H25V22.4784H0V0Z" fill="var(--fill-0, black)"/>
</mask>
<g mask="url(#mask0_0_18)">
<path id="Trazado 9340" d="M24.0003 6.30749L13.8357 0.361869C13.0117 -0.120904 11.9886 -0.120904 11.1646 0.361543L1.00005 6.30782C0.528022 6.58387 0.306982 7.12427 0.450219 7.65196C0.59313 8.17966 1.0567 8.53417 1.6036 8.53417H4.37653V17.3715H3.92013C3.47056 17.3715 3.10628 17.7361 3.10628 18.1854C3.10628 18.635 3.47056 18.9992 3.92013 18.9992H21.0802C21.5298 18.9992 21.894 18.635 21.894 18.1854C21.894 17.7361 21.5298 17.3715 21.0802 17.3715H20.6231V8.53417H23.3967C23.9436 8.53417 24.4072 8.17966 24.5501 7.65196C24.693 7.12427 24.4723 6.58387 24.0003 6.30749V6.30749ZM6.00422 8.53417H9.24951V17.3715H6.00422V8.53417ZM14.1225 17.3715H10.8772V8.53417H14.1225V17.3715ZM18.9955 17.3715H15.7498V8.53417H18.9955V17.3715ZM3.20004 6.90648L11.9866 1.76656V1.76624C12.3034 1.58166 12.697 1.58068 13.0137 1.76656L21.8003 6.90648H3.20004Z" fill="var(--fill-0, #B2DE61)"/>
<path id="Trazado 9341" d="M24.1862 20.8506H0.813845C0.364277 20.8506 5.96046e-08 21.2148 5.96046e-08 21.6644C5.96046e-08 22.114 0.364277 22.4783 0.813845 22.4783H24.1862C24.6357 22.4783 25 22.114 25 21.6644C25 21.2148 24.6357 20.8506 24.1862 20.8506Z" fill="var(--fill-0, #B2DE61)"/>
</g>
</g>
</svg>
