<svg preserveAspectRatio="xMidYMid meet"   overflow="visible" style="display: block;" viewBox="0 0 16.739 15.3521" fill="none" xmlns="http://www.w3.org/2000/svg">
<path id="Trazado 2460" d="M15.4176 1.34048C14.5607 0.475922 13.4205 0 12.2077 0C11.0165 0 9.89645 0.461273 9.04513 1.29791L9.04303 1.29865L8.36683 1.87085L7.69971 1.30072L7.69691 1.29935C6.84488 0.461945 5.72416 0 4.53158 0C3.31947 0 2.17921 0.475922 1.32159 1.34048C-0.425752 3.10461 -0.439699 5.96359 1.27554 7.74933L1.27624 7.7507L6.91885 14.6899C7.29498 15.1107 7.82393 15.3521 8.36961 15.3521C8.91463 15.3521 9.44359 15.1107 9.83993 14.6655L15.4637 7.7507C17.1783 5.96429 17.165 3.10461 15.4176 1.34048ZM9.94461 2.36493C8.79948 3.33279 9.95299 2.35724 9.94461 2.36493Z" fill="var(--fill-0, #DF434F)"/>
</svg>
