<svg xmlns="http://www.w3.org/2000/svg" width="23" height="25" viewBox="0 0 23 25" fill="none">
  <mask id="mask0_95_453" style="mask-type:alpha" maskUnits="userSpaceOnUse" x="0" y="0" width="23" height="25">
    <path d="M0 -6.10352e-05H22.6352V24.9999H0V-6.10352e-05Z" fill="black"/>
  </mask>
  <g mask="url(#mask0_95_453)">
    <path d="M7.11305 25C5.2907 25 3.46835 24.3065 2.08101 22.9192C-0.69367 20.1445 -0.69367 15.6298 2.08101 12.8551L13.4692 1.46693C14.415 0.52106 15.6728 0 17.0105 0C18.3485 0 19.6059 0.52106 20.5521 1.46693C21.498 2.41279 22.019 3.67055 22.019 5.00857C22.019 6.34625 21.498 7.60401 20.5518 8.54988L9.36157 19.7401C8.23136 20.8713 6.39098 20.8713 5.26009 19.7401C4.71216 19.1925 4.41047 18.464 4.41047 17.6892C4.41047 16.9147 4.71216 16.1862 5.26009 15.6386L15.3731 5.52521C15.7051 5.19325 16.2438 5.19325 16.5755 5.52521C16.9078 5.85716 16.9078 6.39557 16.5755 6.72753L6.4624 16.8409C6.23588 17.0678 6.11106 17.3688 6.11106 17.6892C6.11106 18.0099 6.23588 18.3109 6.4624 18.5378C6.93006 19.0051 7.69091 19.0054 8.15925 18.5378L19.3495 7.34756C20.6392 6.05783 20.6392 3.95897 19.3495 2.66924C18.7247 2.04445 17.8941 1.70059 17.0105 1.70059C16.1268 1.70059 15.2963 2.04445 14.6715 2.66924L3.28332 14.0574C2.26059 15.0805 1.69736 16.4403 1.69736 17.8871C1.69736 19.3336 2.26059 20.6938 3.28332 21.7165C5.39511 23.8283 8.83098 23.8283 10.9428 21.7168L21.1837 11.4756C21.5157 11.1433 22.0544 11.1433 22.386 11.4756C22.7183 11.8075 22.7183 12.3459 22.386 12.6779L12.1451 22.9192C10.7577 24.3065 8.9354 25 7.11305 25Z" fill="#FFF8EA"/>
  </g>
</svg>
