<svg preserveAspectRatio="xMidYMid meet"   overflow="visible" style="display: block;" viewBox="0 0 25 17.8865" fill="none" xmlns="http://www.w3.org/2000/svg">
<g id="Grupo 9778">
<mask id="mask0_0_83" style="mask-type:alpha" maskUnits="userSpaceOnUse" x="0" y="0" width="25" height="18">
<path id="Rect&#195;&#161;ngulo 4128" d="M0 0.000202179H25V17.8866H0V0.000202179Z" fill="var(--fill-0, black)"/>
</mask>
<g mask="url(#mask0_0_83)">
<path id="Trazado 8835" d="M12.5002 4.19416C9.88138 4.19416 7.75082 6.3244 7.75082 8.94349C7.75082 11.5623 9.88138 13.6928 12.5002 13.6928C15.1189 13.6928 17.2498 11.5623 17.2498 8.94349C17.2498 6.3244 15.1189 4.19416 12.5002 4.19416V4.19416ZM12.5002 12.1179C10.7498 12.1179 9.32574 10.6939 9.32574 8.94349C9.32574 7.19312 10.7498 5.76908 12.5002 5.76908C14.2505 5.76908 15.6749 7.19312 15.6749 8.94349C15.6749 10.6939 14.2505 12.1179 12.5002 12.1179Z" fill="var(--fill-0, #B2DE61)"/>
<path id="Trazado 8836" d="M24.8894 8.54031C21.6133 3.03312 17.2133 0.000138496 12.5002 0.000138496C7.78705 0.000138496 3.38703 3.03312 0.110875 8.54031C-0.0368532 8.78852 -0.0368532 9.09752 0.110875 9.34573C3.38703 14.8532 7.78705 17.8865 12.5002 17.8865C17.2133 17.8865 21.6133 14.8532 24.8894 9.34573C25.0372 9.09752 25.0372 8.78852 24.8894 8.54031V8.54031ZM12.5002 16.3116C8.47655 16.3116 4.65799 13.6994 1.70879 8.94286C4.65799 4.18691 8.47655 1.57506 12.5002 1.57506C16.5238 1.57506 20.3423 4.18691 23.2915 8.94286C20.3423 13.6994 16.5238 16.3116 12.5002 16.3116Z" fill="var(--fill-0, #B2DE61)"/>
</g>
</g>
</svg>
