<svg preserveAspectRatio="xMidYMid meet"   overflow="visible" style="display: block;" viewBox="0 0 25 25" fill="none" xmlns="http://www.w3.org/2000/svg">
<g id="Grupo 9666">
<mask id="mask0_0_75" style="mask-type:alpha" maskUnits="userSpaceOnUse" x="0" y="0" width="25" height="25">
<path id="Rect&#195;&#161;ngulo 4044" d="M0 0H25V25H0V0Z" fill="var(--fill-0, black)"/>
</mask>
<g mask="url(#mask0_0_75)">
<path id="Trazado 8659" d="M12.4997 0.00010129C5.60715 0.00010129 0 5.6076 0 12.5001C0 19.3926 5.60715 25.0001 12.4997 25.0001C19.3925 25.0001 24.9997 19.3926 24.9997 12.5001C24.9997 5.6076 19.3925 0.00010129 12.4997 0.00010129ZM12.4997 23.2532C6.57038 23.2532 1.74688 18.4294 1.74688 12.5001C1.74688 6.57083 6.57038 1.74698 12.4997 1.74698C18.4293 1.74698 23.2528 6.57083 23.2528 12.5001C23.2528 18.4294 18.4293 23.2532 12.4997 23.2532Z" fill="var(--fill-0, #B2DE61)"/>
<path id="Trazado 8660" d="M12.4923 7.38348H8.06327V17.6164H10.4313V14.7952H12.4923C15.2262 14.7952 16.9364 13.377 16.9364 11.0967C16.9364 8.8016 15.2262 7.38348 12.4923 7.38348V7.38348ZM12.3609 12.8656H10.4313V9.31344H12.3609C13.8084 9.31344 14.539 9.97131 14.539 11.0967C14.539 12.2077 13.8084 12.8656 12.3609 12.8656Z" fill="var(--fill-0, #B2DE61)"/>
</g>
</g>
</svg>
