<svg preserveAspectRatio="xMidYMid meet"   overflow="visible" style="display: block;" viewBox="0 0 25 23.0022" fill="none" xmlns="http://www.w3.org/2000/svg">
<g id="Grupo 9662">
<mask id="mask0_0_36" style="mask-type:alpha" maskUnits="userSpaceOnUse" x="0" y="0" width="25" height="24">
<path id="Rect&#195;&#161;ngulo 4040" d="M0 0H25V23.0022H0V0Z" fill="var(--fill-0, black)"/>
</mask>
<g mask="url(#mask0_0_36)">
<path id="Trazado 8655" d="M7.48299 14.6053C3.93805 14.6053 0.811292 17.1146 0.048239 20.5719C-0.0839483 21.1714 0.0592024 21.7885 0.441355 22.2643C0.818183 22.7332 1.3792 23.002 1.98093 23.002H12.9854C13.5871 23.002 14.1481 22.7332 14.5246 22.2646C14.9071 21.7885 15.0506 21.1717 14.9181 20.5719C14.1553 17.1146 11.0282 14.6053 7.48299 14.6053V14.6053ZM13.3036 21.2835C13.2579 21.3405 13.1558 21.4358 12.9854 21.4358H1.98093C1.81053 21.4358 1.70841 21.3405 1.66268 21.2835C1.57904 21.1795 1.54803 21.0433 1.57779 20.9092C2.1836 18.164 4.66696 16.1715 7.48299 16.1715C10.2993 16.1715 12.783 18.164 13.3885 20.9092C13.4183 21.043 13.3873 21.1795 13.3036 21.2835Z" fill="var(--fill-0, #B2DE61)"/>
<path id="Trazado 8656" d="M7.48299 12.0339C9.69917 12.0339 11.5019 10.2309 11.5019 8.015C11.5019 5.79882 9.69917 3.99613 7.48299 3.99613C5.26682 3.99613 3.46412 5.79882 3.46412 8.015C3.46412 10.2309 5.26682 12.0339 7.48299 12.0339V12.0339ZM7.48299 5.56233C8.83525 5.56233 9.93566 6.66243 9.93566 8.015C9.93566 9.36725 8.83525 10.4677 7.48299 10.4677C6.13074 10.4677 5.03032 9.36725 5.03032 8.015C5.03032 6.66243 6.13074 5.56233 7.48299 5.56233Z" fill="var(--fill-0, #B2DE61)"/>
<path id="Trazado 8657" d="M24.9518 16.5762C24.1887 13.1189 21.062 10.6093 17.5167 10.6093C15.4769 10.6093 13.5611 11.4052 12.1218 12.8508C11.8167 13.1575 11.8176 13.6533 12.124 13.9584C12.4303 14.2635 12.9265 14.2623 13.2316 13.9562C14.3749 12.8082 15.8966 12.1755 17.5167 12.1755C20.3327 12.1755 22.8167 14.1683 23.4222 16.9135C23.4517 17.0473 23.421 17.1839 23.3373 17.2878C23.2916 17.3449 23.1895 17.4404 23.0191 17.4404H17.2244C16.7919 17.4404 16.4413 17.7909 16.4413 18.2235C16.4413 18.6561 16.7919 19.0066 17.2244 19.0066H23.0191C23.6205 19.0066 24.1815 18.7375 24.5583 18.2689C24.9405 17.7931 25.084 17.176 24.9518 16.5762Z" fill="var(--fill-0, #B2DE61)"/>
<path id="Trazado 8658" d="M17.5167 8.03786C19.7329 8.03786 21.5356 6.23485 21.5356 4.01899C21.5356 1.80282 19.7329 0.000124271 17.5167 0.000124271C15.3005 0.000124271 13.4978 1.80282 13.4978 4.01899C13.4978 6.23485 15.3005 8.03786 17.5167 8.03786V8.03786ZM17.5167 1.56632C18.869 1.56632 19.9694 2.66674 19.9694 4.01899C19.9694 5.37125 18.869 6.47166 17.5167 6.47166C16.1644 6.47166 15.064 5.37125 15.064 4.01899C15.064 2.66674 16.1644 1.56632 17.5167 1.56632Z" fill="var(--fill-0, #B2DE61)"/>
</g>
</g>
</svg>
