<svg preserveAspectRatio="xMidYMid meet"   overflow="visible" style="display: block;" viewBox="0 0 65 58.3598" fill="none" xmlns="http://www.w3.org/2000/svg">
<g id="Grupo 9217">
<mask id="mask0_0_4" style="mask-type:alpha" maskUnits="userSpaceOnUse" x="0" y="0" width="65" height="59">
<path id="Rect&#195;&#161;ngulo 3921" d="M0 7.62939e-06H65V58.3598H0V7.62939e-06Z" fill="var(--fill-0, black)"/>
</mask>
<g mask="url(#mask0_0_4)">
<path id="Trazado 8416" d="M26.7641 48.8369H8.00939C5.81614 48.8369 4.03171 47.0533 4.03171 44.86V20.4448H57.8236C58.9371 20.4448 59.8394 19.5417 59.8394 18.4289V14.1787C59.8394 9.76238 56.2464 6.16932 51.83 6.16932H41.4484V2.01586C41.4484 0.902298 40.5461 1.4775e-06 39.4325 1.4775e-06C38.319 1.4775e-06 37.4167 0.902298 37.4167 2.01586V6.16932H22.4227V2.01586C22.4227 0.902298 21.5196 1.4775e-06 20.4069 1.4775e-06C19.2933 1.4775e-06 18.391 0.902298 18.391 2.01586V6.16932H8.00939C3.59306 6.16932 0 9.76238 0 14.1787V44.86C0 49.2763 3.59306 52.8686 8.00939 52.8686H26.7641C27.8776 52.8686 28.7799 51.9663 28.7799 50.8527C28.7799 49.74 27.8776 48.8369 26.7641 48.8369V48.8369ZM4.03171 14.1787C4.03171 11.9855 5.81614 10.201 8.00939 10.201H51.83C54.0233 10.201 55.8077 11.9855 55.8077 14.1787V16.4131H4.03171V14.1787Z" fill="var(--fill-0, #B2DE61)"/>
<path id="Trazado 8417" d="M48.0297 24.4184C38.6721 24.4184 31.0587 32.0319 31.0587 41.3895C31.0587 50.7471 38.6721 58.3598 48.0297 58.3598C57.3865 58.3598 65 50.7471 65 41.3895C65 32.0319 57.3865 24.4184 48.0297 24.4184V24.4184ZM48.0297 54.3281C40.8944 54.3281 35.0904 48.524 35.0904 41.3895C35.0904 34.2542 40.8944 28.4502 48.0297 28.4502C55.1642 28.4502 60.9683 34.2542 60.9683 41.3895C60.9683 48.524 55.1642 54.3281 48.0297 54.3281Z" fill="var(--fill-0, #B2DE61)"/>
<path id="Trazado 8418" d="M51.3253 36.8168L46.4566 41.6854L44.735 39.9639C43.948 39.1761 42.6724 39.1769 41.8846 39.9631C41.0968 40.7509 41.0968 42.0273 41.8846 42.8143L45.0309 45.9615C45.4091 46.3396 45.922 46.5517 46.4566 46.5517C46.9912 46.5517 47.504 46.3396 47.8814 45.9615L54.1757 39.668C54.9635 38.881 54.9635 37.6045 54.1757 36.8168C53.3887 36.0298 52.113 36.0298 51.3253 36.8168Z" fill="var(--fill-0, #B2DE61)"/>
</g>
</g>
</svg>
