<svg preserveAspectRatio="xMidYMid meet"   overflow="visible" style="display: block;" viewBox="0 0 23.5675 25" fill="none" xmlns="http://www.w3.org/2000/svg">
<g id="Grupo 9782">
<mask id="mask0_0_47" style="mask-type:alpha" maskUnits="userSpaceOnUse" x="0" y="0" width="24" height="25">
<path id="Rect&#195;&#161;ngulo 4130" d="M0 0H23.5675V25H0V0Z" fill="var(--fill-0, black)"/>
</mask>
<g mask="url(#mask0_0_47)">
<path id="Trazado 8838" d="M20.6093 6.8533H19.5794V3.91514C19.5794 1.75619 17.8231 -0.000149856 15.6642 -0.000149856H7.90333C5.74438 -0.000149856 3.98804 1.75619 3.98804 3.91514V6.8533H2.95814C1.32696 6.8533 0 8.18026 0 9.81144V22.0421C0 23.6733 1.32696 25.0002 2.95814 25.0002H20.6093C22.2405 25.0002 23.5675 23.6733 23.5675 22.0421V9.81144C23.5675 8.18026 22.2405 6.8533 20.6093 6.8533V6.8533ZM5.87293 3.91514C5.87293 2.79551 6.78371 1.88474 7.90333 1.88474H15.6642C16.7838 1.88474 17.6946 2.79551 17.6946 3.91514V6.8533H5.87293V3.91514ZM21.6826 22.0421C21.6826 22.6336 21.2012 23.1153 20.6093 23.1153H2.95814C2.36629 23.1153 1.88489 22.6336 1.88489 22.0421V9.81144C1.88489 9.21958 2.36629 8.73818 2.95814 8.73818H4.93049H18.637H20.6093C21.2012 8.73818 21.6826 9.21958 21.6826 9.81144V22.0421Z" fill="var(--fill-0, #B2DE61)"/>
<path id="Trazado 8839" d="M11.7836 13.0478C11.2629 13.0478 10.8411 13.4696 10.8411 13.9902V17.8622C10.8411 18.3828 11.2629 18.8046 11.7836 18.8046C12.3042 18.8046 12.726 18.3828 12.726 17.8622V13.9902C12.726 13.4696 12.3042 13.0478 11.7836 13.0478Z" fill="var(--fill-0, #B2DE61)"/>
</g>
</g>
</svg>
