<svg preserveAspectRatio="xMidYMid meet"   overflow="visible" style="display: block;" viewBox="0 0 96.0331 11.945" fill="none" xmlns="http://www.w3.org/2000/svg">
<g id="Grupo 9260">
<mask id="mask0_0_5" style="mask-type:alpha" maskUnits="userSpaceOnUse" x="0" y="0" width="97" height="12">
<path id="Rect&#195;&#161;ngulo 3953" d="M0 0H96.0331V11.945H0V0Z" fill="var(--fill-0, black)"/>
</mask>
<g mask="url(#mask0_0_5)">
<path id="Trazado 8448" d="M0 5.99309C0 2.52363 2.66362 0.0412611 6.2477 0.0412611C8.23726 0.0412611 9.89804 0.764737 10.9833 2.07988L9.27305 3.65827C8.50051 2.77041 7.53026 2.31018 6.3795 2.31018C4.22554 2.31018 2.69657 3.82267 2.69657 5.99309C2.69657 8.16352 4.22554 9.67601 6.3795 9.67601C7.53026 9.67601 8.50051 9.21578 9.27305 8.31144L10.9833 9.88983C9.89804 11.2215 8.23726 11.9449 6.23159 11.9449C2.66362 11.9449 0 9.46219 0 5.99309Z" fill="var(--fill-0, #B2DE61)"/>
<path id="Trazado 8449" d="M13.4503 5.99309C13.4503 2.57306 16.1139 0.0412611 19.7481 0.0412611C23.3648 0.0412611 26.0449 2.55658 26.0449 5.99309C26.0449 9.42924 23.3648 11.9449 19.7481 11.9449C16.1139 11.9449 13.4503 9.41276 13.4503 5.99309V5.99309ZM23.3487 5.99309C23.3487 3.80619 21.8029 2.31018 19.7481 2.31018C17.6927 2.31018 16.1472 3.80619 16.1472 5.99309C16.1472 8.18 17.6927 9.67601 19.7481 9.67601C21.8029 9.67601 23.3487 8.18 23.3487 5.99309Z" fill="var(--fill-0, #B2DE61)"/>
<path id="Trazado 8450" d="M39.9233 0.238681V11.748H37.7368L31.9984 4.76004V11.748H29.3677V0.238681H31.5711L37.2927 7.2263V0.238681H39.9233Z" fill="var(--fill-0, #B2DE61)"/>
<path id="Trazado 8451" d="M54.8542 0.238681V11.748H52.6673L46.9292 4.76004V11.748H44.2986V0.238681H46.502L52.2235 7.2263V0.238681H54.8542Z" fill="var(--fill-0, #B2DE61)"/>
<path id="Trazado 8452" d="M68.1406 9.61041V11.7479H59.2293V0.238535H67.9272V2.37601H61.8765V4.87522H67.2198V6.9468H61.8765V9.61041H68.1406Z" fill="var(--fill-0, #B2DE61)"/>
<path id="Trazado 8453" d="M71.151 5.99309C71.151 2.52363 73.8146 0.0412611 77.3987 0.0412611C79.3883 0.0412611 81.0491 0.764737 82.1343 2.07988L80.4241 3.65827C79.6515 2.77041 78.6813 2.31018 77.5305 2.31018C75.3766 2.31018 73.8476 3.82267 73.8476 5.99309C73.8476 8.16352 75.3766 9.67601 77.5305 9.67601C78.6813 9.67601 79.6515 9.21578 80.4241 8.31144L82.1343 9.88983C81.0491 11.2215 79.3883 11.9449 77.3826 11.9449C73.8146 11.9449 71.151 9.46219 71.151 5.99309Z" fill="var(--fill-0, #B2DE61)"/>
<path id="Rect&#195;&#161;ngulo 3951" d="M88.8272 -0.000367327H91.4908V11.7477H88.8272V-0.000367327Z" fill="var(--fill-0, #B2DE61)"/>
<path id="Rect&#195;&#161;ngulo 3952" d="M84.2849 4.54223H96.0331V7.20583H84.2849V4.54223Z" fill="var(--fill-0, #B2DE61)"/>
</g>
</g>
</svg>
