<svg preserveAspectRatio="xMidYMid meet"   overflow="visible" style="display: block;" viewBox="0 0 260.135 97.1074" fill="none" xmlns="http://www.w3.org/2000/svg">
<g id="Grupo 9272">
<mask id="mask0_0_15" style="mask-type:alpha" maskUnits="userSpaceOnUse" x="0" y="0" width="261" height="98">
<path id="Rect&#195;&#161;ngulo 3961" d="M0 0H260.135V97.1074H0V0Z" fill="var(--fill-0, black)"/>
</mask>
<g mask="url(#mask0_0_15)">
<path id="Trazado 8471" d="M133.528 37.0739C134.967 35.673 136.67 34.584 138.635 33.805C140.6 33.0271 142.731 32.6377 145.027 32.6377C147.245 32.6377 149.326 33.0371 151.273 33.8341C153.218 34.6324 154.969 35.848 156.526 37.4825L160.32 33.805C158.453 31.7035 156.185 30.1184 153.52 29.0477C150.854 27.9778 147.946 27.4424 144.794 27.4424C141.68 27.4424 138.811 27.9588 136.184 28.9893C133.557 30.0207 131.271 31.4801 129.325 33.3671C127.379 35.2552 125.861 37.4632 124.772 39.9922C123.682 42.5222 123.138 45.3042 123.138 48.3394C123.138 51.3747 123.682 54.1577 124.772 56.6867C125.861 59.2166 127.37 61.4247 129.296 63.3115C131.222 65.1998 133.499 66.6592 136.125 67.6896C138.752 68.721 141.621 69.2366 144.735 69.2366C147.926 69.2366 150.854 68.6921 153.52 67.6021C156.185 66.5131 158.453 64.9169 160.32 62.8154L156.526 59.1384C154.969 60.812 153.218 62.0475 151.273 62.8448C149.326 63.6428 147.245 64.0413 145.027 64.0413C142.731 64.0413 140.6 63.6528 138.635 62.874C136.67 62.0959 134.967 61.0059 133.528 59.605C132.088 58.2042 130.969 56.5406 130.172 54.6142C129.373 52.6881 128.975 50.5968 128.975 48.3394C128.975 46.0831 129.373 43.9909 130.172 42.0644C130.969 40.1383 132.088 38.4747 133.528 37.0739Z" fill="var(--fill-0, #B2DE61)"/>
<path id="Rect&#195;&#161;ngulo 3960" d="M166.04 27.9094H171.877V68.7694H166.04V27.9094Z" fill="var(--fill-0, #B2DE61)"/>
<path id="Trazado 8472" d="M210.811 58.3558L186.295 27.9094H181.509V68.7694H187.346V38.3231L211.862 68.7694H216.648V27.9094H210.811V58.3558Z" fill="var(--fill-0, #B2DE61)"/>
<path id="Trazado 8473" d="M251.088 62.8447C249.141 63.6426 247.06 64.0411 244.842 64.0411C242.545 64.0411 240.415 63.6527 238.45 62.8738C236.485 62.0957 234.782 61.0058 233.343 59.6049C231.902 58.204 230.783 56.5405 229.986 54.614C229.188 52.688 228.789 50.5966 228.789 48.3394C228.789 46.0829 229.188 43.9907 229.986 42.0643C230.783 40.1382 231.902 38.4746 233.343 37.0737C234.782 35.6729 236.485 34.5838 238.45 33.8048C240.415 33.0269 242.545 32.6375 244.842 32.6375C247.06 32.6375 249.141 33.0369 251.088 33.8339C253.033 34.6322 254.784 35.8479 256.341 37.4823L260.135 33.8048C258.267 31.7034 256 30.1182 253.335 29.0477C250.669 27.9776 247.76 27.4422 244.608 27.4422C241.495 27.4422 238.625 27.9587 235.999 28.9891C233.372 30.0207 231.085 31.4799 229.14 33.3669C227.193 35.255 225.676 37.4631 224.587 39.9921C223.497 42.5222 222.952 45.3041 222.952 48.3394C222.952 51.3747 223.497 54.1575 224.587 56.6865C225.676 59.2165 227.184 61.4245 229.111 63.3114C231.037 65.1996 233.313 66.659 235.94 67.6895C238.567 68.721 241.436 69.2364 244.55 69.2364C247.74 69.2364 250.669 68.6919 253.335 67.602C256 66.5129 258.267 64.9167 260.135 62.8152L256.341 59.1382C254.784 60.8118 253.033 62.0473 251.088 62.8447Z" fill="var(--fill-0, #B2DE61)"/>
<path id="Trazado 8474" d="M81.466 21.4879C87.5259 28.8479 91.1652 38.2758 91.1652 48.5537C91.1652 72.0872 72.0875 91.1648 48.5539 91.1648C25.0205 91.1648 5.94276 72.0872 5.94276 48.5537C5.94276 25.0203 25.0205 5.94274 48.5539 5.94274V0C21.7385 0 0 21.7382 0 48.5537C0 75.3692 21.7385 97.1074 48.5539 97.1074C75.3695 97.1074 97.108 75.3692 97.108 48.5537C97.108 36.8423 92.9611 26.0999 86.0563 17.7134L81.466 21.4879Z" fill="var(--fill-0, #B2DE61)"/>
<path id="Trazado 8475" d="M54.0112 52.8271C52.742 54.4456 50.7703 55.4867 48.5539 55.4867C44.725 55.4867 41.6209 52.3826 41.6209 48.5537C41.6209 44.7248 44.725 41.6207 48.5539 41.6207C50.7108 41.6207 52.6374 42.6058 53.909 44.1502L58.4654 40.4032C56.1119 37.5445 52.546 35.7214 48.5539 35.7214C41.4667 35.7214 35.7216 41.4667 35.7216 48.5537C35.7216 55.6409 41.4667 61.386 48.5539 61.386C52.656 61.386 56.3057 59.459 58.6547 56.4633L54.0112 52.8271Z" fill="var(--fill-0, #B2DE61)"/>
<path id="Trazado 8476" d="M48.5539 23.8148C34.891 23.8148 23.8149 34.8908 23.8149 48.5537C23.8149 54.5149 25.9237 59.9834 29.4356 64.2546L34.0295 60.482C31.3612 57.237 29.7587 53.0827 29.7587 48.5537C29.7587 38.1735 38.1737 29.7586 48.5539 29.7586C58.9342 29.7586 67.3491 38.1735 67.3491 48.5537C67.3491 58.9339 58.9342 67.3488 48.5539 67.3488H48.5531L48.5533 73.2926H48.5539C62.217 73.2926 73.293 62.2165 73.293 48.5537C73.293 34.8908 62.217 23.8148 48.5539 23.8148Z" fill="var(--fill-0, #B2DE61)"/>
<path id="Trazado 8477" d="M72.6869 67.4978C67.07 74.6433 58.348 79.2327 48.5539 79.2327C31.6103 79.2327 17.8748 65.4972 17.8748 48.5537C17.8748 31.6102 31.6103 17.8747 48.5539 17.8747C65.4977 17.8747 79.233 31.6102 79.233 48.5537V48.5567L85.2148 48.5568V48.5537C85.2148 28.3065 68.8012 11.893 48.5539 11.893C28.3068 11.893 11.8932 28.3065 11.8932 48.5537C11.8932 68.8009 28.3068 85.2144 48.5539 85.2144C60.2575 85.2144 70.6802 79.7303 77.3924 71.1915L72.6869 67.4978Z" fill="var(--fill-0, #B2DE61)"/>
</g>
</g>
</svg>
