<svg preserveAspectRatio="xMidYMid meet"   overflow="visible" style="display: block;" viewBox="0 0 25.0001 21.2275" fill="none" xmlns="http://www.w3.org/2000/svg">
<g id="Grupo 8955">
<mask id="mask0_0_18" style="mask-type:alpha" maskUnits="userSpaceOnUse" x="0" y="0" width="25" height="22">
<path id="Rect&#195;&#161;ngulo 3746" d="M0 0H25.0001V21.2275H0V0Z" fill="var(--fill-0, black)"/>
</mask>
<g mask="url(#mask0_0_18)">
<path id="Trazado 8206" d="M11.9166 12.3952C11.6184 12.7466 11.6618 13.2737 12.0132 13.5723C12.1702 13.7053 12.3619 13.7704 12.553 13.7704C12.7898 13.7704 13.0253 13.6702 13.1903 13.4755L17.7552 8.0942C18.4557 8.57554 19.3025 8.8588 20.2147 8.8588C22.6167 8.8588 24.5712 6.90437 24.5712 4.50234C24.5712 2.10064 22.6167 0.146206 20.2147 0.146206C17.813 0.146206 15.8586 2.10064 15.8586 4.50234C15.8586 5.38686 16.1251 6.20958 16.5801 6.89802L11.9166 12.3952ZM20.2147 1.81637C21.6961 1.81637 22.901 3.0209 22.901 4.50234C22.901 5.98311 21.6961 7.18863 20.2147 7.18863C18.7336 7.18863 17.5287 5.98311 17.5287 4.50234C17.5287 3.0209 18.7336 1.81637 20.2147 1.81637Z" fill="var(--fill-0, #FFF8EA)"/>
<path id="Trazado 8207" d="M24.165 8.97738C23.7037 8.97738 23.3299 9.35117 23.3299 9.81247V18.2291C23.3299 18.9616 22.734 19.5572 22.0014 19.5572H2.99828C2.26575 19.5572 1.67017 18.9616 1.67017 18.2291V2.99818C1.67017 2.26598 2.26575 1.67007 2.99828 1.67007H14.7155C15.1768 1.67007 15.5506 1.29628 15.5506 0.834983C15.5506 0.373683 15.1768 -0.000100724 14.7155 -0.000100724H2.99828C1.34515 -0.000100724 0 1.34505 0 2.99818V18.2291C0 19.8822 1.34515 21.2274 2.99828 21.2274H22.0014C23.6549 21.2274 25.0001 19.8822 25.0001 18.2291V9.81247C25.0001 9.35117 24.6263 8.97738 24.165 8.97738Z" fill="var(--fill-0, #FFF8EA)"/>
</g>
</g>
</svg>
