<svg preserveAspectRatio="xMidYMid meet"   overflow="visible" style="display: block;" viewBox="0 0 25 24.2139" fill="none" xmlns="http://www.w3.org/2000/svg">
<g id="Grupo 8921">
<mask id="mask0_0_35" style="mask-type:alpha" maskUnits="userSpaceOnUse" x="0" y="0" width="25" height="25">
<path id="Rect&#195;&#161;ngulo 3716" d="M0 0H25V24.2139H0V0Z" fill="var(--fill-0, black)"/>
</mask>
<g mask="url(#mask0_0_35)">
<path id="Trazado 8179" d="M12.4998 13.2326C11.8248 13.2326 11.1502 13.0821 10.535 12.7805L0.899188 8.05869C0.344413 7.78653 5.96046e-08 7.23412 5.96046e-08 6.61621C5.96046e-08 5.99863 0.344413 5.44588 0.899188 5.17406L10.535 0.452224C11.7647 -0.150498 13.2342 -0.150836 14.4647 0.451887L24.1005 5.17406C24.6552 5.44588 24.9997 5.99863 24.9997 6.61621C24.9997 7.23412 24.6552 7.78687 24.1005 8.05869L14.4647 12.7805C13.8495 13.0821 13.1745 13.2326 12.4998 13.2326V13.2326ZM1.79297 6.61621L11.2778 11.2644C12.043 11.6392 12.9567 11.6389 13.7215 11.2644L23.207 6.61621L13.7215 1.96832C12.9563 1.59318 12.043 1.59318 11.2778 1.96832L1.79297 6.61621ZM10.9064 1.21027H10.9098H10.9064Z" fill="var(--fill-0, #FFF8EA)"/>
<path id="Trazado 8180" d="M12.4971 24.214C11.8265 24.214 11.1573 24.0621 10.535 23.7582L0.562541 18.8692C0.144181 18.6639 -0.0290388 18.1581 0.176258 17.7397C0.381556 17.3214 0.88737 17.1478 1.30573 17.3535L11.2772 22.2418C12.0518 22.6199 12.9459 22.6193 13.7286 22.2397L23.6963 17.3535C24.1153 17.1478 24.6208 17.3214 24.8258 17.7397C25.0311 18.1581 24.8582 18.6639 24.4395 18.8692L14.4684 23.7575C13.8403 24.0621 13.1677 24.214 12.4971 24.214Z" fill="var(--fill-0, #FFF8EA)"/>
<path id="Trazado 8181" d="M12.4971 18.7264C11.8265 18.7264 11.1573 18.5744 10.535 18.2705L0.562541 13.3816C0.144181 13.1763 -0.0290388 12.6705 0.176258 12.2521C0.381556 11.8334 0.88737 11.6602 1.30573 11.8658L11.2772 16.7541C12.0518 17.1323 12.9459 17.1316 13.7286 16.7521L23.6963 11.8658C24.1153 11.6602 24.6208 11.8334 24.8258 12.2521C25.0311 12.6705 24.8582 13.1763 24.4395 13.3816L14.4684 18.2699C13.8403 18.5744 13.1677 18.7264 12.4971 18.7264Z" fill="var(--fill-0, #FFF8EA)"/>
</g>
</g>
</svg>
