<svg preserveAspectRatio="xMidYMid meet"   overflow="visible" style="display: block;" viewBox="0 0 25 25.4837" fill="none" xmlns="http://www.w3.org/2000/svg">
<g id="Grupo 8925">
<mask id="mask0_0_10" style="mask-type:alpha" maskUnits="userSpaceOnUse" x="0" y="0" width="25" height="26">
<path id="Rect&#195;&#161;ngulo 3718" d="M0 0H25V25.4837H0V0Z" fill="var(--fill-0, black)"/>
</mask>
<g mask="url(#mask0_0_10)">
<path id="Trazado 8186" d="M24.0046 5.41342H15.1718C14.6219 5.41342 14.1764 5.00758 14.1764 4.50673C14.1764 4.00588 14.6219 3.60005 15.1718 3.60005H24.0046C24.5545 3.60005 25 4.00588 25 4.50673C25 5.00758 24.5545 5.41342 24.0046 5.41342Z" fill="var(--fill-0, #112719)"/>
<path id="Trazado 8187" d="M4.33741 7.90172C4.08259 7.90172 3.82778 7.81323 3.63348 7.63625L0.291841 4.59196C-0.0971477 4.23799 -0.0971477 3.66388 0.291841 3.30991C0.680034 2.95557 1.3107 2.95557 1.69929 3.30991L4.33741 5.71262L10.3176 0.265619C10.7058 -0.0883514 11.3364 -0.0883514 11.725 0.265619C12.1136 0.619589 12.1136 1.1937 11.725 1.54767L5.04133 7.63625C4.84703 7.81323 4.59222 7.90172 4.33741 7.90172Z" fill="var(--fill-0, #112719)"/>
<path id="Trazado 8188" d="M24.0046 14.2043H15.1718C14.6219 14.2043 14.1764 13.7984 14.1764 13.2976C14.1764 12.7967 14.6219 12.3909 15.1718 12.3909H24.0046C24.5545 12.3909 25 12.7967 25 13.2976C25 13.7984 24.5545 14.2043 24.0046 14.2043Z" fill="var(--fill-0, #112719)"/>
<path id="Trazado 8189" d="M4.33741 16.6926C4.08259 16.6926 3.82778 16.6041 3.63348 16.4271L0.291841 13.3828C-0.0971477 13.0288 -0.0971477 12.4547 0.291841 12.1008C0.680034 11.7464 1.3107 11.7464 1.69929 12.1008L4.33741 14.5035L10.3176 9.05648C10.7058 8.70251 11.3364 8.70251 11.725 9.05648C12.1136 9.41045 12.1136 9.98456 11.725 10.3385L5.04133 16.4271C4.84703 16.6041 4.59222 16.6926 4.33741 16.6926Z" fill="var(--fill-0, #112719)"/>
<path id="Trazado 8190" d="M24.0046 22.9951H15.1718C14.6219 22.9951 14.1764 22.5893 14.1764 22.0884C14.1764 21.5876 14.6219 21.1818 15.1718 21.1818H24.0046C24.5545 21.1818 25 21.5876 25 22.0884C25 22.5893 24.5545 22.9951 24.0046 22.9951Z" fill="var(--fill-0, #112719)"/>
<path id="Trazado 8191" d="M4.33741 25.4838C4.08259 25.4838 3.82778 25.3953 3.63348 25.2183L0.291841 22.174C-0.0971477 21.8201 -0.0971477 21.246 0.291841 20.892C0.680034 20.5377 1.3107 20.5377 1.69929 20.892L4.33741 23.2947L10.3176 17.8481C10.7058 17.4937 11.3364 17.4937 11.725 17.8481C12.1136 18.202 12.1136 18.7761 11.725 19.1301L5.04133 25.2183C4.84703 25.3953 4.59222 25.4838 4.33741 25.4838Z" fill="var(--fill-0, #112719)"/>
</g>
</g>
</svg>
