<svg preserveAspectRatio="xMidYMid meet"   overflow="visible" style="display: block;" viewBox="0 0 25 20.4102" fill="none" xmlns="http://www.w3.org/2000/svg">
<g id="Grupo 8929">
<mask id="mask0_0_29" style="mask-type:alpha" maskUnits="userSpaceOnUse" x="0" y="0" width="25" height="21">
<path id="Rect&#195;&#161;ngulo 3720" d="M0 0.000202179H25V20.4103H0V0.000202179Z" fill="var(--fill-0, black)"/>
</mask>
<g mask="url(#mask0_0_29)">
<path id="Trazado 8194" d="M24.1718 8.18595C23.0678 7.08199 21.2717 7.08232 20.1674 8.18595L12.3123 16.0417C12.1653 16.1884 12.0789 16.3853 12.0703 16.5929L11.9488 19.5489C11.9396 19.7799 12.027 20.0044 12.1905 20.1679C12.3461 20.3235 12.5566 20.4102 12.7757 20.4102C12.787 20.4102 12.7986 20.4099 12.8098 20.4095L15.7655 20.2877C15.9731 20.2791 16.1697 20.1927 16.3167 20.0461L24.1718 12.1906C25.2761 11.0867 25.2761 9.2899 24.1718 8.18595V8.18595ZM23.0016 11.0205L15.3746 18.6472L13.6394 18.719L13.7109 16.9838L21.3379 9.35676C21.7964 8.89764 22.5428 8.89797 23.0016 9.35643C23.4604 9.8149 23.4604 10.5617 23.0016 11.0205Z" fill="var(--fill-0, #FFF8EA)"/>
<path id="Trazado 8195" d="M7.61414 18.7551H3.28803C2.38765 18.7551 1.6551 18.0226 1.6551 17.1222V3.28783C1.6551 2.38779 2.38765 1.65524 3.28803 1.65524H19.751C20.6514 1.65524 21.3839 2.38779 21.3839 3.28783V5.03264C21.3839 5.48978 21.7543 5.86019 22.2115 5.86019C22.6686 5.86019 23.039 5.48978 23.039 5.03264V3.28783C23.039 1.47516 21.564 0.000135254 19.751 0.000135254H3.28803C1.47503 0.000135254 0 1.47516 0 3.28783V17.1222C0 18.9352 1.47503 20.4102 3.28803 20.4102H7.61414C8.07127 20.4102 8.44169 20.0398 8.44169 19.5827C8.44169 19.1255 8.07127 18.7551 7.61414 18.7551Z" fill="var(--fill-0, #FFF8EA)"/>
<path id="Trazado 8196" d="M13.5758 4.20509C13.1187 4.20509 12.7483 4.5755 12.7483 5.03264C12.7483 5.48978 13.1187 5.86019 13.5758 5.86019H18.4749C18.9321 5.86019 19.3025 5.48978 19.3025 5.03264C19.3025 4.5755 18.9321 4.20509 18.4749 4.20509H13.5758Z" fill="var(--fill-0, #FFF8EA)"/>
<path id="Trazado 8197" d="M8.10239 8.76788C6.52806 8.22864 6.0355 7.82315 6.0355 7.09987C6.0355 6.36963 6.47145 5.88734 7.45061 5.88734C8.27187 5.88734 8.69922 6.2071 8.88923 6.65133C9.03289 6.98732 9.3414 7.22201 9.70685 7.22201C10.3593 7.22201 10.8194 6.5123 10.4874 5.95023C10.121 5.32957 9.42449 4.9009 8.29107 4.76385V4.41794C8.29107 4.01641 7.96535 3.69068 7.56382 3.69068C7.16196 3.69068 6.83657 4.01641 6.83657 4.41794V4.74995C5.2053 4.93929 4.15994 5.86251 4.15994 7.2101C4.15994 8.70763 5.06197 9.38358 7.23148 10.1227C8.68234 10.6315 9.1408 11.0691 9.1408 11.8993C9.1408 12.7828 8.55589 13.228 7.56184 13.228C6.61114 13.228 6.13315 12.8421 5.93288 12.2836C5.81007 11.942 5.48203 11.7176 5.1189 11.7176H5.06792C4.41383 11.7176 3.97622 12.4177 4.28506 12.9943C4.68493 13.7418 5.48468 14.2463 6.83657 14.3687V14.7309C6.83657 15.1324 7.16196 15.4581 7.56382 15.4581C7.96535 15.4581 8.29107 15.1324 8.29107 14.7309V14.3555C10.16 14.1437 11.0432 13.1509 11.0432 11.7325C11.0432 10.319 10.2411 9.49116 8.10239 8.76788Z" fill="var(--fill-0, #FFF8EA)"/>
</g>
</g>
</svg>
