<svg preserveAspectRatio="xMidYMid meet"   overflow="visible" style="display: block;" viewBox="0 0 25 33.4" fill="none" xmlns="http://www.w3.org/2000/svg">
<g id="Grupo 3079">
<path id="Trazado 2956" d="M12.6632 24.4263C11.619 24.4263 10.7729 23.7651 10.7729 22.949V10.4509C10.7729 9.63484 11.619 8.97362 12.6632 8.97362C13.7075 8.97362 14.5536 9.63484 14.5536 10.4509V22.949C14.5536 23.7651 13.7075 24.4263 12.6632 24.4263Z" fill="var(--fill-0, #FFF8EA)"/>
<path id="Trazado 2957" d="M1.89032 21.8039C0.8461 21.8039 0 20.9578 0 19.9136V13.4865C0 12.4422 0.8461 11.5961 1.89032 11.5961C2.93454 11.5961 3.78064 12.4422 3.78064 13.4865V19.9136C3.78064 20.9578 2.93454 21.8039 1.89032 21.8039Z" fill="var(--fill-0, #FFF8EA)"/>
<path id="Trazado 2958" d="M23.1097 21.0477C22.0654 21.0477 21.2193 20.2016 21.2193 19.1574V14.2426C21.2193 13.1983 22.0654 12.3522 23.1097 12.3522C24.1539 12.3522 25 13.1983 25 14.2426V19.1574C25 20.2016 24.1539 21.0477 23.1097 21.0477Z" fill="var(--fill-0, #FFF8EA)"/>
<path id="Trazado 2959" d="M18.2129 29.5248C17.1687 29.5248 16.3226 28.8046 16.3226 27.9157V5.48431C16.3226 4.59541 17.1687 3.87517 18.2129 3.87517C19.2571 3.87517 20.1032 4.59541 20.1032 5.48431V27.9157C20.1032 28.8046 19.2571 29.5248 18.2129 29.5248Z" fill="var(--fill-0, #FFF8EA)"/>
<path id="Trazado 2960" d="M7.44003 33.4C6.39581 33.4 5.54968 32.654 5.54968 31.7333V1.66667C5.54968 0.745987 6.39581 0 7.44003 0C8.48425 0 9.33032 0.745987 9.33032 1.66667V31.7333C9.33032 32.654 8.48425 33.4 7.44003 33.4Z" fill="var(--fill-0, #FFF8EA)"/>
</g>
</svg>
