<svg preserveAspectRatio="xMidYMid meet"   overflow="visible" style="display: block;" viewBox="0 0 25 24.6142" fill="none" xmlns="http://www.w3.org/2000/svg">
<g id="Grupo 8959">
<mask id="mask0_0_22" style="mask-type:alpha" maskUnits="userSpaceOnUse" x="0" y="0" width="25" height="25">
<path id="Rect&#195;&#161;ngulo 3748" d="M0 0H25V24.6142H0V0Z" fill="var(--fill-0, black)"/>
</mask>
<g mask="url(#mask0_0_22)">
<path id="Trazado 8211" d="M18.4692 9.23513C18.4692 4.14312 14.3266 0.000171268 9.23461 0.000171268C4.14261 0.000171268 -6.58724e-07 4.14312 -6.58724e-07 9.23513V17.6063C-6.58724e-07 18.0833 0.386458 18.4697 0.863402 18.4697H9.23461C14.3266 18.4697 18.4692 14.3271 18.4692 9.23513V9.23513ZM9.23461 16.7429H1.7268V9.23513C1.7268 5.09494 5.09477 1.72698 9.23461 1.72698C13.3745 1.72698 16.7424 5.09494 16.7424 9.23513C16.7424 13.375 13.3745 16.7429 9.23461 16.7429Z" fill="var(--fill-0, #FFF8EA)"/>
<path id="Trazado 8212" d="M22.1898 8.75266C21.8475 8.42111 21.3012 8.42906 20.9689 8.77165C20.6371 9.11391 20.6453 9.66061 20.9879 9.99251C22.4616 11.4213 23.2732 13.3359 23.2732 15.3836V22.8876H15.7609C13.8818 22.8876 12.0811 22.1876 10.691 20.9163C10.3394 20.5947 9.79306 20.6193 9.47118 20.9708C9.14931 21.3228 9.17383 21.8691 9.52575 22.191C11.2349 23.7538 13.4494 24.6144 15.7609 24.6144H24.1366C24.6135 24.6144 25 24.2279 25 23.751V15.3836C25 12.8645 24.0019 10.5095 22.1898 8.75266Z" fill="var(--fill-0, #FFF8EA)"/>
</g>
</g>
</svg>
