<svg preserveAspectRatio="xMidYMid meet"   overflow="visible" style="display: block;" viewBox="0 0 25 23.2809" fill="none" xmlns="http://www.w3.org/2000/svg">
<g id="Grupo 1">
<mask id="mask0_0_26" style="mask-type:alpha" maskUnits="userSpaceOnUse" x="0" y="0" width="25" height="24">
<path id="Trazado 8221" d="M0 -3.62327e-05H25V23.2808H0V-3.62327e-05Z" fill="var(--fill-0, black)"/>
</mask>
<g mask="url(#mask0_0_26)">
<path id="Trazado 8205" d="M21.6538 16.317H17.3164V14.2754H23.6178C24.083 14.2754 24.46 13.8981 24.46 13.4332C24.46 12.9679 24.083 12.591 23.6178 12.591H23.3853C22.9902 7.22544 18.703 2.92818 13.3422 2.51684V1.68441H14.1682C14.6335 1.68441 15.0104 1.30744 15.0104 0.842204C15.0104 0.376971 14.6335 0 14.1682 0H10.8314C10.3665 0 9.98922 0.376971 9.98922 0.842204C9.98922 1.30744 10.3665 1.68441 10.8314 1.68441H11.6578V2.51684C6.29666 2.92818 2.0095 7.22544 1.61467 12.591H1.38223C0.916992 12.591 0.540022 12.9679 0.540022 13.4332C0.540022 13.8981 0.916992 14.2754 1.38223 14.2754H7.68326V16.317H3.34625C1.50115 16.317 0 17.8178 0 19.6629V21.4386C0 21.9039 0.376971 22.2808 0.842204 22.2808H24.1578C24.623 22.2808 25 21.9039 25 21.4386V19.6629C25 17.8178 23.4989 16.317 21.6538 16.317V16.317ZM12.5 4.16554C17.3188 4.16554 21.2852 7.87663 21.6962 12.591H3.30346C3.71446 7.87663 7.68091 4.16554 12.5 4.16554V4.16554ZM9.36767 14.2754H15.6323V16.317H9.36767V14.2754ZM23.3156 20.5964H1.68441V19.6629C1.68441 18.7469 2.42993 18.0014 3.34625 18.0014H21.6538C22.5701 18.0014 23.3156 18.7469 23.3156 19.6629V20.5964Z" fill="var(--fill-0, #FFF8EA)"/>
</g>
</g>
</svg>
