<?xml version="1.0" encoding="UTF-8"?>
<svg id="Capa_1" xmlns="http://www.w3.org/2000/svg" version="1.1" viewBox="0 0 1080 1080">
  <!-- Generator: Adobe Illustrator 30.2.1, SVG Export Plug-In . SVG Version: 2.1.1 Build 1)  -->
  <defs>
    <style>
      .st0 {
        fill: #00297a;
      }
    </style>
  </defs>
  <path class="st0" d="M672.25,228.62c17.13,4.29,30.55,17.52,30.54,36.54l-.03,130.72,127.81,95.99c20.44,14.95,23.93,42.8,8.07,61.76-15.65,18.72-43.18,20.79-62.76,3.29l-.17,115.53c26.44,1.42,46.01,22.16,46.02,48.46,15.35,15.34,18.94,37.86,8.65,57.22,13.82,10.07,21.47,25.71,16.89,43.11-3.37,12.77-16.35,29.53-33.35,29.54l-548.76.28c-20.26.01-34.29-14.83-39.08-32.82v-13.37c4.05-10,6.38-20.44,19.16-26.14-16.1-21.36-1.34-39.98,4.96-58.7,7.93-23.56,18.85-47.39,49.1-47.4l-.63-115.65c-13.44,11.52-29.05,15.11-45.35,9.19-13.6-4.94-23.24-17.45-27.24-32.41v-14.59c3.37-11.26,8.58-20.41,18.58-27.89l224.26-167.76c32.46-24.28,74.8-27.76,112.15-13.69l.21-44.79c.09-18.72,13.11-31.91,30.18-36.43h60.79ZM678.37,377.43l.15-112.31c-.36-6.96-5.44-11.94-12.33-12.18h-48.68c-6.77.39-11.63,5.37-12,12.15l.1,58.03,72.75,54.32ZM644.62,771.92c-6.46-19.71-1.48-37.54,11.66-51.03-.06-27.31,21.32-48.49,48.56-48.45,12.35-12.4,29.06-17.05,46.58-13.02l.03-120.81-192.31-144.32c-13.02-9.77-29.82-10.26-42.8-.55l-67.96,50.86c-5.85,4.38-13.44,2.51-17.08-2.55s-3.08-12.66,2.4-16.75l68.88-51.5c20.46-15.3,48.88-15.52,69.63.04l223.43,167.48c8.43,6.32,19.78,3.17,25.09-4.24s4.67-18.66-3.44-24.73l-224.01-167.93c-33.04-24.77-78.73-24.83-111.77-.08l-223.58,167.52c-8.74,6.55-9.7,18.15-3.5,25.95,5.95,7.48,16.94,9.27,25.2,3.08l66.43-49.82c5.87-4.4,13.64-2.87,17.51,2.85,3.37,4.99,2.65,12.33-2.82,16.46l-37.57,28.33v120.74c17.52-4.05,34.27.52,46.6,13,27.26,0,48.59,21.08,48.54,48.46,13.46,13.59,18.11,32.31,11.54,51.13l34.49.04.31-123.99c.1-40.02,34.51-70.78,73.23-70.5,38.24.28,71.97,30.89,72.07,70.51l.31,124,34.35-.17ZM488.66,720.92l.03,51.14h97.28s-.08-121.55-.08-121.55c-.02-27.66-22.57-48.89-49.16-48.6-26.11.28-47.96,21.49-48,48.5l-.05,45.71,10.98.04c7.41.03,13.1,4.76,13.26,12.06.13,5.87-4.39,11.81-11.35,12.12l-12.92.57ZM401.44,772.05c10.81-11.26,8.83-27.46-3.14-36.15-10.28-7.47,1.82-18.89-10.95-32.03-13.21-13.59-24.47-.57-32.71-11.67-4.89-6.58-11.94-10.08-19.67-9.87-7.22.19-13.8,3.67-18.53,10.01-8.16,10.94-19.3-2.17-32.67,11.65-12.72,13.14-.51,24.45-10.98,32.02-12.17,8.8-13.65,25.57-2.78,36.05h131.43ZM804.89,772.05c10.7-11.39,8.82-27.36-3.07-36.06-10.57-7.73,2.03-19.54-11.59-32.64-13.37-12.86-24.04-.21-32.04-11.01-4.94-6.67-11.87-10.16-19.66-10.03-7.17.12-13.87,3.62-18.54,9.87-8.33,11.15-19.42-1.96-32.71,11.68-13.14,13.49,0,23.91-11.64,32.62-11.71,8.76-12.89,25.5-2.2,35.57h131.45ZM808.73,826.75c10.31,0,15.85-8.47,15.31-16.29-.55-7.93-6.79-14.09-15.87-14.09H266.45c-9.52,0-15.93,6.86-15.93,15.2,0,8.27,6.42,15.2,15.94,15.2h542.27Z"/>
  <path class="st0" d="M585.89,492.43c0,26.83-21.75,48.58-48.58,48.58s-48.58-21.75-48.58-48.58,21.75-48.58,48.58-48.58,48.58,21.75,48.58,48.58ZM561.59,492.43c0-13.41-10.87-24.28-24.28-24.28s-24.28,10.87-24.28,24.28,10.87,24.28,24.28,24.28,24.28-10.87,24.28-24.28Z"/>
  <circle class="st0" cx="397.3" cy="467.78" r="12.09"/>
</svg>